StickNoBills.glyphspackage
{
glyphname = exclam;
layers = (
{
layerId = "DC4431BF-9234-4C16-9154-22D387E42D10";
shapes = (
{
closed = 1;
nodes = (
(86,166,l),
(86,700,l),
(46,700,l),
(46,166,l)
);
},
{
closed = 1;
nodes = (
(80,-3,o),
(92,9,o),
(92,23,cs),
(92,37,o),
(80,49,o),
(66,49,cs),
(52,49,o),
(40,37,o),
(40,23,cs),
(40,9,o),
(52,-3,o),
(66,-3,cs)
);
}
);
width = 132;
},
{
layerId = "4EACF7E3-2421-4EEA-928B-7BA9BC4A845D";
shapes = (
{
closed = 1;
nodes = (
(188,166,l),
(188,700,l),
(59,700,l),
(59,166,l)
);
},
{
closed = 1;
nodes = (
(164,-22,o),
(197,11,o),
(197,53,cs),
(197,95,o),
(164,129,o),
(122,129,cs),
(80,129,o),
(47,95,o),
(47,53,cs),
(47,11,o),
(80,-22,o),
(122,-22,cs)
);
}
);
width = 244;
}
);
unicode = 33;
}
{
glyphname = quotedbl;
layers = (
{
layerId = "DC4431BF-9234-4C16-9154-22D387E42D10";
shapes = (
{
closed = 1;
nodes = (
(173,465,l),
(173,736,l),
(133,736,l),
(133,465,l)
);
},
{
closed = 1;
nodes = (
(80,465,l),
(80,736,l),
(40,736,l),
(40,465,l)
);
}
);
width = 213;
},
{
layerId = "4EACF7E3-2421-4EEA-928B-7BA9BC4A845D";
shapes = (
{
closed = 1;
nodes = (
(350,465,l),
(350,736,l),
(223,736,l),
(223,465,l)
);
},
{
closed = 1;
nodes = (
(170,465,l),
(170,736,l),
(43,736,l),
(43,465,l)
);
}
);
width = 392;
}
);
unicode = 34;
}
{
glyphname = numbersign;
layers = (
{
layerId = "DC4431BF-9234-4C16-9154-22D387E42D10";
shapes = (
{
closed = 1;
nodes = (
(224,22,l),
(259,218,l),
(445,218,l),
(411,22,l),
(451,22,l),
(485,218,l),
(670,217,l),
(675,255,l),
(492,255,l),
(525,446,l),
(704,445,l),
(710,484,l),
(532,484,l),
(566,682,l),
(526,682,l),
(492,484,l),
(305,484,l),
(340,682,l),
(300,682,l),
(265,484,l),
(79,484,l),
(73,446,l),
(259,446,l),
(226,256,l),
(47,256,l),
(40,218,l),
(219,218,l),
(184,22,l)
);
},
{
closed = 1;
nodes = (
(266,256,l),
(299,446,l),
(485,446,l),
(452,255,l)
);
}
);
width = 750;
},
{
layerId = "4EACF7E3-2421-4EEA-928B-7BA9BC4A845D";
shapes = (
{
closed = 1;
nodes = (
(262,22,l),
(289,176,l),
(394,176,l),
(368,22,l),
(488,22,l),
(515,176,l),
(661,175,l),
(679,296,l),
(536,296,l),
(555,404,l),
(695,403,l),
(714,524,l),
(576,524,l),
(604,682,l),
(483,682,l),
(456,524,l),
(350,524,l),
(378,682,l),
(257,682,l),
(230,525,l),
(84,525,l),
(62,404,l),
(208,404,l),
(190,297,l),
(53,297,l),
(28,176,l),
(168,176,l),
(141,22,l)
);
},
{
closed = 1;
nodes = (
(310,297,l),
(329,404,l),
(434,404,l),
(416,296,l)
);
}
);
width = 753;
}
);
unicode = 35;
}
{
glyphname = dollar;
layers = (
{
layerId = "DC4431BF-9234-4C16-9154-22D387E42D10";
shapes = (
{
closed = 1;
nodes = (
(303,-47,l),
(303,-1,l),
(404,15,o),
(481,108,o),
(481,203,cs),
(481,311,o),
(422,346,o),
(353,365,cs),
(332,371,o),
(303,375,o),
(273,380,c),
(273,340,l),
(352,326,o),
(441,300,o),
(441,209,cs),
(441,100,o),
(326,35,o),
(273,35,c),
(273,-47,l)
);
},
{
closed = 1;
nodes = (
(228,-47,l),
(228,35,l),
(174,38,o),
(96,77,o),
(77,171,c),
(40,158,l),
(41,108,o),
(101,15,o),
(198,-1,c),
(198,-47,l)
);
},
{
closed = 1;
nodes = (
(228,389,l),
(156,405,o),
(88,434,o),
(88,508,cs),
(88,622,o),
(196,662,o),
(228,662,c),
(228,750,l),
(198,750,l),
(198,696,l),
(138,682,o),
(48,628,o),
(48,514,cs),
(48,421,o),
(97,388,o),
(171,360,cs),
(185,355,o),
(205,352,o),
(228,348,c)
);
},
{
closed = 1;
nodes = (
(453,553,l),
(446,591,o),
(394,680,o),
(303,697,c),
(303,750,l),
(273,750,l),
(273,662,l),
(320,660,o),
(392,626,o),
(415,541,c)
);
}
);
width = 521;
},
{
layerId = "4EACF7E3-2421-4EEA-928B-7BA9BC4A845D";
shapes = (
{
closed = 1;
nodes = (
(329,-47,l),
(329,12,l),
(404,44,o),
(461,122,o),
(461,211,cs),
(461,298,o),
(407,353,o),
(333,394,cs),
(308,408,o),
(284,418,o),
(258,428,c),
(258,280,l),
(293,263,o),
(320,242,o),
(320,201,cs),
(320,152,o),
(283,130,o),
(258,127,c),
(258,-47,l)
);
},
{
closed = 1;
nodes = (
(203,-47,l),
(203,127,l),
(180,136,o),
(148,162,o),
(147,203,c),
(20,158,l),
(21,116,o),
(63,45,o),
(132,13,c),
(132,-47,l)
);
},
{
closed = 1;
nodes = (
(203,454,l),
(182,467,o),
(162,485,o),
(162,512,cs),
(162,539,o),
(183,562,o),
(203,568,c),
(203,750,l),
(132,750,l),
(132,679,l),
(80,651,o),
(28,601,o),
(28,504,cs),
(28,405,o),
(82,355,o),
(151,323,cs),
(166,316,o),
(184,309,o),
(203,302,c)
);
},
{
closed = 1;
nodes = (
(433,553,l),
(428,580,o),
(392,649,o),
(329,682,c),
(329,750,l),
(258,750,l),
(258,568,l),
(275,563,o),
(299,544,o),
(303,510,c)
);
}
);
width = 481;
}
);
unicode = 36;
}
{
glyphname = percent;
layers = (
{
layerId = "DC4431BF-9234-4C16-9154-22D387E42D10";
shapes = (
{
closed = 1;
nodes = (
(81,-13,l),
(255,726,l),
(215,726,l),
(40,-13,l)
);
},
{
closed = 1;
nodes = (
(226,99,o),
(238,111,o),
(238,125,cs),
(238,139,o),
(226,151,o),
(212,151,cs),
(198,151,o),
(186,139,o),
(186,125,cs),
(186,111,o),
(198,99,o),
(212,99,cs)
);
},
{
closed = 1;
nodes = (
(95,560,o),
(107,572,o),
(107,586,cs),
(107,600,o),
(95,612,o),
(81,612,cs),
(67,612,o),
(55,600,o),
(55,586,cs),
(55,572,o),
(67,560,o),
(81,560,cs)
);
}
);
width = 295;
},
{
layerId = "4EACF7E3-2421-4EEA-928B-7BA9BC4A845D";
shapes = (
{
closed = 1;
nodes = (
(287,-23,l),
(461,716,l),
(335,716,l),
(160,-23,l)
);
},
{
closed = 1;
nodes = (
(555,9,o),
(603,57,o),
(603,117,cs),
(603,177,o),
(555,225,o),
(495,225,cs),
(435,225,o),
(387,177,o),
(387,117,cs),
(387,57,o),
(435,9,o),
(495,9,cs)
);
},
{
closed = 1;
nodes = (
(194,467,o),
(242,515,o),
(242,575,cs),
(242,635,o),
(194,683,o),
(134,683,cs),
(74,683,o),
(26,635,o),
(26,575,cs),
(26,515,o),
(74,467,o),
(134,467,cs)
);
}
);
width = 629;
}
);
unicode = 37;
}
{
glyphname = ampersand;
layers = (
{
layerId = "DC4431BF-9234-4C16-9154-22D387E42D10";
shapes = (
{
closed = 1;
nodes = (
(596,27,l),
(493,134,l),
(533,175,o),
(578,260,o),
(578,345,c),
(538,345,l),
(538,281,o),
(502,202,o),
(464,164,c),
(212,426,ls),
(195,443,o),
(152,476,o),
(152,532,cs),
(152,614,o),
(214,661,o),
(269,666,c),
(269,706,l),
(178,694,o),
(112,621,o),
(112,532,cs),
(112,474,o),
(136,446,o),
(178,402,cs),
(552,15,l)
);
},
{
closed = 1;
nodes = (
(318,-1,o),
(377,20,o),
(425,67,c),
(397,96,l),
(363,58,o),
(313,39,o),
(265,39,cs),
(173,39,o),
(80,103,o),
(80,213,cs),
(80,289,o),
(127,332,o),
(151,351,c),
(123,379,l),
(68,334,o),
(40,276,o),
(40,213,cs),
(40,82,o),
(147,-1,o),
(261,-1,cs)
);
},
{
closed = 1;
nodes = (
(478,559,l),
(463,636,o),
(402,696,o),
(324,706,c),
(324,666,l),
(389,658,o),
(432,598,o),
(439,549,c)
);
}
);
width = 636;
},
{
layerId = "4EACF7E3-2421-4EEA-928B-7BA9BC4A845D";
shapes = (
{
closed = 1;
nodes = (
(628,37,l),
(513,174,l),
(549,223,o),
(572,271,o),
(581,345,c),
(438,345,l),
(435,321,o),
(424,300,o),
(414,287,c),
(255,478,ls),
(238,499,o),
(231,515,o),
(231,532,cs),
(231,555,o),
(245,572,o),
(259,575,c),
(259,706,l),
(166,693,o),
(102,622,o),
(102,527,cs),
(102,484,o),
(115,446,o),
(156,393,c),
(487,0,l)
);
},
{
closed = 1;
nodes = (
(295,0,o),
(341,18,o),
(378,47,c),
(287,154,l),
(272,142,o),
(257,138,o),
(242,138,cs),
(203,138,o),
(171,171,o),
(171,209,cs),
(171,227,o),
(178,246,o),
(197,262,c),
(104,371,l),
(59,332,o),
(30,276,o),
(30,213,cs),
(30,95,o),
(126,0,o),
(244,0,cs)
);
},
{
closed = 1;
nodes = (
(468,559,l),
(453,636,o),
(392,696,o),
(314,706,c),
(314,575,l),
(338,566,o),
(343,539,o),
(343,526,c)
);
}
);
width = 658;
}
);
unicode = 38;
}
{
glyphname = quotesingle;
layers = (
{
layerId = "DC4431BF-9234-4C16-9154-22D387E42D10";
shapes = (
{
closed = 1;
nodes = (
(80,465,l),
(80,736,l),
(40,736,l),
(40,465,l)
);
}
);
width = 120;
},
{
layerId = "4EACF7E3-2421-4EEA-928B-7BA9BC4A845D";
shapes = (
{
closed = 1;
nodes = (
(170,465,l),
(170,736,l),
(43,736,l),
(43,465,l)
);
}
);
width = 212;
}
);
unicode = 39;
}
{
glyphname = parenleft;
layers = (
{
layerId = "DC4431BF-9234-4C16-9154-22D387E42D10";
shapes = (
{
closed = 1;
nodes = (
(172,18,l),
(137,40,o),
(81,78,o),
(81,188,cs),
(80,522,ls),
(80,642,o),
(132,659,o),
(171,682,c),
(171,705,l),
(111,676,o),
(40,652,o),
(40,510,cs),
(40,189,ls),
(40,99,o),
(63,53,o),
(172,-5,c)
);
}
);
width = 212;
},
{
layerId = "4EACF7E3-2421-4EEA-928B-7BA9BC4A845D";
shapes = (
{
closed = 1;
nodes = (
(203,51,l),
(168,73,o),
(143,104,o),
(144,202,cs),
(144,521,ls),
(144,593,o),
(164,625,o),
(203,648,c),
(202,735,l),
(103,696,o),
(40,652,o),
(40,510,cs),
(40,189,ls),
(40,93,o),
(61,22,o),
(203,-37,c)
);
}
);
width = 223;
}
);
unicode = 40;
}
{
glyphname = parenright;
layers = (
{
layerId = "DC4431BF-9234-4C16-9154-22D387E42D10";
shapes = (
{
closed = 1;
nodes = (
(176,48,o),
(180,168,o),
(180,196,cs),
(180,510,ls),
(180,601,o),
(147.998,669,o),
(39.998,709,c),
(39.998,686,l),
(78.998,663,o),
(139.998,632,o),
(139.998,521,cs),
(139.998,208,ls),
(140,68,o),
(78,38,o),
(39.998,14,c),
(39.998,-9,l)
);
}
);
width = 220;
},
{
layerId = "4EACF7E3-2421-4EEA-928B-7BA9BC4A845D";
shapes = (
{
closed = 1;
nodes = (
(162,22,o),
(183,93,o),
(183,189,cs),
(183,510,ls),
(183,652,o),
(120,696,o),
(21,735,c),
(20,648,l),
(59,625,o),
(80,593,o),
(80,521,cs),
(80,202,ls),
(80,104,o),
(55,73,o),
(20,51,c),
(20,-37,l)
);
}
);
width = 223;
}
);
unicode = 41;
}
{
glyphname = asterisk;
layers = (
{
layerId = "DC4431BF-9234-4C16-9154-22D387E42D10";
shapes = (
{
closed = 1;
nodes = (
(197,478,l),
(197,595,l),
(292,527,l),
(315,559,l),
(207,633,l),
(315,705,l),
(293,737,l),
(197,674,l),
(197,785,l),
(157,785,l),
(157,679,l),
(65,737,l),
(42,705,l),
(149,634,l),
(40,563,l),
(62,531,l),
(157,595,l),
(157,478,l)
);
}
);
width = 355;
},
{
layerId = "4EACF7E3-2421-4EEA-928B-7BA9BC4A845D";
shapes = (
{
closed = 1;
nodes = (
(196,478,l),
(196,565,l),
(267,515,l),
(308,572,l),
(221,632,l),
(309,691,l),
(267,748,l),
(196,702,l),
(196,785,l),
(125,785,l),
(125,704,l),
(57,748,l),
(15,691,l),
(103,633,l),
(16,574,l),
(57,517,l),
(125,564,l),
(125,478,l)
);
}
);
width = 324;
}
);
unicode = 42;
}
{
glyphname = plus;
layers = (
{
layerId = "DC4431BF-9234-4C16-9154-22D387E42D10";
shapes = (
{
closed = 1;
nodes = (
(246,87,l),
(246,275,l),
(415,275,l),
(415,313,l),
(246,313,l),
(246,498,l),
(206,498,l),
(206,313,l),
(40,313,l),
(40,275,l),
(206,275,l),
(206,87,l)
);
}
);
width = 455;
},
{
layerId = "4EACF7E3-2421-4EEA-928B-7BA9BC4A845D";
shapes = (
{
closed = 1;
nodes = (
(265,87,l),
(265,230,l),
(390,230,l),
(390,357,l),
(265,357,l),
(265,498,l),
(138,498,l),
(138,357,l),
(15,357,l),
(15,230,l),
(138,230,l),
(138,87,l)
);
}
);
width = 405;
}
);
unicode = 43;
}
{
glyphname = comma;
layers = (
{
layerId = "DC4431BF-9234-4C16-9154-22D387E42D10";
shapes = (
{
closed = 1;
nodes = (
(79,-23,l),
(116,129,l),
(77,129,l),
(40,-23,l)
);
}
);
width = 156;
},
{
layerId = "4EACF7E3-2421-4EEA-928B-7BA9BC4A845D";
shapes = (
{
closed = 1;
nodes = (
(178,-23,l),
(215,129,l),
(88,129,l),
(51,-23,l)
);
}
);
width = 265;
}
);
unicode = 44;
}
{
glyphname = hyphen;
layers = (
{
layerId = "DC4431BF-9234-4C16-9154-22D387E42D10";
shapes = (
{
closed = 1;
nodes = (
(356,275,l),
(356,313,l),
(40,313,l),
(40,275,l)
);
}
);
width = 396;
},
{
layerId = "4EACF7E3-2421-4EEA-928B-7BA9BC4A845D";
shapes = (
{
closed = 1;
nodes = (
(366,230,l),
(366,357,l),
(50,357,l),
(50,230,l)
);
}
);
width = 416;
}
);
unicode = 45;
}
{
glyphname = period;
layers = (
{
layerId = "DC4431BF-9234-4C16-9154-22D387E42D10";
shapes = (
{
closed = 1;
nodes = (
(100,-4,o),
(118,14,o),
(118,35,cs),
(118,56,o),
(100,74,o),
(79,74,cs),
(58,74,o),
(40,56,o),
(40,35,cs),
(40,14,o),
(58,-4,o),
(79,-4,cs)
);
}
);
width = 158;
},
{
layerId = "4EACF7E3-2421-4EEA-928B-7BA9BC4A845D";
shapes = (
{
closed = 1;
nodes = (
(147,-5,o),
(180,28,o),
(180,70,cs),
(180,112,o),
(147,146,o),
(105,146,cs),
(63,146,o),
(30,112,o),
(30,70,cs),
(30,28,o),
(63,-5,o),
(105,-5,cs)
);
}
);
width = 210;
}
);
unicode = 46;
}
{
glyphname = slash;
layers = (
{
layerId = "DC4431BF-9234-4C16-9154-22D387E42D10";
shapes = (
{
closed = 1;
nodes = (
(81,-13,l),
(255,726,l),
(215,726,l),
(40,-13,l)
);
}
);
width = 295;
},
{
layerId = "4EACF7E3-2421-4EEA-928B-7BA9BC4A845D";
shapes = (
{
closed = 1;
nodes = (
(177,-23,l),
(351,716,l),
(225,716,l),
(50,-23,l)
);
}
);
width = 401;
}
);
unicode = 47;
}
{
glyphname = zero;
layers = (
{
layerId = "DC4431BF-9234-4C16-9154-22D387E42D10";
shapes = (
{
closed = 1;
nodes = (
(350,3,o),
(466,60,o),
(466,353,cs),
(466,602,o),
(372,693,o),
(283,698,c),
(283,660,l),
(335,659,o),
(426,577,o),
(426,398,cs),
(426,339,ls),
(426,90,o),
(339,46,o),
(284,38,c),
(284,0,l)
);
},
{
closed = 1;
nodes = (
(222,38,l),
(181,39,o),
(81,93,o),
(81,339,cs),
(81,398,ls),
(81,583,o),
(172,660,o),
(223,660,c),
(223,698,l),
(134,693,o),
(40,602,o),
(40,353,cs),
(40,60,o),
(156,3,o),
(222,0,c)
);
}
);
width = 506;
},
{
layerId = "4EACF7E3-2421-4EEA-928B-7BA9BC4A845D";
shapes = (
{
closed = 1;
nodes = (
(363,0,o),
(469,57,o),
(469,350,cs),
(469,643,o),
(363,700,o),
(277,700,c),
(277,566,l),
(332,553,o),
(334,452,o),
(334,361,cs),
(334,339,ls),
(334,248,o),
(332,147,o),
(277,134,c),
(277,0,l)
);
},
{
closed = 1;
nodes = (
(222,134,l),
(167,147,o),
(165,248,o),
(165,339,cs),
(165,361,ls),
(165,452,o),
(167,553,o),
(222,566,c),
(222,700,l),
(136,700,o),
(30,643,o),
(30,350,cs),
(30,57,o),
(136,0,o),
(222,0,c)
);
}
);
width = 499;
}
);
unicode = 48;
}
{
glyphname = one;
layers = (
{
layerId = "DC4431BF-9234-4C16-9154-22D387E42D10";
shapes = (
{
closed = 1;
nodes = (
(120,0,l),
(120,700,l),
(80,700,l),
(40,667,l),
(40,624,l),
(80,624,l),
(80,0,l)
);
}
);
width = 160;
},
{
layerId = "4EACF7E3-2421-4EEA-928B-7BA9BC4A845D";
shapes = (
{
closed = 1;
nodes = (
(247,0,l),
(247,700,l),
(106,700,l),
(30,640,l),
(30,514,l),
(106,514,l),
(106,0,l)
);
}
);
width = 277;
}
);
unicode = 49;
}
{
glyphname = two;
layers = (
{
layerId = "DC4431BF-9234-4C16-9154-22D387E42D10";
shapes = (
{
closed = 1;
nodes = (
(100,80,l),
(100,231,o),
(281,291,o),
(355,329,cs),
(423,364,o),
(468,410,o),
(470,494,cs),
(472,599,o),
(420,700,o),
(262,700,c),
(262,662,l),
(398,662,o),
(430,579,o),
(430,494,cs),
(430,408,o),
(361,373,o),
(305,346,cs),
(268,328,o),
(60,257,o),
(60,80,c)
);
},
{
closed = 1;
nodes = (
(464,0,l),
(464,38,l),
(60,38,l),
(60,0,l)
);
},
{
closed = 1;
nodes = (
(96,619,o),
(168,661,o),
(217,662,c),
(217,700,l),
(111,691,o),
(50,604,o),
(41,520,c),
(78,512,l)
);
}
);
width = 510;
},
{
layerId = "4EACF7E3-2421-4EEA-928B-7BA9BC4A845D";
shapes = (
{
closed = 1;
nodes = (
(209,190,l),
(209,235,o),
(275,264,o),
(343,313,cs),
(430,375,o),
(465,423,o),
(465,502,cs),
(465,605,o),
(406,700,o),
(268,700,c),
(268,570,l),
(303,570,o),
(335,546,o),
(335,507,cs),
(335,457,o),
(282,430,o),
(215,379,cs),
(154,332,o),
(51,278,o),
(51,190,c)
);
},
{
closed = 1;
nodes = (
(455,0,l),
(455,138,l),
(51,138,l),
(51,0,l)
);
},
{
closed = 1;
nodes = (
(151,555,o),
(196,570,o),
(213,570,c),
(213,700,l),
(115,700,o),
(30,612,o),
(30,521,c),
(151,498,l)
);
}
);
width = 495;
}
);
unicode = 50;
}
{
glyphname = three;
layers = (
{
layerId = "DC4431BF-9234-4C16-9154-22D387E42D10";
shapes = (
{
closed = 1;
nodes = (
(402,-4,o),
(469,81,o),
(469,185,cs),
(469,251,o),
(451,305,o),
(389,348,c),
(451,390,o),
(469,445,o),
(469,511,cs),
(469,615,o),
(402,700,o),
(272,700,c),
(272,662,l),
(365,662,o),
(429,609,o),
(429,508,cs),
(429,448,o),
(406,366,o),
(267,366,c),
(267,330,l),
(406,330,o),
(429,248,o),
(429,188,cs),
(429,87,o),
(365,34,o),
(272,34,c),
(272,-4,l)
);
},
{
closed = 1;
nodes = (
(217,34,l),
(168,35,o),
(96,77,o),
(78,184,c),
(41,176,l),
(50,92,o),
(111,5,o),
(217,-4,c)
);
},
{
closed = 1;
nodes = (
(96,619,o),
(168,661,o),
(217,662,c),
(217,700,l),
(111,691,o),
(50,604,o),
(41,520,c),
(78,512,l)
);
}
);
width = 509;
},
{
layerId = "4EACF7E3-2421-4EEA-928B-7BA9BC4A845D";
shapes = (
{
closed = 1;
nodes = (
(349,0,o),
(472,51,o),
(472,199,cs),
(472,284,o),
(433,331,o),
(405,350,c),
(433,369,o),
(472,416,o),
(472,501,cs),
(472,649,o),
(349,700,o),
(268,700,c),
(268,570,l),
(303,566,o),
(342,552,o),
(342,496,cs),
(342,453,o),
(319,415,o),
(213,415,c),
(213,285,l),
(319,285,o),
(342,248,o),
(342,204,cs),
(342,147,o),
(302,134,o),
(268,130,c),
(268,0,l)
);
},
{
closed = 1;
nodes = (
(213,130,l),
(196,130,o),
(151,145,o),
(151,202,c),
(30,179,l),
(30,88,o),
(115,0,o),
(213,0,c)
);
},
{
closed = 1;
nodes = (
(151,555,o),
(196,568,o),
(213,570,c),
(213,700,l),
(115,700,o),
(30,612,o),
(30,521,c),
(151,498,l)
);
}
);
width = 502;
}
);
unicode = 51;
}
{
glyphname = four;
layers = (
{
layerId = "DC4431BF-9234-4C16-9154-22D387E42D10";
shapes = (
{
closed = 1;
nodes = (
(407,0,l),
(407,145,l),
(461,145,l),
(461,183,l),
(407,183,l),
(407,701,l),
(366,701,l),
(366,0,l)
);
},
{
closed = 1;
nodes = (
(321,145,l),
(321,183,l),
(73,183,l),
(321,608,l),
(321,677,l),
(30,183,l),
(30,145,l)
);
}
);
width = 501;
},
{
layerId = "4EACF7E3-2421-4EEA-928B-7BA9BC4A845D";
shapes = (
{
closed = 1;
nodes = (
(407,0,l),
(407,142,l),
(461,142,l),
(461,272,l),
(407,272,l),
(407,701,l),
(267,701,l),
(267,0,l)
);
},
{
closed = 1;
nodes = (
(210,142,l),
(210,272,l),
(164,272,l),
(210,346,l),
(210,598,l),
(20,272,l),
(20,142,l)
);
}
);
width = 491;
}
);
unicode = 52;
}
{
glyphname = five;
layers = (
{
layerId = "DC4431BF-9234-4C16-9154-22D387E42D10";
shapes = (
{
closed = 1;
nodes = (
(121,386,o),
(170,409,o),
(222,409,c),
(222,447,l),
(157,447,o),
(112,420,o),
(84,398,c),
(105,661,l),
(423,662,l),
(423,700,l),
(69,700,l),
(40,354,l),
(79,330,l)
);
},
{
closed = 1;
nodes = (
(222,38,l),
(148,44,o),
(110,68,o),
(75,129,c),
(42,107,l),
(74,46,o),
(138,0,o),
(222,0,c)
);
},
{
closed = 1;
nodes = (
(372,2,o),
(480,78,o),
(480,223,cs),
(480,333,o),
(415,447,o),
(267,447,c),
(267,409,l),
(331,409,o),
(441,366,o),
(441,224,cs),
(441,96,o),
(331,38,o),
(267,38,c),
(267,0,l)
);
}
);
width = 520;
},
{
layerId = "4EACF7E3-2421-4EEA-928B-7BA9BC4A845D";
shapes = (
{
closed = 1;
nodes = (
(168,303,o),
(194,321,o),
(228,324,c),
(228,447,l),
(211,447,o),
(196,445,o),
(183,442,c),
(195,570,l),
(433,570,l),
(433,700,l),
(74,700,l),
(45,354,l),
(160,286,l)
);
},
{
closed = 1;
nodes = (
(225,129,l),
(208,129,o),
(153,153,o),
(151,199,c),
(30,176,l),
(30,85,o),
(127,-1,o),
(225,-1,c)
);
},
{
closed = 1;
nodes = (
(387,2,o),
(490,82,o),
(490,223,cs),
(490,333,o),
(425,444,o),
(282,447,c),
(282,324,l),
(320,319,o),
(362,280,o),
(362,224,cs),
(362,174,o),
(331,135,o),
(282,126,c),
(282,0,l)
);
}
);
width = 520;
}
);
unicode = 53;
}
{
glyphname = six;
layers = (
{
layerId = "DC4431BF-9234-4C16-9154-22D387E42D10";
shapes = (
{
closed = 1;
nodes = (
(247,37,l),
(126,37,o),
(94,164,o),
(94,211,cs),
(94,304,o),
(147,387,o),
(247,387,c),
(247,425,l),
(186,425,o),
(116,399,o),
(80,324,c),
(80,448,o),
(96,635,o),
(247,659,c),
(247,697,l),
(70,679,o),
(40,466,o),
(40,349,cs),
(40,172.997,o),
(73,6,o),
(247,-1,c)
);
},
{
closed = 1;
nodes = (
(403,0,o),
(494,87,o),
(494,212,cs),
(494,330,o),
(426,425,o),
(302,425,c),
(302,389,l),
(373,389,o),
(455,335,o),
(455,211,cs),
(455,136,o),
(400,37,o),
(302,37,c),
(302,-1,l)
);
},
{
closed = 1;
nodes = (
(467,594,l),
(440,651,o),
(379,698,o),
(301,698,c),
(301,660,l),
(378,660,o),
(417,607,o),
(434,572,c)
);
}
);
width = 534;
},
{
layerId = "4EACF7E3-2421-4EEA-928B-7BA9BC4A845D";
shapes = (
{
closed = 1;
nodes = (
(232,129,l),
(194,139,o),
(175,175,o),
(175,212,cs),
(175,248,o),
(194,285,o),
(232,295,c),
(232,425,l),
(212,425,o),
(182,420,o),
(165,412,c),
(165,462,o),
(166,558,o),
(232,570,c),
(232,700,l),
(47,700,o),
(30,475,o),
(30,349,cs),
(30,187,o),
(58,-1,o),
(232,-1,c)
);
},
{
closed = 1;
nodes = (
(387,-1,o),
(475,84,o),
(475,215,cs),
(475,327,o),
(410,425,o),
(286,425,c),
(286,295,l),
(324,285,o),
(343,248,o),
(343,212,cs),
(343,175,o),
(324,139,o),
(286,129,c),
(286,-1,l)
);
},
{
closed = 1;
nodes = (
(451,594,l),
(421,654,o),
(357,700,o),
(286,700,c),
(286,570,l),
(300,570,o),
(335,559,o),
(345,522,c)
);
}
);
width = 505;
}
);
unicode = 54;
}
{
glyphname = seven;
layers = (
{
layerId = "DC4431BF-9234-4C16-9154-22D387E42D10";
shapes = (
{
closed = 1;
nodes = (
(263,0,l),
(279,154,o),
(321,406,o),
(434,616,c),
(391,616,l),
(282,408,o),
(237,158,o),
(220,0,c)
);
},
{
closed = 1;
nodes = (
(439,661,l),
(439,700,l),
(40,700,l),
(40,660,l)
);
}
);
width = 439;
},
{
layerId = "4EACF7E3-2421-4EEA-928B-7BA9BC4A845D";
shapes = (
{
closed = 1;
nodes = (
(283,0,l),
(283,174,o),
(337,356,o),
(419,515,c),
(276,515,l),
(208,388,o),
(143,198,o),
(143,0,c)
);
},
{
closed = 1;
nodes = (
(429,570,l),
(429,700,l),
(30,700,l),
(30,570,l)
);
}
);
width = 449;
}
);
unicode = 55;
}
{
glyphname = eight;
layers = (
{
layerId = "DC4431BF-9234-4C16-9154-22D387E42D10";
shapes = (
{
closed = 1;
nodes = (
(409,0,o),
(479,97,o),
(479,194,cs),
(479,254,o),
(463,310,o),
(395,349,c),
(450,385,o),
(475,442,o),
(475,499,cs),
(475,598,o),
(401.001,698,o),
(284,698,c),
(284,660,l),
(388,656,o),
(434,572,o),
(434,501,cs),
(434,434,o),
(391,368,o),
(285,368,c),
(285,330,l),
(350,330,o),
(440,308,o),
(440,199,cs),
(440,90,o),
(366,42,o),
(287,38,c),
(287,0,l)
);
},
{
closed = 1;
nodes = (
(232,38,l),
(153,42,o),
(79,90,o),
(79,199,cs),
(79,308,o),
(169,330,o),
(234,330,c),
(234,368,l),
(128,368,o),
(85,434,o),
(85,501,cs),
(85,572,o),
(131,656,o),
(235,660,c),
(235,698,l),
(118,698,o),
(44,598,o),
(44,499,cs),
(44,442,o),
(69,385,o),
(124,349,c),
(56,310,o),
(40,254,o),
(40,194,cs),
(40,97,o),
(110,0,o),
(232,0,c)
);
}
);
width = 519;
},
{
layerId = "4EACF7E3-2421-4EEA-928B-7BA9BC4A845D";
shapes = (
{
closed = 1;
nodes = (
(358,-2,o),
(462,78,o),
(462,205,cs),
(462,280,o),
(425,332,o),
(398,349,c),
(425,366,o),
(462,418,o),
(462,493,cs),
(462,620,o),
(358,700,o),
(275,700,c),
(275,571,l),
(314,565,o),
(333,529,o),
(333,492,cs),
(333,456,o),
(314,420,o),
(276,413,c),
(276,285,l),
(314,278,o),
(333,242,o),
(333,206,cs),
(333,169,o),
(314,133,o),
(275,127,c),
(275,-2,l)
);
},
{
closed = 1;
nodes = (
(217,127,l),
(178,133,o),
(159,169,o),
(159,206,cs),
(159,242,o),
(178,278,o),
(216,285,c),
(216,413,l),
(178,420,o),
(159,456,o),
(159,492,cs),
(159,529,o),
(178,565,o),
(217,571,c),
(217,700,l),
(134,700,o),
(30,620,o),
(30,493,cs),
(30,418,o),
(67,366,o),
(94,349,c),
(67,332,o),
(30,280,o),
(30,205,cs),
(30,78,o),
(134,-2,o),
(217,-2,c)
);
}
);
width = 492;
}
);
unicode = 56;
}
{
glyphname = nine;
layers = (
{
layerId = "DC4431BF-9234-4C16-9154-22D387E42D10";
shapes = (
{
closed = 1;
nodes = (
(458,0,o),
(491,233,o),
(491,341,cs),
(491,529,o),
(456,700,o),
(281,700,c),
(281,660,l),
(389,659,o),
(435,551,o),
(435,490,cs),
(435,380,o),
(382,314,o),
(281,314,c),
(281,274,l),
(411,274,o),
(437,348,o),
(451,366,c),
(451,103,o),
(344,41,o),
(281,41,c),
(281,2,l)
);
},
{
closed = 1;
nodes = (
(237,41,l),
(174,41,o),
(116,83,o),
(90,136,c),
(57,115,l),
(90,51,o),
(159,1,o),
(237,1,c)
);
},
{
closed = 1;
nodes = (
(237,314,l),
(138,314,o),
(78,380,o),
(78,485,cs),
(78,550,o),
(125,658,o),
(237,660,c),
(237,700,l),
(136,699,o),
(40,610,o),
(40,485,cs),
(40,359,o),
(108,274,o),
(237,274,c)
);
}
);
width = 531;
},
{
layerId = "4EACF7E3-2421-4EEA-928B-7BA9BC4A845D";
shapes = (
{
closed = 1;
nodes = (
(466,-1,o),
(475,224,o),
(475,331,cs),
(475,514,o),
(449,700,o),
(273,700,c),
(273,570,l),
(311,560,o),
(330,524,o),
(330,487,cs),
(330,451,o),
(311,414,o),
(273,404,c),
(273,274,l),
(293,274,o),
(323,279,o),
(340,287,c),
(340,237,o),
(346,134,o),
(273,129,c),
(273,-1,l)
);
},
{
closed = 1;
nodes = (
(219,129,l),
(198,130,o),
(171,148,o),
(160,177,c),
(54,105,l),
(84,45,o),
(138,-1,o),
(219,-1,c)
);
},
{
closed = 1;
nodes = (
(219,404,l),
(181,414,o),
(162,451,o),
(162,487,cs),
(162,524,o),
(181,560,o),
(219,570,c),
(219,700,l),
(118,700,o),
(30,615,o),
(30,484,cs),
(30,372,o),
(95,274,o),
(219,274,c)
);
}
);
width = 505;
}
);
unicode = 57;
}
{
glyphname = colon;
layers = (
{
layerId = "DC4431BF-9234-4C16-9154-22D387E42D10";
shapes = (
{
closed = 1;
nodes = (
(91,285,o),
(103,297,o),
(103,311,cs),
(103,325,o),
(91,337,o),
(77,337,cs),
(63,337,o),
(51,325,o),
(51,311,cs),
(51,297,o),
(63,285,o),
(77,285,cs)
);
},
{
closed = 1;
nodes = (
(90,-5,o),
(102,7,o),
(102,21,cs),
(102,35,o),
(90,47,o),
(76,47,cs),
(62,47,o),
(50,35,o),
(50,21,cs),
(50,7,o),
(62,-5,o),
(76,-5,cs)
);
}
);
width = 153;
},
{
layerId = "4EACF7E3-2421-4EEA-928B-7BA9BC4A845D";
shapes = (
{
closed = 1;
nodes = (
(167,355,o),
(200,388,o),
(200,430,cs),
(200,472,o),
(167,506,o),
(125,506,cs),
(83,506,o),
(50,472,o),
(50,430,cs),
(50,388,o),
(83,355,o),
(125,355,cs)
);
},
{
closed = 1;
nodes = (
(167,65,o),
(200,98,o),
(200,140,cs),
(200,182,o),
(167,216,o),
(125,216,cs),
(83,216,o),
(50,182,o),
(50,140,cs),
(50,98,o),
(83,65,o),
(125,65,cs)
);
}
);
width = 250;
}
);
unicode = 58;
}
{
glyphname = semicolon;
layers = (
{
layerId = "DC4431BF-9234-4C16-9154-22D387E42D10";
shapes = (
{
closed = 1;
nodes = (
(89,-23,l),
(126,129,l),
(87,129,l),
(50,-23,l)
);
},
{
closed = 1;
nodes = (
(137,285,o),
(149,297,o),
(149,311,cs),
(149,325,o),
(137,337,o),
(123,337,cs),
(109,337,o),
(97,325,o),
(97,311,cs),
(97,297,o),
(109,285,o),
(123,285,cs)
);
}
);
width = 199;
},
{
layerId = "4EACF7E3-2421-4EEA-928B-7BA9BC4A845D";
shapes = (
{
closed = 1;
nodes = (
(177,-23,l),
(214,129,l),
(87,129,l),
(50,-23,l)
);
},
{
closed = 1;
nodes = (
(208,285,o),
(241,318,o),
(241,360,cs),
(241,402,o),
(208,436,o),
(166,436,cs),
(124,436,o),
(91,402,o),
(91,360,cs),
(91,318,o),
(124,285,o),
(166,285,cs)
);
}
);
width = 291;
}
);
unicode = 59;
}
{
glyphname = less;
layers = (
{
layerId = "DC4431BF-9234-4C16-9154-22D387E42D10";
shapes = (
{
closed = 1;
nodes = (
(394,119,l),
(86,292,l),
(394,460,l),
(394,500,l),
(40,308,l),
(40,276,l),
(394,79,l)
);
}
);
width = 434;
},
{
layerId = "4EACF7E3-2421-4EEA-928B-7BA9BC4A845D";
shapes = (
{
closed = 1;
nodes = (
(384,206,l),
(208,292,l),
(384,370,l),
(384,500,l),
(30,322,l),
(30,258,l),
(384,79,l)
);
}
);
width = 414;
}
);
unicode = 60;
}
{
glyphname = equal;
layers = (
{
layerId = "DC4431BF-9234-4C16-9154-22D387E42D10";
shapes = (
{
closed = 1;
nodes = (
(368,325,l),
(368,365,l),
(50,365,l),
(50,325,l)
);
},
{
closed = 1;
nodes = (
(368,218,l),
(368,258,l),
(50,258,l),
(50,218,l)
);
}
);
width = 418;
},
{
layerId = "4EACF7E3-2421-4EEA-928B-7BA9BC4A845D";
shapes = (
{
closed = 1;
nodes = (
(368,325,l),
(368,452,l),
(50,452,l),
(50,325,l)
);
},
{
closed = 1;
nodes = (
(368,131,l),
(368,258,l),
(50,258,l),
(50,131,l)
);
}
);
width = 418;
}
);
unicode = 61;
}
{
glyphname = greater;
layers = (
{
layerId = "DC4431BF-9234-4C16-9154-22D387E42D10";
shapes = (
{
closed = 1;
nodes = (
(394,276,l),
(394,308,l),
(40,500,l),
(40,460,l),
(348,292,l),
(40,119,l),
(40,79,l)
);
}
);
width = 434;
},
{
layerId = "4EACF7E3-2421-4EEA-928B-7BA9BC4A845D";
shapes = (
{
closed = 1;
nodes = (
(384,258,l),
(384,322,l),
(30,500,l),
(30,370,l),
(206,292,l),
(30,206,l),
(30,79,l)
);
}
);
width = 414;
}
);
unicode = 62;
}
{
glyphname = question;
layers = (
{
layerId = "DC4431BF-9234-4C16-9154-22D387E42D10";
shapes = (
{
closed = 1;
nodes = (
(225,71,l),
(225,276,l),
(317,283,o),
(440,346,o),
(440,491,cs),
(436,620,o),
(356,703,o),
(228,703,cs),
(120,703,o),
(70,649,o),
(40,611,c),
(67,583,l),
(88,611,o),
(139,663,o),
(228,663,cs),
(337,663,o),
(402,587,o),
(402,491,cs),
(402,370,o),
(304,318,o),
(187,316,c),
(187,71,l)
);
},
{
closed = 1;
nodes = (
(221,-22,o),
(233,-10,o),
(233,4,cs),
(233,18,o),
(221,30,o),
(207,30,cs),
(193,30,o),
(181,18,o),
(181,4,cs),
(181,-10,o),
(193,-22,o),
(207,-22,cs)
);
}
);
width = 480;
},
{
layerId = "4EACF7E3-2421-4EEA-928B-7BA9BC4A845D";
shapes = (
{
closed = 1;
nodes = (
(263,166,l),
(263,276,l),
(336,285,o),
(432,349,o),
(429,491,cs),
(426,620,o),
(348,703,o),
(216,703,cs),
(110,703,o),
(60,649,o),
(30,611,c),
(112,526,l),
(133,554,o),
(167,575,o),
(210,575,cs),
(256,575,o),
(302,551,o),
(302,482,cs),
(302,398,o),
(233,387,o),
(134,386,c),
(134,166,l)
);
},
{
closed = 1;
nodes = (
(239,-22,o),
(273,11,o),
(273,53,cs),
(273,95,o),
(239,129,o),
(197,129,cs),
(155,129,o),
(122,95,o),
(122,53,cs),
(122,11,o),
(155,-22,o),
(197,-22,cs)
);
}
);
width = 460;
}
);
unicode = 63;
}
{
glyphname = at;
layers = (
{
layerId = "DC4431BF-9234-4C16-9154-22D387E42D10";
shapes = (
{
closed = 1;
nodes = (
(520,-52,o),
(614,-11,o),
(685,41,c),
(667,75,l),
(587,19,o),
(508,-14,o),
(405,-14,cs),
(221,-14,o),
(80,119,o),
(80,309,cs),
(80,498,o),
(241,640,o),
(432,640,cs),
(553,640,o),
(691,554,o),
(691,412,cs),
(691,226,o),
(576,197,o),
(535,197,cs),
(494,197,o),
(473,249,o),
(477,266,cs),
(480,280,o),
(484,297,o),
(487,308,cs),
(528,471,l),
(489,471,l),
(483,450,l),
(471,462,o),
(454,483,o),
(404,483,cs),
(340,483,o),
(245,425,o),
(245,304,cs),
(245,229,o),
(294,169,o),
(353,169,cs),
(402,169,o),
(437,202,o),
(448,219,c),
(454,199,o),
(493,161,o),
(529,161,cs),
(565,161,o),
(729,182,o),
(729,413,cs),
(729,590,o),
(568,678,o),
(432,678,cs),
(212,678,o),
(40,519,o),
(40,309,cs),
(40,112,o),
(177,-52,o),
(405,-52,cs)
);
}
);
width = 769;
},
{
layerId = "4EACF7E3-2421-4EEA-928B-7BA9BC4A845D";
shapes = (
{
closed = 1;
nodes = (
(538,-87,o),
(655,-47,o),
(717,12,c),
(667,103,l),
(587,47,o),
(499,22,o),
(419,22,cs),
(246,22,o),
(136,139,o),
(136,301,cs),
(136,503,o),
(307,602,o),
(442,602,cs),
(549,602,o),
(666,540,o),
(666,400,cs),
(666,301,o),
(608,240,o),
(565,240,cs),
(549,240,o),
(545,249,o),
(545,266,cs),
(545,280,o),
(549,297,o),
(552,308,cs),
(602,504,l),
(518,504,l),
(510,477,l),
(502,486,o),
(475,519,o),
(414,519,cs),
(315,519,o),
(205,432,o),
(205,294,cs),
(205,193,o),
(263,116,o),
(352,116,cs),
(407,116,o),
(443,143,o),
(453,161,c),
(466,134,o),
(491,116,o),
(540,116,cs),
(654,116,o),
(786,211,o),
(786,401,cs),
(786,621,o),
(610,715,o),
(438,715,cs),
(209,715,o),
(16,550,o),
(16,297,cs),
(16,55,o),
(194,-87,o),
(419,-87,cs)
);
}
);
width = 803;
}
);
unicode = 64;
}
{
glyphname = A;
layers = (
{
layerId = "DC4431BF-9234-4C16-9154-22D387E42D10";
shapes = (
{
closed = 1;
nodes = (
(399,0,l),
(247,699,l),
(207,699,l),
(322,173,l),
(152,173,l),
(144,135,l),
(331,135,l),
(359,0,l)
);
},
{
closed = 1;
nodes = (
(70,0,l),
(194,554,l),
(184,599,l),
(167,599,l),
(30,0,l)
);
}
);
width = 429;
},
{
layerId = "4EACF7E3-2421-4EEA-928B-7BA9BC4A845D";
shapes = (
{
closed = 1;
nodes = (
(509,0,l),
(344,700,l),
(205,700,l),
(311,223,l),
(275,223,l),
(245,85,l),
(349,85,l),
(369,0,l)
);
},
{
closed = 1;
nodes = (
(170,0,l),
(236,302,l),
(176,582,l),
(161,582,l),
(32,0,l)
);
}
);
width = 528;
}
);
unicode = 65;
}
{
glyphname = B;
layers = (
{
layerId = "DC4431BF-9234-4C16-9154-22D387E42D10";
shapes = (
{
closed = 1;
nodes = (
(260,-1,ls),
(381,-1,o),
(472,85,o),
(472,205,cs),
(472,289,o),
(437,322,o),
(399,352,c),
(434,378,o),
(468,427,o),
(468,497,cs),
(468,588,o),
(408,700,o),
(256,700,cs),
(125,700,l),
(125,662,l),
(254,662,ls),
(379,662,o),
(428,567,o),
(428,497,cs),
(428,426,o),
(397,371,o),
(286,371,cs),
(125,371,l),
(125,333,l),
(286,333,ls),
(395,333,o),
(432,277,o),
(432,205,cs),
(432,132,o),
(384,37,o),
(221,37,cs),
(125,37,l),
(125,-1,l)
);
},
{
closed = 1;
nodes = (
(80,0,l),
(80,700,l),
(40,700,l),
(40,0,l)
);
}
);
width = 512;
},
{
layerId = "4EACF7E3-2421-4EEA-928B-7BA9BC4A845D";
shapes = (
{
closed = 1;
nodes = (
(249,0,ls),
(395,0,o),
(457,100,o),
(457,196,cs),
(457,256,o),
(433,317,o),
(389,350,c),
(433,383,o),
(457,444,o),
(457,504,cs),
(457,600,o),
(395,700,o),
(249,700,cs),
(225,700,l),
(225,577,l),
(230,577,ls),
(288,577,o),
(317,535,o),
(317,494,cs),
(317,452,o),
(288,411,o),
(233,411,cs),
(225,411,l),
(225,289,l),
(233,289,ls),
(288,289,o),
(317,248,o),
(317,206,cs),
(317,165,o),
(288,123,o),
(230,123,cs),
(225,123,l),
(225,0,l)
);
},
{
closed = 1;
nodes = (
(170,0,l),
(170,700,l),
(30,700,l),
(30,0,l)
);
}
);
width = 488;
}
);
unicode = 66;
}
{
glyphname = C;
layers = (
{
layerId = "DC4431BF-9234-4C16-9154-22D387E42D10";
shapes = (
{
closed = 1;
nodes = (
(241,33,l),
(128,33,o),
(80,131,o),
(80,181,cs),
(80,518,ls),
(80,568,o),
(127,667,o),
(241,667,c),
(241,706,l),
(94,706,o),
(40,578,o),
(40,518,cs),
(40,181,ls),
(40,121,o),
(93,-5,o),
(241,-5,c)
);
},
{
closed = 1;
nodes = (
(383,-5,o),
(476,76,o),
(476,182,c),
(442,190,l),
(442,188,o),
(441,180,o),
(440,171,cs),
(438,161,o),
(436,149,o),
(433,139,cs),
(410,63,o),
(336,34,o),
(286,33,c),
(286,-5,l)
);
},
{
closed = 1;
nodes = (
(476,516,l),
(476,612,o),
(383,706,o),
(286,706,c),
(286,667,l),
(297,667,o),
(392,666,o),
(433,550,cs),
(436,541,o),
(438,532,o),
(439,524,cs),
(440,518,o),
(440,512,o),
(440,507,c)
);
}
);
width = 516;
},
{
layerId = "4EACF7E3-2421-4EEA-928B-7BA9BC4A845D";
shapes = (
{
closed = 1;
nodes = (
(235,136,l),
(189,136,o),
(179,176,o),
(179,181,cs),
(179,518,ls),
(179,523,o),
(189,564,o),
(235,564,c),
(235,705,l),
(92,705,o),
(38,578,o),
(38,518,cs),
(38,181,ls),
(38,121,o),
(92,-5,o),
(235,-5,c)
);
},
{
closed = 1;
nodes = (
(381,-5,o),
(474,76,o),
(474,182,c),
(336,215,l),
(336,211,o),
(336,207,o),
(336,203,cs),
(336,191,o),
(336,177,o),
(331,166,cs),
(324,149,o),
(303,139,o),
(289,136,c),
(289,-5,l)
);
},
{
closed = 1;
nodes = (
(474,516,l),
(474,612,o),
(381,705,o),
(289,705,c),
(289,564,l),
(303,560,o),
(324,549,o),
(331,532,cs),
(336,521,o),
(336,507,o),
(336,495,cs),
(336,490,o),
(336,485,o),
(336,480,c)
);
}
);
width = 494;
}
);
unicode = 67;
}
{
glyphname = D;
layers = (
{
layerId = "DC4431BF-9234-4C16-9154-22D387E42D10";
shapes = (
{
closed = 1;
nodes = (
(285,0,o),
(432,0,o),
(432,197,cs),
(432,503,ls),
(432,706,o),
(279,700,o),
(125,700,c),
(125,662,l),
(261,662,o),
(392,669,o),
(392,503,cs),
(392,197,ls),
(392,41,o),
(268,38,o),
(125,38,c),
(125,0,l)
);
},
{
closed = 1;
nodes = (
(80,0,l),
(80,700,l),
(40,700,l),
(40,0,l)
);
}
);
width = 472;
},
{
layerId = "4EACF7E3-2421-4EEA-928B-7BA9BC4A845D";
shapes = (
{
closed = 1;
nodes = (
(297,0,o),
(434,50,o),
(434,197,cs),
(434,503,ls),
(434,566,o),
(380,700,o),
(237,700,c),
(237,559,l),
(285,558,o),
(293,508,o),
(293,503,cs),
(293,197,ls),
(293,149,o),
(243,141,o),
(237,141,c),
(237,0,l)
);
},
{
closed = 1;
nodes = (
(183,0,l),
(183,700,l),
(42,700,l),
(42,0,l)
);
}
);
width = 464;
}
);
unicode = 68;
}
{
glyphname = E;
layers = (
{
layerId = "DC4431BF-9234-4C16-9154-22D387E42D10";
shapes = (
{
closed = 1;
nodes = (
(404,0,l),
(404,38,l),
(80,38,l),
(80,330,l),
(310,330,l),
(310,368,l),
(80,368,l),
(80,662,l),
(404,662,l),
(404,700,l),
(40,700,l),
(40,0,l)
);
}
);
width = 444;
},
{
layerId = "4EACF7E3-2421-4EEA-928B-7BA9BC4A845D";
shapes = (
{
closed = 1;
nodes = (
(406,0,l),
(406,141,l),
(183,141,l),
(183,277,l),
(312,277,l),
(312,418,l),
(183,418,l),
(183,560,l),
(406,560,l),
(406,700,l),
(42,700,l),
(42,0,l)
);
}
);
width = 444;
}
);
unicode = 69;
}
{
glyphname = F;
layers = (
{
layerId = "DC4431BF-9234-4C16-9154-22D387E42D10";
shapes = (
{
closed = 1;
nodes = (
(80,1,l),
(80,330,l),
(310,330,l),
(310,368,l),
(80,368,l),
(80,662,l),
(404,662,l),
(404,700,l),
(40,700,l),
(40,1,l)
);
}
);
width = 444;
},
{
layerId = "4EACF7E3-2421-4EEA-928B-7BA9BC4A845D";
shapes = (
{
closed = 1;
nodes = (
(183,1,l),
(183,277,l),
(312,277,l),
(312,418,l),
(183,418,l),
(183,560,l),
(406,560,l),
(406,700,l),
(42,700,l),
(42,1,l)
);
}
);
width = 442;
}
);
unicode = 70;
}
{
glyphname = G;
layers = (
{
layerId = "DC4431BF-9234-4C16-9154-22D387E42D10";
shapes = (
{
closed = 1;
nodes = (
(240,33,l),
(200,33,o),
(80,77,o),
(80,192,cs),
(80,508,ls),
(80,596,o),
(157,667,o),
(240,667,c),
(240,705,l),
(104,706,o),
(40,586,o),
(40,524,cs),
(40,192,ls),
(40,48,o),
(175,-5,o),
(240,-5,c)
);
},
{
closed = 1;
nodes = (
(372,-5,o),
(475,95,o),
(475,176,cs),
(475,353,l),
(285,353,l),
(285,315,l),
(435,315,l),
(435,190,ls),
(435,102,o),
(338,33,o),
(285,33,c),
(285,-5,l)
);
},
{
closed = 1;
nodes = (
(475,516,l),
(475,612,o),
(383,706,o),
(285,705,c),
(285,667,l),
(324,667,o),
(426,628,o),
(435,518,cs),
(436,502,l)
);
}
);
width = 515;
},
{
layerId = "4EACF7E3-2421-4EEA-928B-7BA9BC4A845D";
shapes = (
{
closed = 1;
nodes = (
(234,136,l),
(229,136,o),
(180,146,o),
(180,192,cs),
(180,508,ls),
(179,523,o),
(188,563,o),
(234,564,c),
(234,705,l),
(102,705,o),
(46,589,o),
(38,524,c),
(38,192,ls),
(38,48,o),
(174,-5,o),
(234,-5,c)
);
},
{
closed = 1;
nodes = (
(370,-4,o),
(473,95,o),
(473,176,cs),
(473,353,l),
(288,353,l),
(288,223,l),
(331,223,l),
(331,190,ls),
(331,155,o),
(294,136,o),
(288,136,c),
(288,-5,l)
);
},
{
closed = 1;
nodes = (
(473,516,l),
(473,612,o),
(381,705,o),
(288,705,c),
(288,564,l),
(310,563,o),
(335,545,o),
(335,504,cs),
(335,465,l)
);
}
);
width = 507;
}
);
unicode = 71;
}
{
glyphname = H;
layers = (
{
layerId = "DC4431BF-9234-4C16-9154-22D387E42D10";
shapes = (
{
closed = 1;
nodes = (
(434,0,l),
(434,700,l),
(394,700,l),
(394,371,l),
(260,371,l),
(260,333,l),
(394,333,l),
(394,0,l)
);
},
{
closed = 1;
nodes = (
(80,0,l),
(80,333,l),
(214,333,l),
(214,371,l),
(80,371,l),
(80,700,l),
(40,700,l),
(40,0,l)
);
}
);
width = 474;
},
{
layerId = "4EACF7E3-2421-4EEA-928B-7BA9BC4A845D";
shapes = (
{
closed = 1;
nodes = (
(485,0,l),
(485,700,l),
(344,700,l),
(344,416,l),
(290,416,l),
(290,288,l),
(344,288,l),
(344,0,l)
);
},
{
closed = 1;
nodes = (
(181,0,l),
(181,288,l),
(235,288,l),
(235,416,l),
(181,416,l),
(181,700,l),
(40,700,l),
(40,0,l)
);
}
);
width = 525;
}
);
unicode = 72;
}
{
glyphname = I;
layers = (
{
layerId = "DC4431BF-9234-4C16-9154-22D387E42D10";
shapes = (
{
closed = 1;
nodes = (
(82,0,l),
(82,700,l),
(42,700,l),
(42,0,l)
);
}
);
width = 124;
},
{
layerId = "4EACF7E3-2421-4EEA-928B-7BA9BC4A845D";
shapes = (
{
closed = 1;
nodes = (
(183,0,l),
(183,700,l),
(42,700,l),
(42,0,l)
);
}
);
width = 225;
}
);
unicode = 73;
}
{
glyphname = J;
layers = (
{
layerId = "DC4431BF-9234-4C16-9154-22D387E42D10";
shapes = (
{
closed = 1;
nodes = (
(317,-5,o),
(457,49,o),
(457,193,cs),
(457,700,l),
(417,700,l),
(417,193,ls),
(417,84,o),
(300,33,o),
(257,33,c),
(257,-5,l)
);
},
{
closed = 1;
nodes = (
(211,33,l),
(160,33,o),
(60,86,o),
(60,200,cs),
(60,242,l),
(20,242,l),
(20,193,ls),
(20,54,o),
(151,-5,o),
(211,-5,c)
);
}
);
width = 497;
},
{
layerId = "4EACF7E3-2421-4EEA-928B-7BA9BC4A845D";
shapes = (
{
closed = 1;
nodes = (
(316,-5,o),
(452,49,o),
(452,193,cs),
(452,700,l),
(312,700,l),
(312,193,ls),
(312,147,o),
(261,137,o),
(256,137,c),
(256,-5,l)
);
},
{
closed = 1;
nodes = (
(202,137,l),
(197,137,o),
(157,147,o),
(157,193,cs),
(157,242,l),
(15,242,l),
(15,193,ls),
(15,54,o),
(142,-5,o),
(202,-5,c)
);
}
);
width = 494;
}
);
unicode = 74;
}
{
glyphname = K;
layers = (
{
layerId = "DC4431BF-9234-4C16-9154-22D387E42D10";
shapes = (
{
closed = 1;
nodes = (
(471,0,l),
(175,341,l),
(467,700,l),
(417,700,l),
(125,341,l),
(421,0,l)
);
},
{
closed = 1;
nodes = (
(80,0,l),
(80,700,l),
(40,700,l),
(40,0,l)
);
}
);
width = 491;
},
{
layerId = "4EACF7E3-2421-4EEA-928B-7BA9BC4A845D";
shapes = (
{
closed = 1;
nodes = (
(473,0,l),
(363,341,l),
(469,700,l),
(330,700,l),
(223,341,l),
(335,0,l)
);
},
{
closed = 1;
nodes = (
(183,0,l),
(183,700,l),
(42,700,l),
(42,0,l)
);
}
);
width = 488;
}
);
unicode = 75;
}
{
glyphname = L;
layers = (
{
layerId = "DC4431BF-9234-4C16-9154-22D387E42D10";
shapes = (
{
closed = 1;
nodes = (
(416,0,l),
(416,38,l),
(80,38,l),
(80,700,l),
(40,700,l),
(40,0,l)
);
}
);
width = 436;
},
{
layerId = "4EACF7E3-2421-4EEA-928B-7BA9BC4A845D";
shapes = (
{
closed = 1;
nodes = (
(418,0,l),
(418,140,l),
(183,140,l),
(183,700,l),
(42,700,l),
(42,0,l)
);
}
);
width = 433;
}
);
unicode = 76;
}
{
glyphname = M;
layers = (
{
layerId = "DC4431BF-9234-4C16-9154-22D387E42D10";
shapes = (
{
closed = 1;
nodes = (
(362,0,l),
(569,469,l),
(569,547,l),
(559,547,l),
(343,59,l),
(79,700,l),
(42,700,l),
(42,678,l),
(324,0,l)
);
},
{
closed = 1;
nodes = (
(82,0,l),
(82,472,l),
(51,549,l),
(42,549,l),
(42,0,l)
);
},
{
closed = 1;
nodes = (
(654,0,l),
(654,700,l),
(614,700,l),
(614,0,l)
);
}
);
width = 696;
},
{
layerId = "4EACF7E3-2421-4EEA-928B-7BA9BC4A845D";
shapes = (
{
closed = 1;
nodes = (
(392,0,l),
(459,151,l),
(459,476,l),
(449,476,l),
(343,237,l),
(152,700,l),
(42,700,l),
(42,608,l),
(295,0,l)
);
},
{
closed = 1;
nodes = (
(183,0,l),
(183,127,l),
(51,444,l),
(42,444,l),
(42,0,l)
);
},
{
closed = 1;
nodes = (
(654,0,l),
(654,700,l),
(513,700,l),
(513,0,l)
);
}
);
width = 696;
}
);
unicode = 77;
}
{
glyphname = N;
layers = (
{
layerId = "DC4431BF-9234-4C16-9154-22D387E42D10";
shapes = (
{
closed = 1;
nodes = (
(487,0,l),
(487,53,l),
(81,700,l),
(42,700,l),
(42,676,l),
(466,0,l)
);
},
{
closed = 1;
nodes = (
(82,0,l),
(82,544,l),
(50,596,l),
(42,596,l),
(42,0,l)
);
},
{
closed = 1;
nodes = (
(487,136,l),
(487,700,l),
(447,700,l),
(447,189,l),
(479,136,l)
);
}
);
width = 529;
},
{
layerId = "4EACF7E3-2421-4EEA-928B-7BA9BC4A845D";
shapes = (
{
closed = 1;
nodes = (
(487,0,l),
(487,168,l),
(157,700,l),
(42,700,l),
(42,608,l),
(420,0,l)
);
},
{
closed = 1;
nodes = (
(183,0,l),
(183,278,l),
(50,492,l),
(42,492,l),
(42,0,l)
);
},
{
closed = 1;
nodes = (
(487,284,l),
(487,700,l),
(346,700,l),
(346,498,l),
(479,284,l)
);
}
);
width = 529;
}
);
unicode = 78;
}
{
glyphname = O;
layers = (
{
layerId = "DC4431BF-9234-4C16-9154-22D387E42D10";
shapes = (
{
closed = 1;
nodes = (
(351,-5,o),
(488,51,o),
(488,195,cs),
(488,524,ls),
(488,583,o),
(422,705,o),
(291,705,c),
(291,666,l),
(390,666,o),
(448,571,o),
(448,508,cs),
(448,195,ls),
(448,90,o),
(347,34,o),
(291,34,c),
(291,-5,l)
);
},
{
closed = 1;
nodes = (
(236,34,l),
(182,34,o),
(80,93,o),
(80,195,cs),
(80,508,ls),
(80,566,o),
(139,666,o),
(237,666,c),
(237,705,l),
(105,705,o),
(40,584,o),
(40,524,cs),
(40,195,ls),
(40,51,o),
(176,-5,o),
(236,-5,c)
);
}
);
width = 528;
},
{
layerId = "4EACF7E3-2421-4EEA-928B-7BA9BC4A845D";
shapes = (
{
closed = 1;
nodes = (
(428,-5,o),
(509,87,o),
(509,204,cs),
(509,504,ls),
(509,613,o),
(414,705,o),
(302,705,c),
(302,564,l),
(341,563,o),
(368,533,o),
(368,488,cs),
(368,209,ls),
(368,167,o),
(336,137,o),
(302,137,c),
(302,-5,l)
);
},
{
closed = 1;
nodes = (
(246,137,l),
(212,137,o),
(181,166,o),
(181,209,cs),
(181,488,ls),
(181,533,o),
(208,563,o),
(247,564,c),
(247,705,l),
(134,705,o),
(40,614,o),
(40,504,cs),
(40,204,ls),
(40,91,o),
(135,-5,o),
(246,-5,c)
);
}
);
width = 549;
}
);
unicode = 79;
}
{
glyphname = P;
layers = (
{
layerId = "DC4431BF-9234-4C16-9154-22D387E42D10";
shapes = (
{
closed = 1;
nodes = (
(82,0,l),
(82,700,l),
(42,700,l),
(42,0,l)
);
},
{
closed = 1;
nodes = (
(298,308,l),
(385,312,o),
(464,349,o),
(464,505,cs),
(464,660,o),
(383,695,o),
(298,700,c),
(127,700,l),
(127,664,l),
(276,664,ls),
(383,664,o),
(423,613,o),
(423,508,cs),
(423,392,o),
(378,345,o),
(277,345,cs),
(127,345,l),
(127,308,l)
);
}
);
width = 484;
},
{
layerId = "4EACF7E3-2421-4EEA-928B-7BA9BC4A845D";
shapes = (
{
closed = 1;
nodes = (
(183,0,l),
(183,700,l),
(42,700,l),
(42,0,l)
);
},
{
closed = 1;
nodes = (
(274,319,ls),
(413,318,o),
(464,380,o),
(464,505,cs),
(464,618,o),
(423,700,o),
(274,700,cs),
(237,700,l),
(237,561,l),
(270,561,ls),
(286,561,o),
(321,561,o),
(321,509,cs),
(321,457,o),
(286,457,o),
(270,457,cs),
(237,457,l),
(237,319,l)
);
}
);
width = 479;
}
);
unicode = 80;
}
{
glyphname = Q;
layers = (
{
layerId = "DC4431BF-9234-4C16-9154-22D387E42D10";
shapes = (
{
closed = 1;
nodes = (
(394,-84,l),
(336,2,l),
(398,27,o),
(488,77,o),
(488,195,cs),
(488,524,ls),
(488,583,o),
(422,706,o),
(287,705,c),
(287,667,l),
(389,667,o),
(447,574,o),
(447,508,cs),
(447,195,ls),
(447,66,o),
(307,33,o),
(287,33,c),
(287,-5,l),
(362,-107,l)
);
},
{
closed = 1;
nodes = (
(241,33,l),
(217,33,o),
(80,64,o),
(80,195,cs),
(80,508,ls),
(80,574,o),
(139,667,o),
(241,667,c),
(241,705,l),
(105,706,o),
(40,584,o),
(40,524,cs),
(40,195,ls),
(40,51,o),
(174,-5,o),
(241,-5,c)
);
}
);
width = 528;
},
{
layerId = "4EACF7E3-2421-4EEA-928B-7BA9BC4A845D";
shapes = (
{
closed = 1;
nodes = (
(472,-32,l),
(417,47,l),
(456,79,o),
(486,127,o),
(486,195,cs),
(486,524,ls),
(486,583,o),
(420,705,o),
(289,705,c),
(289,564,l),
(335,563,o),
(345,513,o),
(345,508,cs),
(345,195,ls),
(345,149,o),
(294,137,o),
(289,137,c),
(289,-5,l),
(360,-107,l)
);
},
{
closed = 1;
nodes = (
(234,137,l),
(229,137,o),
(179,149,o),
(179,195,cs),
(179,508,ls),
(179,513,o),
(189,563,o),
(235,564,c),
(235,705,l),
(103,705,o),
(38,584,o),
(38,524,cs),
(38,195,ls),
(38,51,o),
(174,-5,o),
(234,-5,c)
);
}
);
width = 526;
}
);
unicode = 81;
}
{
glyphname = R;
layers = (
{
layerId = "DC4431BF-9234-4C16-9154-22D387E42D10";
shapes = (
{
closed = 1;
nodes = (
(479,0,l),
(462,217,ls),
(457,287,o),
(422,321,o),
(385,337,c),
(426,360,o),
(454,409,o),
(454,505,cs),
(454,660,o),
(371,695,o),
(283,700,c),
(127,700,l),
(127,667,l),
(261,667,ls),
(372,667,o),
(413,615,o),
(413,508,cs),
(413,401,o),
(376,357,o),
(287,357,cs),
(127,357,l),
(127,318,l),
(298,318,ls),
(398,322,o),
(416,265,o),
(424,178,cs),
(439,0,l)
);
},
{
closed = 1;
nodes = (
(82,0,l),
(82,700,l),
(42,700,l),
(42,0,l)
);
}
);
width = 509;
},
{
layerId = "4EACF7E3-2421-4EEA-928B-7BA9BC4A845D";
shapes = (
{
closed = 1;
nodes = (
(483,0,l),
(466,217,ls),
(462,265,o),
(442,325,o),
(400,352,c),
(442,380,o),
(470,430,o),
(470,506,cs),
(470,619,o),
(393,699,o),
(259,700,cs),
(237,700,l),
(237,567,l),
(250,567,ls),
(299,567,o),
(336,538,o),
(336,490,cs),
(336,450,o),
(310,411,o),
(250,411,cs),
(237,411,l),
(237,286,l),
(248,286,ls),
(309,286,o),
(331,255,o),
(338,178,cs),
(353,0,l)
);
},
{
closed = 1;
nodes = (
(183,0,l),
(183,700,l),
(42,700,l),
(42,0,l)
);
}
);
width = 509;
}
);
unicode = 82;
}
{
glyphname = S;
layers = (
{
layerId = "DC4431BF-9234-4C16-9154-22D387E42D10";
shapes = (
{
closed = 1;
nodes = (
(378,-3,o),
(471,99,o),
(471,203,cs),
(471,311,o),
(412,346,o),
(343,365,cs),
(263,387,o),
(78,387,o),
(78,508,cs),
(78,622,o),
(186,662,o),
(218,662,c),
(218,700,l),
(164,700,o),
(38,649,o),
(38,514,cs),
(38,421,o),
(87,388,o),
(161,360,cs),
(224,336,o),
(431,348,o),
(431,209,cs),
(431,100,o),
(316,35,o),
(263,35,c),
(263,-3,l)
);
},
{
closed = 1;
nodes = (
(218,35,l),
(164,38,o),
(86,77,o),
(67,171,c),
(30,158,l),
(31,103,o),
(103,-3,o),
(218,-3,c)
);
},
{
closed = 1;
nodes = (
(443,553,l),
(435,595,o),
(373,700,o),
(263,700,c),
(263,662,l),
(310,660,o),
(382,626,o),
(405,541,c)
);
}
);
width = 501;
},
{
layerId = "4EACF7E3-2421-4EEA-928B-7BA9BC4A845D";
shapes = (
{
closed = 1;
nodes = (
(366,-3,o),
(461,96,o),
(461,210,cs),
(461,305,o),
(396,360,o),
(333,394,cs),
(249,439,o),
(162,452,o),
(162,511,cs),
(162,538,o),
(181,561,o),
(203,568,c),
(203,700,l),
(152,699,o),
(28,647,o),
(28,507,cs),
(28,406,o),
(93,341,o),
(151,323,cs),
(171,317,o),
(320,278,o),
(320,196,cs),
(320,158,o),
(287,130,o),
(258,127,c),
(258,-3,l)
);
},
{
closed = 1;
nodes = (
(203,127,l),
(179,136,o),
(147,162,o),
(147,203,c),
(20,158,l),
(20,103,o),
(94,-3,o),
(203,-3,c)
);
},
{
closed = 1;
nodes = (
(433,553,l),
(433,602,o),
(364,700,o),
(258,700,c),
(258,568,l),
(277,563,o),
(303,544,o),
(303,510,c)
);
}
);
width = 481;
}
);
unicode = 83;
}
{
glyphname = T;
layers = (
{
layerId = "DC4431BF-9234-4C16-9154-22D387E42D10";
shapes = (
{
closed = 1;
nodes = (
(256,0,l),
(256,662,l),
(453,662,l),
(453,700,l),
(20,700,l),
(20,662,l),
(216,662,l),
(216,0,l)
);
}
);
width = 473;
},
{
layerId = "4EACF7E3-2421-4EEA-928B-7BA9BC4A845D";
shapes = (
{
closed = 1;
nodes = (
(302,0,l),
(302,562,l),
(448,562,l),
(448,700,l),
(15,700,l),
(15,562,l),
(161,562,l),
(161,0,l)
);
}
);
width = 463;
}
);
unicode = 84;
}
{
glyphname = U;
layers = (
{
layerId = "DC4431BF-9234-4C16-9154-22D387E42D10";
shapes = (
{
closed = 1;
nodes = (
(241,33,l),
(200,33,o),
(80,83,o),
(80,193,cs),
(80,700,l),
(40,700,l),
(40,193,ls),
(40,49,o),
(181,-5,o),
(241,-5,c)
);
},
{
closed = 1;
nodes = (
(348,-5,o),
(487,48,o),
(487,193,cs),
(487,700,l),
(447,700,l),
(447,193,ls),
(447,78,o),
(330,33,o),
(287,33,c),
(287,-5,l)
);
}
);
width = 527;
},
{
layerId = "4EACF7E3-2421-4EEA-928B-7BA9BC4A845D";
shapes = (
{
closed = 1;
nodes = (
(229,137,l),
(224,137,o),
(174,147,o),
(174,193,cs),
(174,700,l),
(32,700,l),
(32,193,ls),
(32,49,o),
(169,-5,o),
(229,-5,c)
);
},
{
closed = 1;
nodes = (
(344,-5,o),
(479,48,o),
(479,193,cs),
(479,700,l),
(339,700,l),
(339,193,ls),
(339,147,o),
(288,137,o),
(283,137,c),
(283,-5,l)
);
}
);
width = 512;
}
);
unicode = 85;
}
{
glyphname = V;
layers = (
{
layerId = "DC4431BF-9234-4C16-9154-22D387E42D10";
shapes = (
{
closed = 1;
nodes = (
(230,0,l),
(243,34,l),
(49,700,l),
(10,700,l),
(213,0,l)
);
},
{
closed = 1;
nodes = (
(267,115,l),
(466,700,l),
(427,700,l),
(243,165,l),
(257,115,l)
);
}
);
width = 476;
},
{
layerId = "4EACF7E3-2421-4EEA-928B-7BA9BC4A845D";
shapes = (
{
closed = 1;
nodes = (
(258,0,l),
(311,158,l),
(152,700,l),
(8,700,l),
(211,0,l)
);
},
{
closed = 1;
nodes = (
(341,290,l),
(464,700,l),
(320,700,l),
(265,514,l),
(331,290,l)
);
}
);
width = 472;
}
);
unicode = 86;
}
{
glyphname = W;
layers = (
{
layerId = "DC4431BF-9234-4C16-9154-22D387E42D10";
shapes = (
{
closed = 1;
nodes = (
(228,0,l),
(239,44,l),
(49,700,l),
(10,700,l),
(213,0,l)
);
},
{
closed = 1;
nodes = (
(572,0,l),
(585,38,l),
(412,700,l),
(373,700,l),
(557,0,l)
);
},
{
closed = 1;
nodes = (
(259,130,l),
(412,700,l),
(373,700,l),
(235,182,l),
(249,130,l)
);
},
{
closed = 1;
nodes = (
(615,130,l),
(782,700,l),
(743,700,l),
(590,181,l),
(605,130,l)
);
}
);
width = 792;
},
{
layerId = "4EACF7E3-2421-4EEA-928B-7BA9BC4A845D";
shapes = (
{
closed = 1;
nodes = (
(260,0,l),
(313,158,l),
(154,700,l),
(10,700,l),
(213,0,l)
);
},
{
closed = 1;
nodes = (
(572,0,l),
(624,158,l),
(466,700,l),
(322,700,l),
(525,0,l)
);
},
{
closed = 1;
nodes = (
(343,290,l),
(466,700,l),
(322,700,l),
(267,514,l),
(333,290,l)
);
},
{
closed = 1;
nodes = (
(659,290,l),
(782,700,l),
(638,700,l),
(583,514,l),
(649,290,l)
);
}
);
width = 792;
}
);
unicode = 87;
}
{
glyphname = X;
layers = (
{
layerId = "DC4431BF-9234-4C16-9154-22D387E42D10";
shapes = (
{
closed = 1;
nodes = (
(69,0,l),
(236,325,l),
(403,0,l),
(442,0,l),
(255,362,l),
(430,700,l),
(391,700,l),
(236,398,l),
(81,700,l),
(42,700,l),
(217,362,l),
(30,0,l)
);
}
);
width = 472;
},
{
layerId = "4EACF7E3-2421-4EEA-928B-7BA9BC4A845D";
shapes = (
{
closed = 1;
nodes = (
(160,0,l),
(221,167,l),
(282,0,l),
(427,0,l),
(291,361,l),
(415,700,l),
(278,700,l),
(221,548,l),
(164,700,l),
(27,700,l),
(151,361,l),
(15,0,l)
);
}
);
width = 442;
}
);
unicode = 88;
}
{
glyphname = Y;
layers = (
{
layerId = "DC4431BF-9234-4C16-9154-22D387E42D10";
shapes = (
{
closed = 1;
nodes = (
(254,0,l),
(254,253,l),
(71,700,l),
(30,700,l),
(214,252,l),
(214,0,l)
);
},
{
closed = 1;
nodes = (
(280,311,l),
(457,700,l),
(416,700,l),
(257,357,l),
(276,311,l)
);
}
);
width = 487;
},
{
layerId = "4EACF7E3-2421-4EEA-928B-7BA9BC4A845D";
shapes = (
{
closed = 1;
nodes = (
(289,0,l),
(289,253,l),
(159,700,l),
(12,700,l),
(143,252,l),
(143,0,l)
);
},
{
closed = 1;
nodes = (
(330,331,l),
(439,700,l),
(294,700,l),
(255,565,l),
(321,331,l)
);
}
);
width = 451;
}
);
unicode = 89;
}
{
glyphname = Z;
layers = (
{
layerId = "DC4431BF-9234-4C16-9154-22D387E42D10";
shapes = (
{
closed = 1;
nodes = (
(406,0,l),
(407,38,l),
(83,38,l),
(406,665,l),
(406,700,l),
(40,700,l),
(40,662,l),
(363,662,l),
(40,35,l),
(40,0,l)
);
}
);
width = 447;
},
{
layerId = "4EACF7E3-2421-4EEA-928B-7BA9BC4A845D";
shapes = (
{
closed = 1;
nodes = (
(396,0,l),
(396,144,l),
(186,144,l),
(396,563,l),
(396,700,l),
(30,700,l),
(30,560,l),
(240,560,l),
(30,141,l),
(30,0,l)
);
}
);
width = 426;
}
);
unicode = 90;
}
{
glyphname = bracketleft;
layers = (
{
layerId = "DC4431BF-9234-4C16-9154-22D387E42D10";
shapes = (
{
closed = 1;
nodes = (
(130,-36,l),
(130,2,l),
(88,2,l),
(91,701,l),
(130,701,l),
(130,739,l),
(50,739,l),
(50,-36,l)
);
}
);
width = 180;
},
{
layerId = "4EACF7E3-2421-4EEA-928B-7BA9BC4A845D";
shapes = (
{
closed = 1;
nodes = (
(244,-36,l),
(244,74,l),
(180,74,l),
(183,629,l),
(244,629,l),
(244,739,l),
(50,739,l),
(50,-36,l)
);
}
);
width = 258;
}
);
unicode = 91;
}
{
glyphname = backslash;
layers = (
{
layerId = "DC4431BF-9234-4C16-9154-22D387E42D10";
shapes = (
{
closed = 1;
nodes = (
(256,-23,l),
(81,716,l),
(40,716,l),
(214,-23,l)
);
}
);
width = 296;
},
{
layerId = "4EACF7E3-2421-4EEA-928B-7BA9BC4A845D";
shapes = (
{
closed = 1;
nodes = (
(343,-23,l),
(168,716,l),
(42,716,l),
(216,-23,l)
);
}
);
width = 385;
}
);
unicode = 92;
}
{
glyphname = bracketright;
layers = (
{
layerId = "DC4431BF-9234-4C16-9154-22D387E42D10";
shapes = (
{
closed = 1;
nodes = (
(130,-36,l),
(130,739,l),
(50,739,l),
(50,701,l),
(89,701,l),
(92,2,l),
(50,2,l),
(50,-36,l)
);
}
);
width = 180;
},
{
layerId = "4EACF7E3-2421-4EEA-928B-7BA9BC4A845D";
shapes = (
{
closed = 1;
nodes = (
(208,-36,l),
(208,739,l),
(14,739,l),
(14,629,l),
(75,629,l),
(78,74,l),
(14,74,l),
(14,-36,l)
);
}
);
width = 251;
}
);
unicode = 93;
}
{
glyphname = asciicircum;
layers = (
{
layerId = "DC4431BF-9234-4C16-9154-22D387E42D10";
shapes = (
{
closed = 1;
nodes = (
(91,460,l),
(212,703,l),
(335,460,l),
(376,460,l),
(227,756,l),
(199,756,l),
(50,460,l)
);
}
);
width = 426;
},
{
layerId = "4EACF7E3-2421-4EEA-928B-7BA9BC4A845D";
shapes = (
{
closed = 1;
nodes = (
(182,460,l),
(252,603,l),
(323,460,l),
(446,460,l),
(297,756,l),
(209,756,l),
(60,460,l)
);
}
);
width = 506;
}
);
unicode = 94;
}
{
glyphname = underscore;
layers = (
{
layerId = "DC4431BF-9234-4C16-9154-22D387E42D10";
shapes = (
{
closed = 1;
nodes = (
(490,-205,l),
(490,-167,l),
(40,-167,l),
(40,-205,l)
);
}
);
width = 530;
},
{
layerId = "4EACF7E3-2421-4EEA-928B-7BA9BC4A845D";
shapes = (
{
closed = 1;
nodes = (
(480,-205,l),
(480,-98,l),
(30,-98,l),
(30,-205,l)
);
}
);
width = 510;
}
);
unicode = 95;
}
{
glyphname = grave;
layers = (
{
layerId = "DC4431BF-9234-4C16-9154-22D387E42D10";
shapes = (
{
closed = 1;
nodes = (
(117,605,l),
(80,757,l),
(40,757,l),
(88,605,l)
);
}
);
width = 157;
},
{
layerId = "4EACF7E3-2421-4EEA-928B-7BA9BC4A845D";
shapes = (
{
closed = 1;
nodes = (
(206,605,l),
(169,757,l),
(42,757,l),
(115,605,l)
);
}
);
width = 346;
}
);
unicode = 96;
}
{
glyphname = a;
layers = (
{
layerId = "DC4431BF-9234-4C16-9154-22D387E42D10";
shapes = (
{
closed = 1;
nodes = (
(196,39,l),
(142,39,o),
(82,64,o),
(81,132,cs),
(81,171,ls),
(81,189,o),
(85,203,o),
(92,210,cs),
(126,246,o),
(294,258,o),
(358,292,c),
(358,149,ls),
(358,56,o),
(293,39,o),
(241,39,c),
(241,1,l),
(281,1,o),
(333,14,o),
(358,39,c),
(371,19,o),
(385,1,o),
(424,1,c),
(424,40,l),
(401,40,o),
(398,66,o),
(398,74,cs),
(398,361,ls),
(398,432,o),
(348,519,o),
(241,519,c),
(241,483,l),
(290,483,o),
(357,441,o),
(357,363,cs),
(357,347,ls),
(357,308,o),
(141,284,o),
(89,257,cs),
(46,235,o),
(40,200,o),
(40,167,cs),
(40,121,ls),
(40,64,o),
(99,1,o),
(196,1,c)
);
},
{
closed = 1;
nodes = (
(84,438,o),
(141,481,o),
(196,481,c),
(196,519,l),
(123,519,o),
(46,463,o),
(47,389,c),
(84,375,l)
);
}
);
width = 464;
},
{
layerId = "4EACF7E3-2421-4EEA-928B-7BA9BC4A845D";
shapes = (
{
closed = 1;
nodes = (
(194,123,l),
(146,123,o),
(136,135,o),
(136,159,cs),
(136,173,ls),
(136,185,o),
(142,193,o),
(149,196,cs),
(167,205,o),
(249,220,o),
(291,245,c),
(291,163,ls),
(291,149,o),
(283,123,o),
(248,123,c),
(248,0,l),
(290,0,o),
(323,11,o),
(349,32,c),
(372,12,o),
(404,0,o),
(447,0,c),
(447,124,l),
(422,124,o),
(419,148,o),
(419,156,cs),
(419,417,ls),
(419,477,o),
(362,570,o),
(247,570,c),
(247,447,l),
(279,446,o),
(291,429,o),
(291,408,cs),
(291,385,ls),
(291,342,o),
(134,312,o),
(79,282,cs),
(25,253,o),
(25,202,o),
(25,183,cs),
(25,132,ls),
(25,69,o),
(87,0,o),
(194,0,c)
);
},
{
closed = 1;
nodes = (
(148,426,o),
(165,447,o),
(195,447,c),
(195,570,l),
(117,570,o),
(32,508,o),
(32,427,c),
(148,383,l)
);
}
);
width = 472;
}
);
unicode = 97;
}
{
glyphname = b;
layers = (
{
layerId = "DC4431BF-9234-4C16-9154-22D387E42D10";
shapes = (
{
closed = 1;
nodes = (
(241,0,ls),
(347,0,o),
(398,92,o),
(398,141,cs),
(398,377,ls),
(398,446,o),
(326,516,o),
(244,516,cs),
(125,516,l),
(125,478,l),
(243,478,ls),
(298,478,o),
(358,426,o),
(358,373,cs),
(358,143,ls),
(358,86,o),
(291,38,o),
(243,38,cs),
(125,38,l),
(125,0,l)
);
},
{
closed = 1;
nodes = (
(80,0,l),
(80,699,l),
(40,699,l),
(40,0,l)
);
}
);
width = 428;
},
{
layerId = "4EACF7E3-2421-4EEA-928B-7BA9BC4A845D";
shapes = (
{
closed = 1;
nodes = (
(269,0,ls),
(382,0,o),
(436,107,o),
(436,155,cs),
(436,417,ls),
(436,467,o),
(381,570,o),
(269,570,cs),
(233,570,l),
(233,440,l),
(270,440,ls),
(300,440,o),
(306,415,o),
(306,413,cs),
(306,157,ls),
(306,156,o),
(300,130,o),
(269,130,cs),
(233,130,l),
(233,0,l)
);
},
{
closed = 1;
nodes = (
(180,0,l),
(180,716,l),
(42,716,l),
(42,0,l)
);
}
);
width = 466;
}
);
unicode = 98;
}
{
glyphname = c;
layers = (
{
layerId = "DC4431BF-9234-4C16-9154-22D387E42D10";
shapes = (
{
closed = 1;
nodes = (
(199,38,l),
(129,38,o),
(81,100,o),
(81,141,cs),
(81,369,ls),
(81,414,o),
(129,478,o),
(200,478,c),
(200,516,l),
(93,516,o),
(40,431,o),
(40,372,cs),
(40,141,ls),
(40,94,o),
(78,0,o),
(199,0,c)
);
},
{
closed = 1;
nodes = (
(323,-1,o),
(402,65,o),
(402,144,c),
(363,159,l),
(362,145,ls),
(355,84,o),
(299,37,o),
(243,37,c),
(243,-1,l)
);
},
{
closed = 1;
nodes = (
(391,372,l),
(391,451,o),
(325,516,o),
(244,516,c),
(244,477,l),
(288,477,o),
(344,445,o),
(351,374,cs),
(352,358,l)
);
}
);
width = 432;
},
{
layerId = "4EACF7E3-2421-4EEA-928B-7BA9BC4A845D";
shapes = (
{
closed = 1;
nodes = (
(216,127,l),
(183,128,o),
(169,135,o),
(169,155,cs),
(169,415,ls),
(169,426,o),
(180,442,o),
(215,442,c),
(215,570,l),
(91,570,o),
(39,470,o),
(39,417,cs),
(39,155,ls),
(39,103,o),
(86,0,o),
(216,0,c)
);
},
{
closed = 1;
nodes = (
(349,-4,o),
(437,73,o),
(436,158,c),
(314,205,l),
(314,172,ls),
(314,135,o),
(296,128,o),
(261,128,c),
(261,-1,l)
);
},
{
closed = 1;
nodes = (
(424,412,l),
(424,498,o),
(351,570,o),
(261,570,c),
(261,441,l),
(285,441,o),
(302,431,o),
(302,398,cs),
(302,365,l)
);
}
);
width = 456;
}
);
unicode = 99;
}
{
color = 3;
glyphname = d;
layers = (
{
layerId = "DC4431BF-9234-4C16-9154-22D387E42D10";
shapes = (
{
pos = (428,0);
ref = b;
scale = (-1,1);
}
);
width = 428;
},
{
layerId = "4EACF7E3-2421-4EEA-928B-7BA9BC4A845D";
shapes = (
{
pos = (477,0);
ref = b;
scale = (-1,1);
}
);
width = 477;
},
{
associatedMasterId = "4EACF7E3-2421-4EEA-928B-7BA9BC4A845D";
layerId = "974F59CD-D654-40CE-8B49-432E8375B271";
name = "15 Jun 24 at 23:29";
shapes = (
{
closed = 1;
nodes = (
(228,0,l),
(228,130,l),
(197,130,ls),
(166,130,o),
(160,155,o),
(160,157,cs),
(160,410,ls),
(160,412,o),
(165,438,o),
(195,438,cs),
(228,438,l),
(228,567,l),
(195,567,ls),
(84,567,o),
(31,464,o),
(31,415,cs),
(31,155,ls),
(31,107,o),
(83,0,o),
(197,0,cs)
);
},
{
closed = 1;
nodes = (
(419,0,l),
(420,716,l),
(281,716,l),
(281,0,l)
);
}
);
width = 461;
},
{
associatedMasterId = "DC4431BF-9234-4C16-9154-22D387E42D10";
layerId = "61F754E5-9CF7-4F66-B8A6-A8EDB10F2474";
name = "15 Jun 24 at 23:29";
shapes = (
{
closed = 1;
nodes = (
(303,0,l),
(303,38,l),
(185,38,ls),
(137,38,o),
(70,86,o),
(70,143,cs),
(70,373,ls),
(70,426,o),
(130,478,o),
(185,478,cs),
(303,478,l),
(303,516,l),
(184,516,ls),
(102,516,o),
(30,446,o),
(30,377,cs),
(30,141,ls),
(30,92,o),
(81,0,o),
(187,0,cs)
);
},
{
closed = 1;
nodes = (
(388,0,l),
(388,699,l),
(348,699,l),
(348,0,l)
);
}
);
width = 428;
}
);
unicode = 100;
}
{
color = 3;
glyphname = e;
layers = (
{
layerId = "DC4431BF-9234-4C16-9154-22D387E42D10";
shapes = (
{
closed = 1;
nodes = (
(204,38,l),
(137,38,o),
(80,105,o),
(80,141,cs),
(80,237,l),
(411,237,l),
(411,368,ls),
(411,443,o),
(324,516,o),
(248,516,c),
(248,480,l),
(309,480,o),
(371,418,o),
(371,359,cs),
(371,275,l),
(80,275,l),
(80,359,ls),
(80,400,o),
(131,478,o),
(203,478,c),
(203,516,l),
(96,516,o),
(40,415,o),
(40,367,cs),
(40,141,ls),
(40,93,o),
(97,0,o),
(204,0,c)
);
},
{
closed = 1;
nodes = (
(336,0,o),
(393,56,o),
(412,120,c),
(373,134,l),
(364,98,o),
(319,41,o),
(248,41,c),
(248,0,l)
);
}
);
width = 442;
},
{
layerId = "4EACF7E3-2421-4EEA-928B-7BA9BC4A845D";
shapes = (
{
closed = 1;
nodes = (
(220,123,l),
(182,123,o),
(172,150,o),
(172,165,cs),
(172,219,l),
(446,219,l),
(446,405,ls),
(446,491,o),
(361,570,o),
(274,570,c),
(274,444,l),
(294,444,o),
(321,419,o),
(321,387,cs),
(321,338,l),
(172,338,l),
(172,388,ls),
(172,413,o),
(189,444,o),
(220,444,c),
(220,570,l),
(99,570,o),
(40,462,o),
(40,405,cs),
(40,155,ls),
(40,98,o),
(98,0,o),
(220,0,c)
);
},
{
closed = 1;
nodes = (
(366,0,o),
(432,68,o),
(447,132,c),
(338,173,l),
(330,145,o),
(312,122,o),
(274,122,c),
(274,0,l)
);
}
);
width = 485;
},
{
associatedMasterId = "4EACF7E3-2421-4EEA-928B-7BA9BC4A845D";
layerId = "9DCCA081-C096-4B5B-B7E1-AA154FB56C38";
name = "15 Jun 24 at 23:31";
shapes = (
{
closed = 1;
nodes = (
(216,123,l),
(182,123,o),
(172,140,o),
(172,155,cs),
(172,229,l),
(446,229,l),
(446,418,ls),
(446,509,o),
(350,570,o),
(269,570,c),
(269,444,l),
(293,444,o),
(321,439,o),
(321,407,cs),
(321,358,l),
(172,358,l),
(172,408,ls),
(172,423,o),
(189,444,o),
(215,444,c),
(215,570,l),
(99,570,o),
(39,470,o),
(39,417,cs),
(39,155,ls),
(39,102,o),
(98,0,o),
(216,0,c)
);
},
{
closed = 1;
nodes = (
(365,0,o),
(432,68,o),
(447,132,c),
(338,173,l),
(330,145,o),
(311,122,o),
(269,122,c),
(269,0,l)
);
}
);
width = 485;
},
{
associatedMasterId = "DC4431BF-9234-4C16-9154-22D387E42D10";
layerId = "7B0ECFD7-E3F2-45C1-A2FD-565C83928822";
name = "17 Jun 24 at 13:37";
shapes = (
{
closed = 1;
nodes = (
(204,38,l),
(137,38,o),
(80,105,o),
(80,141,cs),
(80,247,l),
(411,247,l),
(411,378,ls),
(411,453,o),
(324,516,o),
(248,516,c),
(248,480,l),
(309,480,o),
(371,428,o),
(371,369,cs),
(371,285,l),
(80,285,l),
(80,369,ls),
(80,410,o),
(131,478,o),
(203,478,c),
(203,516,l),
(96,516,o),
(41,425,o),
(40,377,cs),
(40,141,ls),
(40,93,o),
(97,0,o),
(204,0,c)
);
},
{
closed = 1;
nodes = (
(336,0,o),
(393,56,o),
(412,120,c),
(373,134,l),
(364,98,o),
(319,41,o),
(248,41,c),
(248,0,l)
);
}
);
width = 452;
}
);
unicode = 101;
}
{
glyphname = f;
layers = (
{
layerId = "DC4431BF-9234-4C16-9154-22D387E42D10";
shapes = (
{
closed = 1;
nodes = (
(133,0,l),
(133,439,l),
(196,439,l),
(196,477,l),
(133,476,l),
(133,552,ls),
(133,600,o),
(143,655,o),
(209,658,cs),
(214,658,l),
(223,696,l),
(212,696,ls),
(106,696,o),
(93,597,o),
(93,552,cs),
(93,477,l),
(30,477,l),
(30,439,l),
(93,439,l),
(93,0,l)
);
}
);
width = 243;
},
{
layerId = "4EACF7E3-2421-4EEA-928B-7BA9BC4A845D";
shapes = (
{
closed = 1;
nodes = (
(219,0,l),
(219,389,l),
(291,389,l),
(291,519,l),
(219,519,l),
(219,558,ls),
(219,561,o),
(224,588,o),
(255,588,cs),
(291,588,l),
(321,717,l),
(254,717,ls),
(138,715,o),
(85,605,o),
(85,558,cs),
(85,519,l),
(15,519,l),
(15,389,l),
(85,389,l),
(85,0,l)
);
}
);
width = 321;
}
);
unicode = 102;
}
{
glyphname = g;
layers = (
{
layerId = "DC4431BF-9234-4C16-9154-22D387E42D10";
shapes = (
{
closed = 1;
nodes = (
(240,-181,ls),
(343,-180,o),
(393,-83,o),
(393,-40,cs),
(393,516,l),
(353,516,l),
(353,465,l),
(340,484,o),
(290,516,o),
(238,516,c),
(238,478,l),
(278,478,o),
(353,445,o),
(353,374,cs),
(353,139,ls),
(353,88,o),
(290,34,o),
(238,34,c),
(238,-1,l),
(301,0,o),
(343,39,o),
(353,54,c),
(353,-40,ls),
(353,-82,o),
(304,-140,o),
(221,-143,cs),
(41,-143,l),
(30,-181,l)
);
},
{
closed = 1;
nodes = (
(193,37,l),
(126,37,o),
(79,102,o),
(79,140,cs),
(79,375,ls),
(79,415,o),
(129,478,o),
(193,478,c),
(193,516,l),
(87,516,o),
(40,424,o),
(39,378,cs),
(39,139,ls),
(39,94,o),
(84,0,o),
(193,-1,c)
);
}
);
width = 433;
},
{
layerId = "4EACF7E3-2421-4EEA-928B-7BA9BC4A845D";
shapes = (
{
closed = 1;
nodes = (
(251,-190,ls),
(364,-190,o),
(419,-82,o),
(419,-35,cs),
(419,577,l),
(291,577,l),
(291,571,l),
(277,575,o),
(261,577,o),
(246,577,c),
(246,452,l),
(281,452,o),
(291,426,o),
(291,420,cs),
(291,165,ls),
(291,150,o),
(281,132,o),
(246,132,c),
(246,8,l),
(262,8,o),
(276,9,o),
(291,12,c),
(291,-35,ls),
(291,-38,o),
(283,-67,o),
(249,-67,cs),
(51,-67,l),
(20,-190,l)
);
},
{
closed = 1;
nodes = (
(203,132,l),
(167,132,o),
(156,150,o),
(156,163,cs),
(156,422,ls),
(156,427,o),
(166,452,o),
(203,452,c),
(203,577,l),
(86,577,o),
(31,475,o),
(31,425,cs),
(31,162,ls),
(31,113,o),
(85,8,o),
(203,8,c)
);
}
);
width = 456;
}
);
unicode = 103;
}
{
glyphname = h;
layers = (
{
layerId = "DC4431BF-9234-4C16-9154-22D387E42D10";
shapes = (
{
closed = 1;
nodes = (
(80,1,l),
(80,365,ls),
(80,420,o),
(145,473,o),
(203,473,c),
(203,511,l),
(136,511,o),
(96,478,o),
(79,454,c),
(79,698,l),
(40,698,l),
(40,1,l)
);
},
{
closed = 1;
nodes = (
(405,1,l),
(405,374,ls),
(405,443,o),
(347,511,o),
(248,511,c),
(248,473,l),
(328,473,o),
(365,418,o),
(365,365,cs),
(365,1,l)
);
}
);
width = 445;
},
{
layerId = "4EACF7E3-2421-4EEA-928B-7BA9BC4A845D";
shapes = (
{
closed = 1;
nodes = (
(168,-8,l),
(168,392,ls),
(168,397,o),
(184,430,o),
(221,430,c),
(221,553,l),
(203,553,o),
(181,551,o),
(167,546,c),
(167,716,l),
(42,716,l),
(42,-8,l)
);
},
{
closed = 1;
nodes = (
(443,-8,l),
(443,402,ls),
(443,478,o),
(379,553,o),
(270,553,c),
(270,430,l),
(309,430,o),
(318,396,o),
(318,392,cs),
(318,-8,l)
);
}
);
width = 473;
}
);
unicode = 104;
}
{
glyphname = i;
layers = (
{
layerId = "DC4431BF-9234-4C16-9154-22D387E42D10";
shapes = (
{
closed = 1;
nodes = (
(90,0,l),
(90,516,l),
(50,516,l),
(50,0,l)
);
},
{
closed = 1;
nodes = (
(85,556,o),
(97,568,o),
(97,583,cs),
(97,598,o),
(85,610,o),
(70,610,cs),
(55,610,o),
(42,598,o),
(42,583,cs),
(42,568,o),
(55,556,o),
(70,556,cs)
);
}
);
width = 139;
},
{
layerId = "4EACF7E3-2421-4EEA-928B-7BA9BC4A845D";
shapes = (
{
closed = 1;
nodes = (
(191,0,l),
(191,562,l),
(57,562,l),
(57,0,l)
);
},
{
closed = 1;
nodes = (
(162,611,o),
(195,644,o),
(195,683,cs),
(195,722,o),
(162,755,o),
(123,755,cs),
(83,755,o),
(50,722,o),
(50,683,cs),
(50,644,o),
(83,611,o),
(123,611,cs)
);
}
);
width = 245;
}
);
unicode = 105;
}
{
glyphname = j;
layers = (
{
layerId = "DC4431BF-9234-4C16-9154-22D387E42D10";
shapes = (
{
closed = 1;
nodes = (
(-25,-181,ls),
(77,-181,o),
(125,-82,o),
(125,-35,cs),
(125,516,l),
(85,516,l),
(85,-35,ls),
(85,-85,o),
(33,-140,o),
(-22,-143,cs),
(-33,-143,l),
(-42,-181,l)
);
},
{
closed = 1;
nodes = (
(122,556,o),
(134,568,o),
(134,583,cs),
(134,598,o),
(122,610,o),
(107,610,cs),
(92,610,o),
(79,598,o),
(79,583,cs),
(79,568,o),
(92,556,o),
(107,556,cs)
);
}
);
width = 174;
},
{
layerId = "4EACF7E3-2421-4EEA-928B-7BA9BC4A845D";
shapes = (
{
closed = 1;
nodes = (
(21,-199,ls),
(133,-199,o),
(188,-94,o),
(188,-42,cs),
(188,540,l),
(54,540,l),
(54,-42,ls),
(54,-44,o),
(48,-71,o),
(17,-71,cs),
(-12,-71,l),
(-42,-199,l)
);
},
{
closed = 1;
nodes = (
(159,579,o),
(192,612,o),
(192,651,cs),
(192,690,o),
(159,723,o),
(120,723,cs),
(80,723,o),
(47,690,o),
(47,651,cs),
(47,612,o),
(80,579,o),
(120,579,cs)
);
}
);
width = 242;
}
);
unicode = 106;
}
{
glyphname = k;
layers = (
{
layerId = "DC4431BF-9234-4C16-9154-22D387E42D10";
shapes = (
{
closed = 1;
nodes = (
(438,0,l),
(162,257,l),
(438,514,l),
(378,514,l),
(102,257,l),
(378,0,l)
);
},
{
closed = 1;
nodes = (
(80,0,l),
(80,698,l),
(40,698,l),
(40,0,l)
);
}
);
width = 458;
},
{
layerId = "4EACF7E3-2421-4EEA-928B-7BA9BC4A845D";
shapes = (
{
closed = 1;
nodes = (
(480,0,l),
(352,287,l),
(478,570,l),
(332,570,l),
(209,287,l),
(335,0,l)
);
},
{
closed = 1;
nodes = (
(180,0,l),
(180,716,l),
(42,716,l),
(42,0,l)
);
}
);
width = 500;
}
);
unicode = 107;
}
{
glyphname = l;
layers = (
{
layerId = "DC4431BF-9234-4C16-9154-22D387E42D10";
shapes = (
{
closed = 1;
nodes = (
(82,0,l),
(82,698,l),
(42,698,l),
(42,0,l)
);
}
);
width = 124;
},
{
layerId = "4EACF7E3-2421-4EEA-928B-7BA9BC4A845D";
shapes = (
{
closed = 1;
nodes = (
(186,0,l),
(186,716,l),
(42,716,l),
(42,0,l)
);
}
);
width = 228;
}
);
unicode = 108;
}
{
glyphname = m;
layers = (
{
layerId = "DC4431BF-9234-4C16-9154-22D387E42D10";
shapes = (
{
closed = 1;
nodes = (
(370,0,l),
(370,372,ls),
(370,431,o),
(410,481,o),
(474,481,c),
(474,519,l),
(402,519,o),
(374,490,o),
(350,450,c),
(326,490,o),
(297,519,o),
(225,519,c),
(225,481,l),
(289,481,o),
(330,431,o),
(330,372,cs),
(330,0,l)
);
},
{
closed = 1;
nodes = (
(78,0,l),
(78,372,ls),
(78,431,o),
(117,481,o),
(181,481,c),
(181,519,l),
(68,519,o),
(38,429,o),
(38,377,cs),
(38,0,l)
);
},
{
closed = 1;
nodes = (
(662,0,l),
(662,377,ls),
(662,426,o),
(628,519,o),
(518,519,c),
(518,481,l),
(581,481,o),
(622,433,o),
(622,372,cs),
(622,0,l)
);
}
);
width = 700;
},
{
layerId = "4EACF7E3-2421-4EEA-928B-7BA9BC4A845D";
shapes = (
{
closed = 1;
nodes = (
(449,0,l),
(449,398,ls),
(449,419,o),
(460,438,o),
(496,438,c),
(496,571,l),
(446,571,o),
(410,558,o),
(381,534,c),
(351,557,o),
(316,571,o),
(265,571,c),
(265,438,l),
(301,438,o),
(313,420,o),
(313,398,cs),
(313,0,l)
);
},
{
closed = 1;
nodes = (
(174,0,l),
(174,398,ls),
(174,415.009,o),
(184,438,o),
(219,438,c),
(219,571,l),
(100,571,o),
(38,471,o),
(38,415,cs),
(38,0,l)
);
},
{
closed = 1;
nodes = (
(724,0,l),
(724,415,ls),
(724,468,o),
(662,571,o),
(541,571,c),
(541,438,l),
(577,438,o),
(588,422,o),
(588,398,cs),
(588,0,l)
);
}
);
width = 762;
}
);
unicode = 109;
}
{
glyphname = n;
layers = (
{
layerId = "DC4431BF-9234-4C16-9154-22D387E42D10";
shapes = (
{
closed = 1;
nodes = (
(38,0,l),
(78,0,l),
(78,372,ls),
(78,426,o),
(141,479,o),
(204,479,c),
(204,519,l),
(94,519,o),
(38,428,o),
(38,377,cs)
);
},
{
closed = 1;
nodes = (
(372,0,l),
(412,0,l),
(412,377,ls),
(412,425,o),
(356,519,o),
(246,519,c),
(246,479,l),
(328,479,o),
(372,405,o),
(372,372,cs)
);
}
);
width = 450;
},
{
background = {
shapes = (
{
closed = 1;
nodes = (
(316,0,l),
(448,0,l),
(448,379,ls),
(448,492,o),
(375,570,o),
(268,570,c),
(220,570,l),
(220,440,l),
(268,440,l),
(298,440,o),
(316,414,o),
(316,373,cs)
);
},
{
closed = 1;
nodes = (
(170,570,l),
(38,570,l),
(37.6,-0.16,l),
(170,0,l)
);
}
);
};
layerId = "4EACF7E3-2421-4EEA-928B-7BA9BC4A845D";
shapes = (
{
closed = 1;
nodes = (
(38,0,l),
(170,0,l),
(170,373,ls),
(170,414,o),
(188,440,o),
(218,440,c),
(218,570,l),
(111,570,o),
(38,492,o),
(38,379,cs)
);
},
{
closed = 1;
nodes = (
(316,0,l),
(448,0,l),
(448,379,ls),
(448,492,o),
(375,570,o),
(268,570,c),
(268,440,l),
(298,440,o),
(316,414,o),
(316,373,cs)
);
}
);
width = 487;
}
);
unicode = 110;
}
{
glyphname = o;
layers = (
{
layerId = "DC4431BF-9234-4C16-9154-22D387E42D10";
shapes = (
{
closed = 1;
nodes = (
(202,37,l),
(129,37,o),
(78,111,o),
(78,154,cs),
(78,363,ls),
(78,410,o),
(122,478,o),
(202,478,c),
(202,516,l),
(92,516,o),
(38,425,o),
(38,376,cs),
(38,141,ls),
(38,93,o),
(90,-1,o),
(202,-1,c)
);
},
{
closed = 1;
nodes = (
(351,-1,o),
(402,92,o),
(402,141,cs),
(402,376,ls),
(402,425,o),
(351,516,o),
(243,516,c),
(243,478,l),
(318,478,o),
(362,408,o),
(362,363,cs),
(362,152,ls),
(362,108,o),
(318,37,o),
(243,37,c),
(243,-1,l)
);
}
);
width = 440;
},
{
layerId = "4EACF7E3-2421-4EEA-928B-7BA9BC4A845D";
shapes = (
{
closed = 1;
nodes = (
(218,129,l),
(190,129,o),
(170,153,o),
(170,188,cs),
(170,373,ls),
(170,414,o),
(188,440,o),
(218,440,c),
(218,570,l),
(111,570,o),
(38,492,o),
(38,379,cs),
(38,183,ls),
(38,71,o),
(121,-1,o),
(218,-1,c)
);
},
{
closed = 1;
nodes = (
(365,-1,o),
(448,71,o),
(448,183,cs),
(448,379,ls),
(448,492,o),
(375,570,o),
(268,570,c),
(268,440,l),
(298,440,o),
(316,414,o),
(316,373,cs),
(316,188,ls),
(316,153,o),
(296,129,o),
(268,129,c),
(268,-1,l)
);
}
);
width = 476;
}
);
unicode = 111;
}
{
glyphname = p;
layers = (
{
layerId = "DC4431BF-9234-4C16-9154-22D387E42D10";
shapes = (
{
closed = 1;
nodes = (
(243,0,ls),
(356,0,o),
(408,86,o),
(408,139,cs),
(408,375,ls),
(408,427,o),
(353,516,o),
(235,516,cs),
(127,516,l),
(127,478,l),
(235,478,ls),
(321,478,o),
(368,413,o),
(368,372,cs),
(368,143,ls),
(368,92,o),
(323,38,o),
(245,38,cs),
(134,38,l),
(134,0,l)
);
},
{
closed = 1;
nodes = (
(82,-182,l),
(82,516,l),
(42,516,l),
(42,-182,l)
);
}
);
width = 444;
},
{
layerId = "4EACF7E3-2421-4EEA-928B-7BA9BC4A845D";
shapes = (
{
closed = 1;
nodes = (
(264,0,ls),
(381,0,o),
(436,106,o),
(436,155,cs),
(436,415,ls),
(436,464,o),
(381,570,o),
(264,570,cs),
(230,570,l),
(230,440,l),
(264,440,ls),
(299,440,o),
(304,415,o),
(304,413,cs),
(304,157,ls),
(304,155,o),
(299,130,o),
(264,130,cs),
(230,130,l),
(230,0,l)
);
},
{
closed = 1;
nodes = (
(180,-199,l),
(180,570,l),
(39,570,l),
(39,-199,l)
);
}
);
width = 481;
}
);
unicode = 112;
}
{
glyphname = q;
layers = (
{
layerId = "DC4431BF-9234-4C16-9154-22D387E42D10";
shapes = (
{
closed = 1;
nodes = (
(304,0,l),
(304,38,l),
(201,38,ls),
(123,38,o),
(78,92,o),
(78,143,cs),
(78,372,ls),
(78,413,o),
(117,478,o),
(203,478,cs),
(311,478,l),
(311,516,l),
(203,516,ls),
(85,516,o),
(38,427,o),
(38,375,cs),
(38,139,ls),
(38,86,o),
(90,0,o),
(203,0,cs)
);
},
{
closed = 1;
nodes = (
(396,-182,l),
(396,516,l),
(356,516,l),
(356,-182,l)
);
}
);
width = 438;
},
{
layerId = "4EACF7E3-2421-4EEA-928B-7BA9BC4A845D";
shapes = (
{
closed = 1;
nodes = (
(246,0,l),
(246,130,l),
(212,130,ls),
(177,130,o),
(171,155,o),
(171,157,cs),
(171,413,ls),
(171,415,o),
(177,440,o),
(212,440,cs),
(246,440,l),
(246,570,l),
(212,570,ls),
(94,570,o),
(40,464,o),
(40,415,cs),
(40,155,ls),
(40,106,o),
(94,0,o),
(212,0,cs)
);
},
{
closed = 1;
nodes = (
(437,-199,l),
(437,570,l),
(296,570,l),
(296,-199,l)
);
}
);
width = 476;
}
);
unicode = 113;
}
{
glyphname = r;
layers = (
{
layerId = "DC4431BF-9234-4C16-9154-22D387E42D10";
shapes = (
{
closed = 1;
nodes = (
(82,0,l),
(82,308,ls),
(82,390,o),
(143,478,o),
(203,478,c),
(213,515,l),
(209,515,o),
(206,515,o),
(202,515,cs),
(141,515,o),
(95,464,o),
(82,431,c),
(82,516,l),
(42,516,l),
(42,0,l)
);
}
);
width = 233;
},
{
layerId = "4EACF7E3-2421-4EEA-928B-7BA9BC4A845D";
shapes = (
{
closed = 1;
nodes = (
(178,0,l),
(178,305,ls),
(178,371,o),
(247,440,o),
(320,441,c),
(351,575,l),
(339,575,o),
(327,575,o),
(315,575,cs),
(254,575,o),
(201,537,o),
(178,507,c),
(178,570,l),
(42,570,l),
(42,0,l)
);
}
);
width = 361;
}
);
unicode = 114;
}
{
glyphname = s;
layers = (
{
layerId = "DC4431BF-9234-4C16-9154-22D387E42D10";
shapes = (
{
closed = 1;
nodes = (
(318,-5,o),
(395,57,o),
(395,153,cs),
(395,234,o),
(315,258,o),
(283,266,cs),
(144,301,o),
(64,305,o),
(64,365,cs),
(64,435,o),
(134,479,o),
(180,479,c),
(180,517,l),
(117,517,o),
(24,472,o),
(24,365,cs),
(24,289,o),
(92,269,o),
(123,262,cs),
(236,235,o),
(355,223,o),
(355,153,cs),
(355,73,o),
(277,32,o),
(223,32,c),
(223,-5,l)
);
},
{
closed = 1;
nodes = (
(182,33,l),
(130,33,o),
(59,79,o),
(59,143,c),
(20,136,l),
(20,71,o),
(85,-5,o),
(182,-5,c)
);
},
{
closed = 1;
nodes = (
(386,374,l),
(386,441,o),
(319,517,o),
(222,517,c),
(222,478,l),
(263,478,o),
(347,442,o),
(347,368,c)
);
}
);
width = 415;
},
{
layerId = "4EACF7E3-2421-4EEA-928B-7BA9BC4A845D";
shapes = (
{
closed = 1;
nodes = (
(349,-5,o),
(434,61,o),
(434,175,cs),
(434,270,o),
(375,315,o),
(323,326,cs),
(198,353,o),
(149,379,o),
(149,416,cs),
(149,425,o),
(152,451,o),
(198,451,c),
(198,575,l),
(143,575,o),
(26,538,o),
(26,406,cs),
(26,319,o),
(76,275,o),
(120,255,cs),
(185,225,o),
(305,220,o),
(305,166,cs),
(305,136,o),
(269,121,o),
(245,121,c),
(245,-5,l)
);
},
{
closed = 1;
nodes = (
(200,121,l),
(173,122,o),
(144,143,o),
(144,173,c),
(20,150,l),
(20,78,o),
(72,-5,o),
(200,-5,c)
);
},
{
closed = 1;
nodes = (
(424,418,l),
(424,492,o),
(351,575,o),
(244,575,c),
(243,451,l),
(253,451,o),
(301,446,o),
(301,397,c)
);
}
);
width = 454;
}
);
unicode = 115;
}
{
glyphname = t;
layers = (
{
layerId = "DC4431BF-9234-4C16-9154-22D387E42D10";
shapes = (
{
closed = 1;
nodes = (
(252,0,l),
(243,38,l),
(242,38,ls),
(148,38,o),
(123,83,o),
(123,159,cs),
(123,465,l),
(186,465,l),
(186,504,l),
(123,504,l),
(123,700,l),
(83,700,l),
(83,504,l),
(20,504,l),
(20,465,l),
(83,465,l),
(83,168,ls),
(83,66,o),
(115,1,o),
(237,0,cs)
);
}
);
width = 252;
},
{
layerId = "4EACF7E3-2421-4EEA-928B-7BA9BC4A845D";
shapes = (
{
closed = 1;
nodes = (
(314,0,l),
(284,138,l),
(255,138,ls),
(224,138,o),
(218,160,o),
(218,175,cs),
(218,440,l),
(284,440,l),
(284,570,l),
(218,570,l),
(218,716,l),
(84,716,l),
(84,570,l),
(14,570,l),
(14,441,l),
(84,441,l),
(84,185,ls),
(84,73,o),
(119,0,o),
(254,0,cs)
);
}
);
width = 324;
}
);
unicode = 116;
}
{
glyphname = u;
layers = (
{
layerId = "DC4431BF-9234-4C16-9154-22D387E42D10";
shapes = (
{
closed = 1;
nodes = (
(358,-5,o),
(412,89,o),
(412,137,cs),
(412,514,l),
(372,514,l),
(372,142,ls),
(372,94,o),
(318,35,o),
(246,35,c),
(246,-5,l)
);
},
{
closed = 1;
nodes = (
(204,35,l),
(134,35,o),
(78,96,o),
(78,142,cs),
(78,514,l),
(38,514,l),
(38,137,ls),
(38,86,o),
(91,-5,o),
(204,-5,c)
);
}
);
width = 450;
},
{
layerId = "4EACF7E3-2421-4EEA-928B-7BA9BC4A845D";
shapes = (
{
closed = 1;
nodes = (
(387,-5,o),
(449,98,o),
(449,151,cs),
(449,570,l),
(313,570,l),
(313,167,ls),
(313,149,o),
(302,128,o),
(266,128,c),
(266,-5,l)
);
},
{
closed = 1;
nodes = (
(220,128,l),
(184,128,o),
(174,148,o),
(174,167,cs),
(174,570,l),
(38,570,l),
(38,151,ls),
(38,95,o),
(99,-5,o),
(220,-5,c)
);
}
);
width = 487;
}
);
unicode = 117;
}
{
glyphname = v;
layers = (
{
layerId = "DC4431BF-9234-4C16-9154-22D387E42D10";
shapes = (
{
closed = 1;
nodes = (
(208,0,l),
(221,31,l),
(55,515,l),
(10,515,l),
(188,0,l)
);
},
{
closed = 1;
nodes = (
(243,92,l),
(394,515,l),
(349,515,l),
(215,140,l),
(231,92,l)
);
}
);
width = 404;
},
{
layerId = "4EACF7E3-2421-4EEA-928B-7BA9BC4A845D";
shapes = (
{
closed = 1;
nodes = (
(257,0,l),
(302,138,l),
(156,570,l),
(7,570,l),
(181,0,l)
);
},
{
closed = 1;
nodes = (
(329,229,l),
(436,570,l),
(287,570,l),
(245,433,l),
(316,229,l)
);
}
);
width = 443;
}
);
unicode = 118;
}
{
glyphname = w;
layers = (
{
layerId = "DC4431BF-9234-4C16-9154-22D387E42D10";
shapes = (
{
closed = 1;
nodes = (
(539,1,l),
(550,32,l),
(384,516,l),
(339,516,l),
(519,1,l)
);
},
{
closed = 1;
nodes = (
(210,1,l),
(221,32,l),
(55,516,l),
(10,516,l),
(190,1,l)
);
},
{
closed = 1;
nodes = (
(243,93,l),
(384,516,l),
(339,516,l),
(215,141,l),
(231,93,l)
);
},
{
closed = 1;
nodes = (
(572,93,l),
(713,516,l),
(668,516,l),
(544,141,l),
(560,93,l)
);
}
);
width = 723;
},
{
layerId = "4EACF7E3-2421-4EEA-928B-7BA9BC4A845D";
shapes = (
{
closed = 1;
nodes = (
(537,0,l),
(582,138,l),
(436,570,l),
(287,570,l),
(461,0,l)
);
},
{
closed = 1;
nodes = (
(257,0,l),
(302,138,l),
(156,570,l),
(7,570,l),
(181,0,l)
);
},
{
closed = 1;
nodes = (
(329,229,l),
(436,570,l),
(287,570,l),
(245,433,l),
(316,229,l)
);
},
{
closed = 1;
nodes = (
(609,229,l),
(716,570,l),
(567,570,l),
(525,433,l),
(596,229,l)
);
}
);
width = 723;
}
);
unicode = 119;
}
{
glyphname = x;
layers = (
{
layerId = "DC4431BF-9234-4C16-9154-22D387E42D10";
shapes = (
{
closed = 1;
nodes = (
(47,0,l),
(190,232,l),
(332,0,l),
(371,0,l),
(215,262,l),
(367,515,l),
(327,515,l),
(190,293,l),
(52,516,l),
(13,516,l),
(166,262,l),
(8,0,l)
);
}
);
width = 379;
},
{
layerId = "4EACF7E3-2421-4EEA-928B-7BA9BC4A845D";
shapes = (
{
closed = 1;
nodes = (
(145,0,l),
(208,139,l),
(271,0,l),
(408,0,l),
(284,288,l),
(405,570,l),
(266,570,l),
(208,439,l),
(148,570,l),
(10,570,l),
(133,288,l),
(8,0,l)
);
}
);
width = 416;
}
);
unicode = 120;
}
{
glyphname = y;
layers = (
{
layerId = "DC4431BF-9234-4C16-9154-22D387E42D10";
shapes = (
{
closed = 1;
nodes = (
(115,-182,l),
(212,111,l),
(43,515,l),
(4,515,l),
(173,111,l),
(76,-182,l)
);
},
{
closed = 1;
nodes = (
(235,156,l),
(386,515,l),
(347,515,l),
(213,197,l),
(230,156,l)
);
}
);
width = 390;
},
{
layerId = "4EACF7E3-2421-4EEA-928B-7BA9BC4A845D";
shapes = (
{
closed = 1;
nodes = (
(175,-200,l),
(284,126,l),
(151,570,l),
(7,570,l),
(137,128,l),
(37,-200,l)
);
},
{
closed = 1;
nodes = (
(314,232,l),
(427,570,l),
(283,570,l),
(241,436,l),
(301,232,l)
);
}
);
width = 429;
}
);
unicode = 121;
}
{
glyphname = z;
layers = (
{
layerId = "DC4431BF-9234-4C16-9154-22D387E42D10";
shapes = (
{
closed = 1;
nodes = (
(326,0,l),
(326,38,l),
(72,38,l),
(326,482,l),
(326,514,l),
(30,514,l),
(30,476,l),
(284,476,l),
(31,37,l),
(30,0,l)
);
}
);
width = 356;
},
{
layerId = "4EACF7E3-2421-4EEA-928B-7BA9BC4A845D";
shapes = (
{
closed = 1;
nodes = (
(356,0,l),
(356,131,l),
(188,131,l),
(356,440,l),
(356,570,l),
(30,570,l),
(30,440,l),
(203,440,l),
(30,131,l),
(30,0,l)
);
}
);
width = 386;
}
);
unicode = 122;
}
{
glyphname = braceleft;
layers = (
{
layerId = "DC4431BF-9234-4C16-9154-22D387E42D10";
shapes = (
{
closed = 1;
nodes = (
(199,-4,l),
(154,-4,o),
(117,10,o),
(117,207,cs),
(117,304,ls),
(117,325,o),
(112,340,o),
(87,348,c),
(111,354,o),
(117,366,o),
(117,383,cs),
(117,469,ls),
(117,684,o),
(127,701,o),
(199,701,c),
(199,735,l),
(116,735,o),
(77,706,o),
(77,557,cs),
(77,408,ls),
(76,370,o),
(51,363,o),
(15,348,c),
(51,329,o),
(77,322,o),
(77,290,cs),
(77,138,ls),
(77,5,o),
(118,-38,o),
(199,-38,c)
);
}
);
width = 219;
},
{
layerId = "4EACF7E3-2421-4EEA-928B-7BA9BC4A845D";
shapes = (
{
closed = 1;
nodes = (
(272,61,l),
(218,61,o),
(204,86,o),
(204,207,cs),
(204,304,ls),
(204,325,o),
(185,340,o),
(160,348,c),
(184,354,o),
(204,366,o),
(205,383,cs),
(205,469,ls),
(205,591,o),
(205,635,o),
(272,635,c),
(272,735,l),
(163,735,o),
(77,715,o),
(77,504,cs),
(77,408,ls),
(77,370,o),
(51,363,o),
(15,348,c),
(51,329,o),
(77,322,o),
(77,290,cs),
(77,192,ls),
(77,-41.004,o),
(168,-37,o),
(272,-38,c)
);
}
);
width = 292;
}
);
unicode = 123;
}
{
glyphname = bar;
layers = (
{
layerId = "DC4431BF-9234-4C16-9154-22D387E42D10";
shapes = (
{
closed = 1;
nodes = (
(85,-134,l),
(85,754,l),
(50,754,l),
(50,-134,l)
);
}
);
width = 135;
},
{
layerId = "4EACF7E3-2421-4EEA-928B-7BA9BC4A845D";
shapes = (
{
closed = 1;
nodes = (
(155,-134,l),
(155,754,l),
(50,754,l),
(50,-134,l)
);
}
);
width = 205;
}
);
unicode = 124;
}
{
glyphname = braceright;
layers = (
{
layerId = "DC4431BF-9234-4C16-9154-22D387E42D10";
shapes = (
{
closed = 1;
nodes = (
(101,-38,o),
(142,5,o),
(142,138,cs),
(142,290,ls),
(142,322,o),
(168,329,o),
(204,348,c),
(168,363,o),
(143,370,o),
(142,408,cs),
(142,557,ls),
(142,706,o),
(103,735,o),
(20,735,c),
(20,701,l),
(92,701,o),
(102,684,o),
(102,469,cs),
(102,383,ls),
(102,366,o),
(108,354,o),
(132,348,c),
(107,340,o),
(102,325,o),
(102,304,cs),
(102,207,ls),
(102,10,o),
(65,-4,o),
(20,-4,c),
(20,-38,l)
);
}
);
width = 219;
},
{
layerId = "4EACF7E3-2421-4EEA-928B-7BA9BC4A845D";
shapes = (
{
closed = 1;
nodes = (
(124,-38,o),
(215,-31.002,o),
(215,192,cs),
(215,290,ls),
(215,322,o),
(241,329,o),
(277,348,c),
(241,363,o),
(216,370,o),
(216,408,cs),
(216,504,ls),
(216,715,o),
(129,735,o),
(20,735,c),
(20,635,l),
(88,635,o),
(88,591,o),
(88,469,cs),
(88,384,ls),
(88,366,o),
(107,354,o),
(132,348,c),
(107,340,o),
(88,325,o),
(88,304,cs),
(88,208,ls),
(88,87,o),
(74,61,o),
(20,61,c),
(20,-38,l)
);
}
);
width = 292;
}
);
unicode = 125;
}
{
glyphname = asciitilde;
layers = (
{
layerId = "DC4431BF-9234-4C16-9154-22D387E42D10";
shapes = (
{
closed = 1;
nodes = (
(448,283,o),
(492,295,o),
(548,329,c),
(548,365,l),
(494,332,o),
(452,320,o),
(417,320,cs),
(329,320,o),
(280,393,o),
(193,393,cs),
(162,393,o),
(125,384,o),
(80,358,c),
(80,320,l),
(122,347,o),
(157,356,o),
(187,356,cs),
(269,356,o),
(319,283,o),
(411,283,cs)
);
}
);
width = 628;
},
{
layerId = "4EACF7E3-2421-4EEA-928B-7BA9BC4A845D";
shapes = (
{
closed = 1;
nodes = (
(448,235,o),
(492,247,o),
(548,281,c),
(548,412,l),
(494,379,o),
(452,367,o),
(417,367,cs),
(329,367,o),
(280,440,o),
(193,440,cs),
(162,440,o),
(125,431,o),
(80,405,c),
(80,272,l),
(122,299,o),
(157,308,o),
(187,308,cs),
(270,308,o),
(319,235,o),
(411,235,cs)
);
}
);
width = 628;
}
);
unicode = 126;
}
{
glyphname = exclamdown;
layers = (
{
layerId = "DC4431BF-9234-4C16-9154-22D387E42D10";
shapes = (
{
closed = 1;
nodes = (
(68,-94,l),
(68,422,l),
(28,422,l),
(28,-94,l)
);
},
{
closed = 1;
nodes = (
(63,462,o),
(75,474,o),
(75,489,cs),
(75,504,o),
(63,516,o),
(48,516,cs),
(33,516,o),
(20,504,o),
(20,489,cs),
(20,474,o),
(33,462,o),
(48,462,cs)
);
}
);
width = 138;
},
{
layerId = "4EACF7E3-2421-4EEA-928B-7BA9BC4A845D";
shapes = (
{
closed = 1;
nodes = (
(170,-198,l),
(170,369,l),
(36,369,l),
(36,-198,l)
);
},
{
closed = 1;
nodes = (
(146,415,o),
(182,452,o),
(182,495,cs),
(182,539,o),
(146,575,o),
(102,575,cs),
(58,575,o),
(21,539,o),
(21,495,cs),
(21,452,o),
(58,415,o),
(102,415,cs)
);
}
);
width = 245;
}
);
unicode = 161;
}
{
glyphname = cent;
layers = (
{
layerId = "DC4431BF-9234-4C16-9154-22D387E42D10";
shapes = (
{
closed = 1;
nodes = (
(389,372,l),
(389,451,o),
(323,516,o),
(242,516,c),
(242,477,l),
(287,477,o),
(344,444,o),
(350,370,cs),
(350,358,l)
);
},
{
closed = 1;
nodes = (
(198,38,l),
(128,38,o),
(79,100,o),
(79,141,cs),
(79,369,ls),
(79,414,o),
(127,478,o),
(198,478,c),
(198,516,l),
(91,516,o),
(38,431,o),
(38,372,cs),
(38,141,ls),
(38,94,o),
(77,0,o),
(198,0,c)
);
},
{
closed = 1;
nodes = (
(322,-1,o),
(400,65,o),
(400,144,c),
(361,159,l),
(361,153,o),
(361,147,o),
(360,141,cs),
(350,82,o),
(297,37,o),
(242,37,c),
(242,-1,l)
);
},
{
closed = 1;
nodes = (
(198,492,l),
(198,577,l),
(165,577,l),
(165,492,l)
);
},
{
closed = 1;
nodes = (
(198,-61,l),
(198,24,l),
(165,24,l),
(165,-61,l)
);
},
{
closed = 1;
nodes = (
(275,492,l),
(275,577,l),
(242,577,l),
(242,492,l)
);
},
{
closed = 1;
nodes = (
(275,-61,l),
(275,24,l),
(242,24,l),
(242,-61,l)
);
}
);
width = 420;
},
{
layerId = "4EACF7E3-2421-4EEA-928B-7BA9BC4A845D";
shapes = (
{
closed = 1;
nodes = (
(424,409,l),
(424,496,o),
(349,568,o),
(261,568,c),
(261,439,l),
(281,439,o),
(302,428,o),
(302,399,cs),
(302,363,l)
);
},
{
closed = 1;
nodes = (
(215,129,l),
(182,129,o),
(169,151,o),
(169,165,cs),
(169,400,ls),
(169,420,o),
(179,440,o),
(215,440,c),
(215,568,l),
(95,568,o),
(39,467,o),
(39,415,cs),
(39,155,ls),
(39,103,o),
(85,0,o),
(215,0,c)
);
},
{
closed = 1;
nodes = (
(349,-1,o),
(436,71,o),
(436,158,c),
(314,205,l),
(314,194,o),
(314,183,o),
(314,172,cs),
(314,135,o),
(286,129,o),
(261,129,c),
(261,-1,l)
);
},
{
closed = 1;
nodes = (
(215,537,l),
(215,662,l),
(165,662,l),
(165,537,l)
);
},
{
closed = 1;
nodes = (
(215,-94,l),
(215,31,l),
(165,31,l),
(165,-94,l)
);
},
{
closed = 1;
nodes = (
(312,537,l),
(312,662,l),
(261,662,l),
(261,537,l)
);
},
{
closed = 1;
nodes = (
(312,-94,l),
(312,31,l),
(261,31,l),
(261,-94,l)
);
}
);
width = 456;
}
);
unicode = 162;
}
{
glyphname = sterling;
layers = (
{
layerId = "DC4431BF-9234-4C16-9154-22D387E42D10";
shapes = (
{
closed = 1;
nodes = (
(352,0,l),
(352,38,l),
(122,38,l),
(122,324,l),
(268,324,l),
(268,362,l),
(122,362,l),
(122,556,ls),
(122,622,o),
(168,664,o),
(227,664,cs),
(270,664,o),
(297,639,o),
(315,612,c),
(350,629,l),
(337,655,o),
(315,680,o),
(281,693,cs),
(264,700,o),
(246,704,o),
(223,704,cs),
(221,704,ls),
(128,704,o),
(82,629,o),
(82,553,cs),
(82,360,l),
(20,360,l),
(20,322,l),
(82,322,l),
(82,0,l)
);
}
);
width = 372;
},
{
layerId = "4EACF7E3-2421-4EEA-928B-7BA9BC4A845D";
shapes = (
{
closed = 1;
nodes = (
(432,0,l),
(432,108,l),
(208,108,l),
(208,289,l),
(348,289,l),
(348,396,l),
(209,396,l),
(209,517,ls),
(209,568,o),
(235,584,o),
(267,584,cs),
(311,584,o),
(331,551,o),
(341,520,c),
(440,570,l),
(429,618,o),
(394,668,o),
(336,691,cs),
(315,700,o),
(291,705,o),
(263,705,cs),
(261,705,ls),
(131,705,o),
(76,617,o),
(76,514,cs),
(76,395,l),
(20,395,l),
(20,288,l),
(76,288,l),
(76,0,l)
);
}
);
width = 460;
}
);
unicode = 163;
}
{
glyphname = currency;
layers = (
{
layerId = "DC4431BF-9234-4C16-9154-22D387E42D10";
shapes = (
{
closed = 1;
nodes = (
(275,170,l),
(202,170,o),
(151,244,o),
(151,287,cs),
(151,443,ls),
(151,490,o),
(195,558,o),
(275,558,c),
(275,596,l),
(211,596,o),
(165,565,o),
(139,530,c),
(65,596,l),
(40,567,l),
(120,495,l),
(114,481,o),
(111,467,o),
(111,456,cs),
(111,274,ls),
(111,263,o),
(113,250,o),
(119,236,c),
(40,164,l),
(65,135,l),
(139,201,l),
(165,165,o),
(210,132,o),
(275,132,c)
);
},
{
closed = 1;
nodes = (
(379,132,o),
(423,165,o),
(448,201,c),
(522,135,l),
(548,164,l),
(467,236,l),
(472,250,o),
(475,263,o),
(475,274,cs),
(475,456,ls),
(475,467,o),
(472,480,o),
(467,494,c),
(548,567,l),
(523,596,l),
(448,529,l),
(423,565,o),
(379,596,o),
(316,596,c),
(316,558,l),
(391,558,o),
(435,488,o),
(435,443,cs),
(435,285,ls),
(435,241,o),
(391,170,o),
(316,170,c),
(316,132,l)
);
}
);
width = 598;
},
{
layerId = "4EACF7E3-2421-4EEA-928B-7BA9BC4A845D";
shapes = (
{
closed = 1;
nodes = (
(300,251,l),
(268,251,o),
(256,266,o),
(256,285,cs),
(256,442,ls),
(256,458,o),
(265,477,o),
(300,477,c),
(300,595,l),
(251,595,o),
(215,580,o),
(188,555,c),
(112,622,l),
(40,540,l),
(136,456,l),
(136,449,o),
(136,442,o),
(136,435,c),
(136,296,l),
(136,289,o),
(136,282,o),
(136,275,c),
(41,190,l),
(112,109,l),
(187,175,l),
(214,149,o),
(250,133,o),
(300,133,c)
);
},
{
closed = 1;
nodes = (
(389,133,o),
(423,148,o),
(450,174,c),
(524,109,l),
(595,190,l),
(500,275,l),
(500,281,o),
(500,287,o),
(500,293,c),
(500,434,l),
(500,441,o),
(500,448,o),
(500,455,c),
(596,540,l),
(524,622,l),
(449,555,l),
(422,580,o),
(388,595,o),
(341,595,c),
(341,477,l),
(373,477,o),
(383,460,o),
(383,441,cs),
(383,285,ls),
(383,269,o),
(374,250,o),
(341,250,c),
(341,133,l)
);
}
);
width = 646;
}
);
unicode = 164;
}
{
glyphname = yen;
layers = (
{
layerId = "DC4431BF-9234-4C16-9154-22D387E42D10";
shapes = (
{
closed = 1;
nodes = (
(247,0,l),
(247,288,l),
(396,698,l),
(355,698,l),
(227,343,l),
(98,698,l),
(57,698,l),
(207,288,l),
(207,0,l)
);
},
{
closed = 1;
nodes = (
(436,153,l),
(436,186,l),
(21,186,l),
(21,153,l)
);
},
{
closed = 1;
nodes = (
(436,243,l),
(436,276,l),
(21,276,l),
(21,243,l)
);
}
);
width = 452;
},
{
layerId = "4EACF7E3-2421-4EEA-928B-7BA9BC4A845D";
shapes = (
{
closed = 1;
nodes = (
(302,0,l),
(302,236,l),
(432,698,l),
(295,698,l),
(235,485,l),
(172,698,l),
(35,698,l),
(165,238,l),
(165,0,l)
);
},
{
closed = 1;
nodes = (
(441,239,l),
(441,299,l),
(16,299,l),
(16,239,l)
);
},
{
closed = 1;
nodes = (
(441,349,l),
(441,409,l),
(16,409,l),
(16,349,l)
);
}
);
width = 449;
}
);
unicode = 165;
}
{
glyphname = brokenbar;
layers = (
{
layerId = "DC4431BF-9234-4C16-9154-22D387E42D10";
shapes = (
{
closed = 1;
nodes = (
(82,399,l),
(82,754,l),
(42,754,l),
(42,399,l)
);
},
{
closed = 1;
nodes = (
(82,-134,l),
(82,221,l),
(42,221,l),
(42,-134,l)
);
}
);
width = 132;
},
{
layerId = "4EACF7E3-2421-4EEA-928B-7BA9BC4A845D";
shapes = (
{
closed = 1;
nodes = (
(164,407,l),
(164,764,l),
(42,764,l),
(42,407,l)
);
},
{
closed = 1;
nodes = (
(164,-140,l),
(164,217,l),
(42,217,l),
(42,-140,l)
);
}
);
width = 214;
}
);
unicode = 166;
}
{
glyphname = section;
layers = (
{
layerId = "DC4431BF-9234-4C16-9154-22D387E42D10";
shapes = (
{
closed = 1;
nodes = (
(278,223,l),
(193,238,o),
(94,261,o),
(94,350,cs),
(94,408,o),
(122,446,o),
(153,470,c),
(174,449,o),
(203,435,o),
(238,422,cs),
(248,418,o),
(262,415,o),
(278,412,c),
(278,459,l),
(213,478,o),
(155,510,o),
(155,578,cs),
(155,663,o),
(211,722,o),
(335,722,cs),
(404,722,l),
(404,760,l),
(306,760,ls),
(235,760,o),
(115,720,o),
(115,576,cs),
(115,546,o),
(120,523,o),
(129,504,c),
(88,475,o),
(54,427,o),
(54,356,cs),
(54,263,o),
(103,230,o),
(177,202,cs),
(199,194,o),
(237,190,o),
(278,183,c)
);
},
{
closed = 1;
nodes = (
(292,-137,ls),
(420,-137,o),
(487,-44,o),
(487,45,cs),
(487,72,o),
(484,94,o),
(477,113,c),
(521,152,o),
(548,208,o),
(548,265,cs),
(548,373,o),
(489,408,o),
(420,427,cs),
(395,434,o),
(360,439,o),
(323,447,c),
(323,405,l),
(406,392,o),
(508,369,o),
(508,271,cs),
(508,222,o),
(485,182,o),
(455,153,c),
(431,182,o),
(396,197,o),
(359,207,cs),
(349,210,o),
(336,213,o),
(323,215,c),
(323,173,l),
(388,156,o),
(447,125,o),
(447,51,cs),
(447,-47,o),
(373,-99,o),
(262,-99,cs),
(197,-99,l),
(197,-137,l)
);
}
);
width = 602;
},
{
layerId = "4EACF7E3-2421-4EEA-928B-7BA9BC4A845D";
shapes = (
{
closed = 1;
nodes = (
(274,272,l),
(232,290,o),
(195,313,o),
(195,359,cs),
(195,379,o),
(202,392,o),
(212,400,c),
(221,395,o),
(230,391,o),
(239,386,cs),
(249,381,o),
(272,373,o),
(274,372,c),
(274,527,l),
(258,540,o),
(247,555,o),
(247,576,cs),
(247,606,o),
(268,627,o),
(301,627,cs),
(405,627,l),
(405,759,l),
(293,759,ls),
(225,759,o),
(116,711,o),
(116,568,cs),
(116,544,o),
(119,519,o),
(126,499,c),
(82,465,o),
(54,413,o),
(54,349,cs),
(54,267,o),
(101,211,o),
(182,166,cs),
(218,146,o),
(271,126,o),
(274,125,c)
);
},
{
closed = 1;
nodes = (
(310,-136,ls),
(378,-136,o),
(487,-88,o),
(487,55,cs),
(487,79,o),
(484,104,o),
(477,124,c),
(521,158,o),
(549,210,o),
(549,273,cs),
(549,365,o),
(489,420,o),
(421,457,cs),
(393,473,o),
(359,485,o),
(328,498,c),
(328,351,l),
(373,332,o),
(408,310,o),
(408,264,cs),
(408,243,o),
(401,231,o),
(391,223,c),
(382,228,o),
(373,232,o),
(364,237,cs),
(354,242,o),
(346,245,o),
(328,252,c),
(328,97,l),
(345,84,o),
(356,68,o),
(356,47,cs),
(356,17,o),
(335,-4,o),
(302,-4,cs),
(198,-4,l),
(198,-136,l)
);
}
);
width = 603;
}
);
unicode = 167;
}
{
glyphname = dieresis;
layers = (
{
layerId = "DC4431BF-9234-4C16-9154-22D387E42D10";
shapes = (
{
closed = 1;
nodes = (
(199,652,o),
(211,664,o),
(211,679,cs),
(211,694,o),
(199,706,o),
(184,706,cs),
(169,706,o),
(156,694,o),
(156,679,cs),
(156,664,o),
(169,652,o),
(184,652,cs)
);
},
{
closed = 1;
nodes = (
(98,652,o),
(110,664,o),
(110,679,cs),
(110,694,o),
(98,706,o),
(83,706,cs),
(68,706,o),
(55,694,o),
(55,679,cs),
(55,664,o),
(68,652,o),
(83,652,cs)
);
}
);
width = 266;
},
{
layerId = "4EACF7E3-2421-4EEA-928B-7BA9BC4A845D";
shapes = (
{
closed = 1;
nodes = (
(342,603,o),
(375,636,o),
(375,678,cs),
(375,720,o),
(342,754,o),
(300,754,cs),
(258,754,o),
(225,720,o),
(225,678,cs),
(225,636,o),
(258,603,o),
(300,603,cs)
);
},
{
closed = 1;
nodes = (
(172,603,o),
(205,636,o),
(205,678,cs),
(205,720,o),
(172,754,o),
(130,754,cs),
(88,754,o),
(55,720,o),
(55,678,cs),
(55,636,o),
(88,603,o),
(130,603,cs)
);
}
);
width = 430;
}
);
unicode = 168;
}
{
glyphname = copyright;
layers = (
{
layerId = "DC4431BF-9234-4C16-9154-22D387E42D10";
shapes = (
{
closed = 1;
nodes = (
(370,17,l),
(197,17,o),
(64,174,o),
(64,339,cs),
(64,544,o),
(235,664,o),
(370,664,c),
(370,694,l),
(241,696,o),
(35,577,o),
(35,339,cs),
(35,140,o),
(192,-16,o),
(370,-16,c)
);
},
{
closed = 1;
nodes = (
(570,-16,o),
(734,138,o),
(734,339,cs),
(734,552,o),
(558,694,o),
(405,694,c),
(405,664,l),
(556,664,o),
(705,521,o),
(705,339,cs),
(705,175,o),
(569,17,o),
(405,17,c),
(405,-16,l)
);
},
{
closed = 1;
nodes = (
(519,446,l),
(519,508,o),
(469,565,o),
(405,565,c),
(405,534,l),
(441,534,o),
(488,498,o),
(488,441,cs),
(488,435,l)
);
},
{
closed = 1;
nodes = (
(371,142,l),
(312,142,o),
(273,195,o),
(273,247,cs),
(273,426,ls),
(273,470,o),
(301,535,o),
(371,535,c),
(371,565,l),
(282,565,o),
(241,486,o),
(241,429,cs),
(241,247,ls),
(241,199,o),
(269,113,o),
(371,113,c)
);
},
{
closed = 1;
nodes = (
(468,112,o),
(521,170,o),
(521,232,c),
(491,243,l),
(491,234,ls),
(489,185,o),
(449,142,o),
(405,142,c),
(405,112,l)
);
}
);
width = 764;
},
{
layerId = "4EACF7E3-2421-4EEA-928B-7BA9BC4A845D";
shapes = (
{
closed = 1;
nodes = (
(397,44,l),
(247,52,o),
(124,181,o),
(124,342,cs),
(124,517,o),
(271,636,o),
(397,636,c),
(397,726,l),
(249,725,o),
(35,589,o),
(35,339,cs),
(35,108,o),
(222,-43,o),
(397,-49,c)
);
},
{
closed = 1;
nodes = (
(611,-41,o),
(787,105,o),
(793,327,cs),
(800,582,o),
(582,726,o),
(432,726,c),
(432,636,l),
(561,636,o),
(705,513,o),
(705,338,cs),
(705,177,o),
(582,53,o),
(432,44,c),
(432,-49,l)
);
},
{
closed = 1;
nodes = (
(550,446,l),
(550,507,o),
(491,566,o),
(432,566,c),
(432,476,l),
(446,476,o),
(462,462,o),
(462,432,cs),
(462,413,l)
);
},
{
closed = 1;
nodes = (
(397,203,l),
(368,203,o),
(362,228,o),
(362,231,cs),
(362,447,ls),
(362,450,o),
(368,476,o),
(397,476,c),
(397,566,l),
(306,566,o),
(272,485,o),
(272,447,cs),
(272,231,ls),
(272,193,o),
(306,112,o),
(397,112,c)
);
},
{
closed = 1;
nodes = (
(491,112,o),
(550,171,o),
(550,232,c),
(462,264,l),
(462,242,ls),
(462,217,o),
(449,201,o),
(432,201,c),
(432,112,l)
);
}
);
width = 824;
}
);
unicode = 169;
}
{
glyphname = ordfeminine;
layers = (
{
layerId = "DC4431BF-9234-4C16-9154-22D387E42D10";
shapes = (
{
closed = 1;
nodes = (
(208,393,l),
(208,410,l),
(20,410,l),
(20,393,l)
);
},
{
pos = (4,446);
ref = a;
scale = (0.5,0.5);
}
);
width = 230;
},
{
layerId = "4EACF7E3-2421-4EEA-928B-7BA9BC4A845D";
shapes = (
{
closed = 1;
nodes = (
(225,325,l),
(225,393,l),
(19,393,l),
(19,325,l)
);
},
{
pos = (2,419);
ref = a;
scale = (0.5,0.5);
}
);
width = 248;
}
);
unicode = 170;
}
{
glyphname = guillemotleft;
layers = (
{
layerId = "DC4431BF-9234-4C16-9154-22D387E42D10";
shapes = (
{
closed = 1;
nodes = (
(449,174,l),
(293,292,l),
(449,405,l),
(449,455,l),
(238,299,l),
(238,281,l),
(449,124,l)
);
},
{
closed = 1;
nodes = (
(238,174,l),
(82,292,l),
(238,405,l),
(238,455,l),
(27,299,l),
(27,281,l),
(238,124,l)
);
}
);
width = 475;
},
{
layerId = "4EACF7E3-2421-4EEA-928B-7BA9BC4A845D";
shapes = (
{
closed = 1;
nodes = (
(442,224,l),
(353,292,l),
(442,352,l),
(442,477,l),
(231,321,l),
(231,259,l),
(442,102,l)
);
},
{
closed = 1;
nodes = (
(231,224,l),
(142,292,l),
(231,352,l),
(231,477,l),
(20,321,l),
(20,259,l),
(231,102,l)
);
}
);
width = 457;
}
);
unicode = 171;
}
{
glyphname = logicalnot;
layers = (
{
layerId = "DC4431BF-9234-4C16-9154-22D387E42D10";
shapes = (
{
closed = 1;
nodes = (
(451,208,l),
(451,406,l),
(40,406,l),
(40,368,l),
(411,368,l),
(411,208,l)
);
}
);
width = 501;
},
{
layerId = "4EACF7E3-2421-4EEA-928B-7BA9BC4A845D";
shapes = (
{
closed = 1;
nodes = (
(490,208,l),
(490,442,l),
(40,442,l),
(40,327,l),
(372,327,l),
(372,208,l)
);
}
);
width = 540;
}
);
unicode = 172;
}
{
glyphname = registered;
layers = (
{
layerId = "DC4431BF-9234-4C16-9154-22D387E42D10";
shapes = (
{
closed = 1;
nodes = (
(184,393,l),
(113,397,o),
(57,456,o),
(57,528,cs),
(57,600,o),
(113,659,o),
(184,663,c),
(184,687,l),
(100,683,o),
(33,613,o),
(33,528,cs),
(33,443,o),
(100,373,o),
(184,369,c)
);
},
{
closed = 1;
nodes = (
(284,373,o),
(351,443,o),
(351,528,cs),
(351,613,o),
(284,683,o),
(200,687,c),
(200,663,l),
(271,659,o),
(327,600,o),
(327,528,cs),
(327,456,o),
(271,397,o),
(200,393,c),
(200,369,l)
);
},
{
closed = 1;
nodes = (
(154,432,l),
(154,627,l),
(133,627,l),
(133,432,l)
);
},
{
closed = 1;
nodes = (
(256,432,l),
(251,492,ls),
(250,505,o),
(242,523,o),
(230,528,c),
(243,535,o),
(251,550,o),
(251,570,cs),
(251,627,o),
(199,627,o),
(166,627,c),
(166,608,l),
(174,608,ls),
(211,608,o),
(231,599,o),
(231,570,cs),
(231,551,o),
(217,537,o),
(185,537,cs),
(166,537,l),
(166,518,l),
(207,518,o),
(229,516,o),
(232,481,cs),
(236,432,l)
);
}
);
width = 384;
},
{
layerId = "4EACF7E3-2421-4EEA-928B-7BA9BC4A845D";
shapes = (
{
closed = 1;
nodes = (
(191,396,l),
(124,400,o),
(70,457,o),
(70,529,cs),
(70,608,o),
(136,662,o),
(195,662,c),
(195,703,l),
(128,703,o),
(30,643,o),
(30,531,cs),
(30,433,o),
(105,357,o),
(192,354,c)
);
},
{
closed = 1;
nodes = (
(291,357,o),
(374,425,o),
(374,528,cs),
(374,641,o),
(277,702,o),
(211,703,c),
(211,662,l),
(270,662,o),
(334,607,o),
(334,529,cs),
(334,457,o),
(278,400,o),
(211,396,c),
(211,354,l)
);
},
{
closed = 1;
nodes = (
(182,430,l),
(182,627,l),
(143,627,l),
(143,430,l)
);
},
{
closed = 1;
nodes = (
(265,431,l),
(262,492,ls),
(261,513,o),
(253,522,o),
(243,530,c),
(256,538,o),
(262,551,o),
(262,570,cs),
(262,604,o),
(240,628,o),
(198,628,c),
(198,591,l),
(202,591,ls),
(216,591,o),
(226,582,o),
(226,568,cs),
(226,557,o),
(219,547,o),
(202,547,cs),
(198,547,l),
(198,511,l),
(217,511,o),
(226,504,o),
(227,481,cs),
(230,431,l)
);
}
);
width = 404;
}
);
unicode = 174;
}
{
glyphname = degree;
layers = (
{
layerId = "DC4431BF-9234-4C16-9154-22D387E42D10";
shapes = (
{
closed = 1;
nodes = (
(142,514,o),
(174,545,o),
(174,583,cs),
(174,621,o),
(142,652,o),
(104,652,cs),
(66,652,o),
(35,621,o),
(35,583,cs),
(35,545,o),
(66,514,o),
(104,514,cs)
);
},
{
closed = 1;
nodes = (
(83,545,o),
(66,562,o),
(66,583,cs),
(66,605,o),
(83,622,o),
(104,622,cs),
(126,622,o),
(143,605,o),
(143,583,cs),
(143,562,o),
(126,545,o),
(104,545,cs)
);
}
);
width = 209;
},
{
layerId = "4EACF7E3-2421-4EEA-928B-7BA9BC4A845D";
shapes = (
{
closed = 1;
nodes = (
(214,468,o),
(266,520,o),
(266,583,cs),
(266,647,o),
(214,698,o),
(150,698,cs),
(87,698,o),
(35,647,o),
(35,583,cs),
(35,520,o),
(87,468,o),
(150,468,cs)
);
},
{
closed = 1;
nodes = (
(129,545,o),
(112,562,o),
(112,583,cs),
(112,605,o),
(129,622,o),
(150,622,cs),
(172,622,o),
(189,605,o),
(189,583,cs),
(189,562,o),
(172,545,o),
(150,545,cs)
);
}
);
width = 301;
}
);
unicode = 176;
}
{
glyphname = plusminus;
layers = (
{
layerId = "DC4431BF-9234-4C16-9154-22D387E42D10";
shapes = (
{
closed = 1;
nodes = (
(405,129,l),
(405,167,l),
(30,167,l),
(30,129,l)
);
},
{
pos = (15,161);
ref = plus;
}
);
width = 435;
},
{
layerId = "4EACF7E3-2421-4EEA-928B-7BA9BC4A845D";
shapes = (
{
closed = 1;
nodes = (
(402,40,l),
(402,167,l),
(26,167,l),
(26,40,l)
);
},
{
pos = (10,161);
ref = plus;
}
);
width = 427;
}
);
unicode = 177;
}
{
glyphname = twosuperior;
layers = (
{
layerId = "DC4431BF-9234-4C16-9154-22D387E42D10";
shapes = (
{
closed = 1;
nodes = (
(55,432,l),
(55,490,o),
(114,508,o),
(148,525,cs),
(178,541,o),
(211,566,o),
(211,613,cs),
(211,659,o),
(184,700,o),
(120,700,c),
(120,674,l),
(172,674,o),
(185,635,o),
(185,614,cs),
(185,582,o),
(164,565,o),
(134,549,cs),
(118,540,o),
(25,511,o),
(25,432,c)
);
},
{
closed = 1;
nodes = (
(205,387,l),
(205,413,l),
(25,413,l),
(25,387,l)
);
},
{
closed = 1;
nodes = (
(52,658,o),
(80,673,o),
(100,674,c),
(100,700,l),
(55,696,o),
(25,660,o),
(21,624,c),
(46,619,l)
);
}
);
width = 231;
},
{
layerId = "4EACF7E3-2421-4EEA-928B-7BA9BC4A845D";
shapes = (
{
closed = 1;
nodes = (
(89,475,l),
(89,495,o),
(118,508,o),
(149,530,cs),
(189,559,o),
(204,580,o),
(204,616,cs),
(204,662,o),
(177,705,o),
(115,705,c),
(115,646,l),
(130,646,o),
(145,636,o),
(145,619,cs),
(145,594,o),
(115,578,o),
(91,560,cs),
(64,539,o),
(17,515,o),
(17,475,c)
);
},
{
closed = 1;
nodes = (
(199,390,l),
(199,452,l),
(17,452,l),
(17,390,l)
);
},
{
closed = 1;
nodes = (
(62,639,o),
(83,646,o),
(90,646,c),
(90,705,l),
(46,705,o),
(8,665,o),
(8,624,c),
(62,614,l)
);
}
);
width = 223;
}
);
unicode = 178;
}
{
glyphname = threesuperior;
layers = (
{
layerId = "DC4431BF-9234-4C16-9154-22D387E42D10";
shapes = (
{
closed = 1;
nodes = (
(172,387,o),
(205,429,o),
(205,473,cs),
(205,501,o),
(197,526,o),
(171,543,c),
(197,561,o),
(205,588,o),
(205,615,cs),
(205,659,o),
(172,700,o),
(117,700,c),
(117,674,l),
(143,674,o),
(178,657,o),
(178,614,cs),
(178,589,o),
(158,556,o),
(115,556,c),
(115,531,l),
(158,531,o),
(178,499,o),
(178,474,cs),
(178,432,o),
(143,413,o),
(117,413,c),
(117,387,l)
);
},
{
closed = 1;
nodes = (
(94,413,l),
(76,414,o),
(51,429,o),
(45,468,c),
(20,463,l),
(24,428,o),
(49,391,o),
(94,387,c)
);
},
{
closed = 1;
nodes = (
(51,658,o),
(76,673,o),
(94,674,c),
(94,700,l),
(49,696,o),
(24,660,o),
(20,624,c),
(45,619,l)
);
}
);
width = 225;
},
{
layerId = "4EACF7E3-2421-4EEA-928B-7BA9BC4A845D";
shapes = (
{
closed = 1;
nodes = (
(158,387,o),
(214,410,o),
(214,476,cs),
(214,514,o),
(196,536,o),
(183,544,c),
(196,553,o),
(214,574,o),
(214,612,cs),
(214,679,o),
(158,702,o),
(122,702,c),
(122,643,l),
(137,642,o),
(155,635,o),
(155,609,cs),
(155,590,o),
(145,573,o),
(97,573,c),
(97,515,l),
(146,515,o),
(155,498,o),
(155,479,cs),
(155,453,o),
(137,447,o),
(122,445,c),
(122,387,l)
);
},
{
closed = 1;
nodes = (
(97,445,l),
(89,445,o),
(69,452,o),
(69,478,c),
(15,467,l),
(15,426,o),
(53,387,o),
(97,387,c)
);
},
{
closed = 1;
nodes = (
(69,636,o),
(89,642,o),
(97,643,c),
(97,702,l),
(53,702,o),
(15,662,o),
(15,621,c),
(69,611,l)
);
}
);
width = 232;
}
);
unicode = 179;
}
{
glyphname = acute;
layers = (
{
layerId = "DC4431BF-9234-4C16-9154-22D387E42D10";
shapes = (
{
closed = 1;
nodes = (
(143,605,l),
(192,757,l),
(152,757,l),
(115,605,l)
);
}
);
width = 308;
},
{
layerId = "4EACF7E3-2421-4EEA-928B-7BA9BC4A845D";
shapes = (
{
closed = 1;
nodes = (
(206,605,l),
(279,757,l),
(152,757,l),
(115,605,l)
);
}
);
width = 395;
}
);
unicode = 180;
}
{
glyphname = uni00B5;
layers = (
{
layerId = "DC4431BF-9234-4C16-9154-22D387E42D10";
shapes = (
{
closed = 1;
nodes = (
(75,0,l),
(75,257,l),
(87,250,o),
(131,220,o),
(201,220,c),
(201,258,l),
(137,258,o),
(75,286,o),
(75,316,cs),
(75,698,l),
(35,698,l),
(35,0,l)
);
},
{
closed = 1;
nodes = (
(300,220,o),
(349,236,o),
(376,257,c),
(392,234,o),
(408,222,o),
(451,222,c),
(451,261,l),
(413,261,o),
(409,280,o),
(409,315,cs),
(409,700,l),
(369,700,l),
(369,316,ls),
(369,285,o),
(306,258,o),
(243,258,c),
(243,220,l)
);
}
);
width = 491;
},
{
layerId = "4EACF7E3-2421-4EEA-928B-7BA9BC4A845D";
shapes = (
{
closed = 1;
nodes = (
(172,0,l),
(172,183,l),
(186,180,o),
(199,179,o),
(214,179,c),
(214,300,l),
(181,300,o),
(172,313,o),
(172,326,cs),
(172,698,l),
(48,698,l),
(48,0,l)
);
},
{
closed = 1;
nodes = (
(300,179,o),
(333,192,o),
(361,213,c),
(388,193,o),
(421,181,o),
(464,181,c),
(464,302,l),
(428,302,o),
(422,319,o),
(422,328,cs),
(422,700,l),
(298,700,l),
(298,326,ls),
(298,313,o),
(289,300,o),
(256,300,c),
(256,179,l)
);
}
);
width = 503;
}
);
unicode = 181;
}
{
glyphname = paragraph;
layers = (
{
layerId = "DC4431BF-9234-4C16-9154-22D387E42D10";
shapes = (
{
closed = 1;
nodes = (
(234,-5,l),
(234,705,l),
(204,705,ls),
(102,705,o),
(35,617,o),
(35,517,cs),
(35,403,o),
(100,329,o),
(204,329,c),
(204,-5,l)
);
},
{
closed = 1;
nodes = (
(309,-5,l),
(309,705,l),
(279,705,l),
(279,-5,l)
);
}
);
width = 363;
},
{
layerId = "4EACF7E3-2421-4EEA-928B-7BA9BC4A845D";
shapes = (
{
closed = 1;
nodes = (
(287,-5,l),
(287,705,l),
(204,705,ls),
(102,705,o),
(35,619,o),
(35,511,cs),
(35,405,o),
(100,329,o),
(204,329,c),
(204,-5,l)
);
},
{
closed = 1;
nodes = (
(427,-5,l),
(427,705,l),
(344,705,l),
(344,-5,l)
);
}
);
width = 481;
}
);
unicode = 182;
}
{
glyphname = cedilla;
layers = (
{
layerId = "DC4431BF-9234-4C16-9154-22D387E42D10";
shapes = (
{
closed = 1;
nodes = (
(224,-9,o),
(264,67,o),
(264,123,c),
(224,123,l),
(224,68,o),
(182,29,o),
(123,29,c),
(123,-9,l)
);
}
);
width = 399;
},
{
layerId = "4EACF7E3-2421-4EEA-928B-7BA9BC4A845D";
shapes = (
{
closed = 1;
nodes = (
(250,-36,o),
(291,47,o),
(291,123,c),
(199,123,l),
(199,68,o),
(159,55,o),
(123,55,c),
(123,-36,l)
);
}
);
width = 426;
}
);
unicode = 184;
}
{
glyphname = onesuperior;
layers = (
{
layerId = "DC4431BF-9234-4C16-9154-22D387E42D10";
shapes = (
{
closed = 1;
nodes = (
(53,386,l),
(53,699,l),
(27,699,l),
(9,684,l),
(9,665,l),
(27,665,l),
(27,386,l)
);
}
);
width = 102;
},
{
layerId = "4EACF7E3-2421-4EEA-928B-7BA9BC4A845D";
shapes = (
{
closed = 1;
nodes = (
(109,384,l),
(109,699,l),
(45,699,l),
(11,672,l),
(11,616,l),
(45,616,l),
(45,384,l)
);
}
);
width = 153;
}
);
unicode = 185;
}
{
glyphname = ordmasculine;
layers = (
{
layerId = "DC4431BF-9234-4C16-9154-22D387E42D10";
shapes = (
{
closed = 1;
nodes = (
(204,413,l),
(204,432,l),
(26,432,l),
(26,413,l)
);
},
{
pos = (21,471);
ref = o;
scale = (0.4436,0.4436);
}
);
width = 230;
},
{
layerId = "4EACF7E3-2421-4EEA-928B-7BA9BC4A845D";
shapes = (
{
closed = 1;
nodes = (
(204,361,l),
(204,432,l),
(26,432,l),
(26,361,l)
);
},
{
pos = (5,451);
ref = o;
scale = (0.45,0.45);
}
);
width = 230;
}
);
unicode = 186;
}
{
glyphname = guillemotright;
layers = (
{
layerId = "DC4431BF-9234-4C16-9154-22D387E42D10";
shapes = (
{
closed = 1;
nodes = (
(437,271,l),
(437,309,l),
(226,434,l),
(226,394,l),
(402,292,l),
(226,184,l),
(226,144,l)
);
},
{
closed = 1;
nodes = (
(226,271,l),
(226,309,l),
(15,434,l),
(15,394,l),
(191,292,l),
(15,184,l),
(15,144,l)
);
}
);
width = 457;
},
{
layerId = "4EACF7E3-2421-4EEA-928B-7BA9BC4A845D";
shapes = (
{
closed = 1;
nodes = (
(437,259,l),
(437,321,l),
(226,477,l),
(226,352,l),
(315,292,l),
(226,224,l),
(226,102,l)
);
},
{
closed = 1;
nodes = (
(226,259,l),
(226,321,l),
(15,477,l),
(15,352,l),
(104,292,l),
(15,224,l),
(15,102,l)
);
}
);
width = 457;
}
);
unicode = 187;
}
{
glyphname = onequarter;
layers = (
{
layerId = "DC4431BF-9234-4C16-9154-22D387E42D10";
shapes = (
{
closed = 1;
nodes = (
(36,0,l),
(468,700,l),
(432,700,l),
(0,0,l)
);
},
{
closed = 1;
nodes = (
(377,61,l),
(377,91,l),
(267,91,l),
(377,280,l),
(377,338,l),
(231,91,l),
(231,61,l)
);
},
{
closed = 1;
nodes = (
(430,0,l),
(430,61,l),
(457,61,l),
(457,91,l),
(430,91,l),
(430,350,l),
(399,350,l),
(399,0,l)
);
},
{
closed = 1;
nodes = (
(113,350,l),
(113,700,l),
(83,700,l),
(63,684,l),
(63,662,l),
(83,662,l),
(83,350,l)
);
}
);
width = 498;
},
{
layerId = "4EACF7E3-2421-4EEA-928B-7BA9BC4A845D";
shapes = (
{
closed = 1;
nodes = (
(83,0,l),
(508,700,l),
(432,700,l),
(0,0,l)
);
},
{
closed = 1;
nodes = (
(344,61,l),
(344,131,l),
(321,131,l),
(344,175,l),
(344,319,l),
(236,131,l),
(236,61,l)
);
},
{
closed = 1;
nodes = (
(452,0,l),
(452,61,l),
(479,61,l),
(479,131,l),
(452,131,l),
(452,351,l),
(372,351,l),
(372,0,l)
);
},
{
closed = 1;
nodes = (
(168,350,l),
(168,700,l),
(87,700,l),
(49,670,l),
(49,607,l),
(87,607,l),
(87,350,l)
);
}
);
width = 508;
}
);
unicode = 188;
}
{
glyphname = onehalf;
layers = (
{
layerId = "DC4431BF-9234-4C16-9154-22D387E42D10";
shapes = (
{
closed = 1;
nodes = (
(113,350,l),
(113,700,l),
(83,700,l),
(63,684,l),
(63,662,l),
(83,662,l),
(83,350,l)
);
},
{
closed = 1;
nodes = (
(36,0,l),
(468,700,l),
(432,700,l),
(0,0,l)
);
},
{
closed = 1;
nodes = (
(334,303,o),
(365,321,o),
(387,321,c),
(387,351,l),
(334,347,o),
(304,303,o),
(299,261,c),
(328,254,l)
);
},
{
closed = 1;
nodes = (
(339,51,l),
(339,121,o),
(419,137,o),
(456,156,cs),
(490,173,o),
(514,198,o),
(514,248,cs),
(514,301,o),
(489,351,o),
(410,351,c),
(410,321,l),
(466,321,o),
(484,291,o),
(484,248,cs),
(484,205,o),
(459,188,o),
(431,174,cs),
(413,165,o),
(309,140,o),
(309,51,c)
);
},
{
closed = 1;
nodes = (
(511,0,l),
(511,30,l),
(309,30,l),
(309,0,l)
);
}
);
width = 554;
},
{
layerId = "4EACF7E3-2421-4EEA-928B-7BA9BC4A845D";
shapes = (
{
closed = 1;
nodes = (
(168,350,l),
(168,700,l),
(87,700,l),
(49,670,l),
(49,607,l),
(87,607,l),
(87,350,l)
);
},
{
closed = 1;
nodes = (
(83,0,l),
(508,700,l),
(432,700,l),
(0,0,l)
);
},
{
closed = 1;
nodes = (
(377,264,o),
(400,272,o),
(411,273,c),
(411,350,l),
(362,350,o),
(306,309,o),
(306,248,c),
(377,235,l)
);
},
{
closed = 1;
nodes = (
(403,101,l),
(403,117,o),
(440,127,o),
(478,145,cs),
(515,163,o),
(552,187,o),
(552,243,cs),
(552,305,o),
(507.997,350,o),
(439,350,c),
(439,273,l),
(458,272,o),
(472,260,o),
(472,241,cs),
(472,211,o),
(436,202,o),
(389,181,cs),
(348,163,o),
(306,142,o),
(306,101,c)
);
},
{
closed = 1;
nodes = (
(542,0,l),
(542,75,l),
(306,75,l),
(306,0,l)
);
}
);
width = 582;
}
);
unicode = 189;
}
{
glyphname = threequarters;
layers = (
{
layerId = "DC4431BF-9234-4C16-9154-22D387E42D10";
shapes = (
{
closed = 1;
nodes = (
(75,652,o),
(106,670,o),
(128,670,c),
(128,700,l),
(75,696,o),
(44,652,o),
(40,610,c),
(69,603,l)
);
},
{
closed = 1;
nodes = (
(220,345,o),
(254,390,o),
(254,442,cs),
(254,475,o),
(245,502,o),
(214,523,c),
(245,543,o),
(254,570,o),
(254,603,cs),
(254,655,o),
(220,700,o),
(155,700,c),
(155,670,l),
(202,670,o),
(224,642,o),
(224,602,cs),
(224,593,o),
(222,536,o),
(153,536,cs),
(143,536,l),
(143,509,l),
(153,509,ls),
(222,509,o),
(224,452,o),
(224,443,cs),
(224,403,o),
(202,375,o),
(155,375,c),
(155,345,l)
);
},
{
closed = 1;
nodes = (
(128,375,l),
(106,375,o),
(75,393,o),
(69,442,c),
(40,435,l),
(44,393,o),
(75,350,o),
(128,345,c)
);
},
{
closed = 1;
nodes = (
(162,0,l),
(594,700,l),
(558,700,l),
(126,0,l)
);
},
{
closed = 1;
nodes = (
(503,61,l),
(503,91,l),
(393,91,l),
(503,280,l),
(503,338,l),
(357,91,l),
(357,61,l)
);
},
{
closed = 1;
nodes = (
(556,0,l),
(556,61,l),
(583,61,l),
(583,91,l),
(556,91,l),
(556,350,l),
(525,350,l),
(525,0,l)
);
}
);
width = 624;
},
{
layerId = "4EACF7E3-2421-4EEA-928B-7BA9BC4A845D";
shapes = (
{
closed = 1;
nodes = (
(102,614,o),
(125,622,o),
(136,623,c),
(136,700,l),
(87,700,o),
(31,659,o),
(31,598,c),
(102,585,l)
);
},
{
closed = 1;
nodes = (
(203,351,o),
(266,383,o),
(266,453,cs),
(266,493,o),
(245,518,o),
(232,526,c),
(246,535,o),
(266,559,o),
(266,598,cs),
(266,668,o),
(204,700,o),
(164,700,c),
(164,623,l),
(181,623,o),
(191,609,o),
(191,594,cs),
(191,578,o),
(179,561,o),
(154,561,cs),
(136,561,l),
(136,490,l),
(154,490,ls),
(180,490,o),
(191,473,o),
(191,457,cs),
(191,443,o),
(181,428,o),
(164,428,c),
(164,351,l)
);
},
{
closed = 1;
nodes = (
(136,427,l),
(125,428,o),
(102,437,o),
(102,465,c),
(31,452,l),
(31,392,o),
(87,350,o),
(136,350,c)
);
},
{
closed = 1;
nodes = (
(150,0,l),
(575,700,l),
(499,700,l),
(67,0,l)
);
},
{
closed = 1;
nodes = (
(411,61,l),
(411,131,l),
(388,131,l),
(411,175,l),
(411,319,l),
(303,131,l),
(303,61,l)
);
},
{
closed = 1;
nodes = (
(519,0,l),
(519,61,l),
(546,61,l),
(546,131,l),
(519,131,l),
(519,351,l),
(439,351,l),
(439,0,l)
);
}
);
width = 575;
}
);
unicode = 190;
}
{
glyphname = Aring;
layers = (
{
layerId = "DC4431BF-9234-4C16-9154-22D387E42D10";
shapes = (
{
closed = 1;
nodes = (
(443,0,l),
(292,696,l),
(321,706,o),
(341,733,o),
(341,765,cs),
(341,805,o),
(308,837,o),
(268,837,cs),
(228,837,o),
(196,805,o),
(196,765,cs),
(196,731,o),
(220,701,o),
(252,694,c),
(366,173,l),
(196,173,l),
(188,135,l),
(375,135,l),
(403,0,l)
);
},
{
closed = 1;
nodes = (
(114,0,l),
(238,554,l),
(228,599,l),
(211,599,l),
(74,0,l)
);
},
{
closed = 1;
nodes = (
(247,727,o),
(230,744,o),
(230,765,cs),
(230,787,o),
(247,804,o),
(268,804,cs),
(290,804,o),
(307,787,o),
(307,765,cs),
(307,744,o),
(290,727,o),
(268,727,cs)
);
}
);
width = 516;
},
{
layerId = "4EACF7E3-2421-4EEA-928B-7BA9BC4A845D";
shapes = (
{
closed = 1;
nodes = (
(490,0,l),
(339,699,l),
(356,716,o),
(365,739,o),
(365,765,cs),
(365,818,o),
(322,861,o),
(269,861,cs),
(216,861,o),
(173,818,o),
(173,765,cs),
(173,739,o),
(183,715,o),
(200,698,c),
(305,223,l),
(269,223,l),
(239,85,l),
(333,85,l),
(353,0,l)
);
},
{
closed = 1;
nodes = (
(164,0,l),
(230,302,l),
(170,582,l),
(155,582,l),
(26,0,l)
);
},
{
closed = 1;
nodes = (
(251,733,o),
(237,747,o),
(237,765,cs),
(237,783,o),
(251,797,o),
(269,797,cs),
(287,797,o),
(301,783,o),
(301,765,cs),
(301,747,o),
(287,733,o),
(269,733,cs)
);
}
);
width = 516;
}
);
unicode = 197;
}
{
glyphname = AE;
layers = (
{
layerId = "DC4431BF-9234-4C16-9154-22D387E42D10";
shapes = (
{
closed = 1;
nodes = (
(125,0,l),
(293,661,l),
(387,661,l),
(387,228,l),
(228,228,l),
(218,188,l),
(387,188,l),
(387,0,l),
(701,0,l),
(701,38,l),
(427,38,l),
(427,329,l),
(607,329,l),
(607,367,l),
(427,367,l),
(427,661,l),
(701,661,l),
(701,700,l),
(261,700,l),
(81,0,l)
);
}
);
width = 727;
},
{
layerId = "4EACF7E3-2421-4EEA-928B-7BA9BC4A845D";
shapes = (
{
closed = 1;
nodes = (
(182,0,l),
(320,560,l),
(337,560,l),
(337,268,l),
(301,268,l),
(272,148,l),
(337,148,l),
(337,0,l),
(701,0,l),
(701,141,l),
(478,141,l),
(478,277,l),
(607,277,l),
(607,418,l),
(478,418,l),
(478,560,l),
(701,560,l),
(701,700,l),
(206,700,l),
(26,0,l)
);
}
);
width = 727;
}
);
unicode = 198;
}
{
glyphname = Eth;
layers = (
{
layerId = "DC4431BF-9234-4C16-9154-22D387E42D10";
shapes = (
{
closed = 1;
nodes = (
(122,0,l),
(122,335,l),
(178,335,l),
(178,373,l),
(122,373,l),
(122,700,l),
(82,700,l),
(82,373,l),
(26,373,l),
(26,335,l),
(82,335,l),
(82,0,l)
);
},
{
closed = 1;
nodes = (
(327,0,o),
(474,0,o),
(474,197,cs),
(474,503,ls),
(474,706,o),
(321,700,o),
(167,700,c),
(167,662,l),
(303,662,o),
(434,669,o),
(434,503,cs),
(434,197,ls),
(434,41,o),
(310,38,o),
(167,38,c),
(167,0,l)
);
}
);
width = 504;
},
{
layerId = "4EACF7E3-2421-4EEA-928B-7BA9BC4A845D";
shapes = (
{
closed = 1;
nodes = (
(224,0,l),
(224,292,l),
(280,292,l),
(280,420,l),
(224,420,l),
(224,700,l),
(83,700,l),
(83,420,l),
(26,420,l),
(26,292,l),
(83,292,l),
(83,0,l)
);
},
{
closed = 1;
nodes = (
(338,0,o),
(475,50,o),
(475,197,cs),
(475,503,ls),
(475,566,o),
(421,700,o),
(278,700,c),
(278,559,l),
(326,558,o),
(334,508,o),
(334,503,cs),
(334,197,ls),
(334,149,o),
(284,141,o),
(278,141,c),
(278,0,l)
);
}
);
width = 501;
}
);
unicode = 208;
}
{
glyphname = multiply;
layers = (
{
layerId = "DC4431BF-9234-4C16-9154-22D387E42D10";
shapes = (
{
closed = 1;
nodes = (
(330,388,l),
(520,197,l),
(549,227,l),
(360,417,l),
(549,606,l),
(520,636,l),
(330,447,l),
(142,635,l),
(113,605,l),
(300,417,l),
(112,229,l),
(141,199,l)
);
}
);
width = 661;
},
{
layerId = "4EACF7E3-2421-4EEA-928B-7BA9BC4A845D";
shapes = (
{
closed = 1;
nodes = (
(349,328,l),
(507,170,l),
(597,259,l),
(438,418,l),
(597,577,l),
(508,666,l),
(349,507,l),
(189,667,l),
(100,578,l),
(260,417,l),
(101,257,l),
(190,168,l)
);
}
);
width = 697;
}
);
unicode = 215;
}
{
glyphname = Oslash;
layers = (
{
layerId = "DC4431BF-9234-4C16-9154-22D387E42D10";
shapes = (
{
closed = 1;
nodes = (
(304,34,l),
(256,34,o),
(169,81,o),
(151,164,c),
(516,492,l),
(516,195,ls),
(516,90,o),
(415,34,o),
(359,34,c),
(359,-5,l),
(419,-5,o),
(556,51,o),
(556,195,cs),
(556,528,l),
(636,600,l),
(610,627,l),
(546,570,l),
(523,631,o),
(461,705,o),
(359,705,c),
(359,666,l),
(443,666,o),
(497,598,o),
(512,539,c),
(148,212,l),
(148,508,ls),
(148,566,o),
(207,666,o),
(305,666,c),
(305,705,l),
(173,705,o),
(108,584,o),
(108,524,cs),
(108,177,l),
(24,100,l),
(51,74,l),
(117,134,l),
(149,35,o),
(253,-5,o),
(304,-5,c)
);
}
);
width = 674;
},
{
layerId = "4EACF7E3-2421-4EEA-928B-7BA9BC4A845D";
shapes = (
{
closed = 1;
nodes = (
(304,137,l),
(298,137,o),
(249,150,o),
(249,197,c),
(415,347,l),
(415,195,ls),
(415,149,o),
(364,137,o),
(359,137,c),
(359,-5,l),
(419,-5,o),
(556,51,o),
(556,195,cs),
(556,474,l),
(662,570,l),
(584,658,l),
(528,607,l),
(497,658,o),
(441,705,o),
(359,705,c),
(359,564,l),
(407,563,o),
(415,523,o),
(415,505,c),
(249,356,l),
(249,502,ls),
(249,520,o),
(259,563,o),
(305,564,c),
(305,705,l),
(173,705,o),
(108,584,o),
(108,524,cs),
(108,228,l),
(0,131,l),
(78,43,l),
(135,94,l),
(178,24,o),
(261,-5,o),
(304,-5,c)
);
}
);
width = 662;
}
);
unicode = 216;
}
{
glyphname = Thorn;
layers = (
{
layerId = "DC4431BF-9234-4C16-9154-22D387E42D10";
shapes = (
{
closed = 1;
nodes = (
(116,0,l),
(116,700,l),
(76,700,l),
(76,0,l)
);
},
{
closed = 1;
nodes = (
(344,197,o),
(450,238,o),
(448,398,cs),
(446,548,o),
(376,597,o),
(167,590,c),
(167,552,l),
(208,552,ls),
(308,552,o),
(408,531,o),
(408,398,cs),
(408,264,o),
(304,246,o),
(210,246,cs),
(167,246,l),
(167,208,l)
);
}
);
width = 474;
},
{
layerId = "4EACF7E3-2421-4EEA-928B-7BA9BC4A845D";
shapes = (
{
closed = 1;
nodes = (
(167,0,l),
(167,700,l),
(26,700,l),
(26,0,l)
);
},
{
closed = 1;
nodes = (
(378,208,o),
(448,259,o),
(448,402,cs),
(448,516,o),
(402,590,o),
(221,590,c),
(221,451,l),
(254,451,ls),
(259,451,o),
(305,451,o),
(305,399,cs),
(305,348,o),
(261,347,o),
(254,347,cs),
(221,347,l),
(221,208,l)
);
}
);
width = 474;
}
);
unicode = 222;
}
{
glyphname = germandbls;
layers = (
{
layerId = "DC4431BF-9234-4C16-9154-22D387E42D10";
shapes = (
{
closed = 1;
nodes = (
(66,0,l),
(66,498,ls),
(66,554,o),
(78,667,o),
(226,667,cs),
(382,667,o),
(366,554,o),
(366,456,cs),
(366,444,l),
(320,447,o),
(265,432,o),
(265,371,cs),
(265,296,o),
(338,285,o),
(386,261,cs),
(441,233,o),
(458,222,o),
(458,153,cs),
(458,64,o),
(376,38,o),
(299,38,cs),
(199,38,l),
(199,0,l),
(327,0,ls),
(420,0,o),
(496,60,o),
(496,153,cs),
(496,247,o),
(441,282,o),
(391,299,cs),
(310,326,o),
(305,349,o),
(305,371,cs),
(305,386,o),
(322,407,o),
(355,406,cs),
(406,406,l),
(406,518,ls),
(406,575,o),
(396,705,o),
(226,705,cs),
(16,705,o),
(27,531,o),
(26,457,cs),
(26,0,l)
);
}
);
width = 522;
},
{
layerId = "4EACF7E3-2421-4EEA-928B-7BA9BC4A845D";
shapes = (
{
closed = 1;
nodes = (
(155,0,l),
(155,498,ls),
(155,554,o),
(174,586,o),
(225,586,cs),
(259,586,o),
(294,572,o),
(294,519,cs),
(294,507,l),
(237,485,o),
(191,446,o),
(191,364,cs),
(191,290,o),
(228,252,o),
(276,228,cs),
(331,200,o),
(379,197,o),
(379,155,cs),
(379,119,o),
(342,110,o),
(327,110,cs),
(199,110,l),
(199,0,l),
(327,0,ls),
(420,0,o),
(496,58,o),
(496,159,cs),
(496,244,o),
(441,282,o),
(391,299,cs),
(310,326,o),
(305,349,o),
(305,361,cs),
(305,368,o),
(308,400,o),
(342,406,c),
(406,405,l),
(406,518,ls),
(406,561,o),
(406,705,o),
(222,705,cs),
(12,705,o),
(27,517,o),
(27,457,cs),
(27,0,l)
);
}
);
width = 522;
}
);
unicode = 223;
}
{
glyphname = ae;
layers = (
{
layerId = "DC4431BF-9234-4C16-9154-22D387E42D10";
shapes = (
{
closed = 1;
nodes = (
(633,0,o),
(694,45,o),
(716,120,c),
(679,133,l),
(662,75,o),
(603,36,o),
(532,36,cs),
(460,36,o),
(384,82,o),
(384,141,cs),
(384,247,l),
(715,247,l),
(715,378,ls),
(715,453,o),
(628,516,o),
(552,516,c),
(552,480,l),
(613,480,o),
(675,428,o),
(675,369,cs),
(675,285,l),
(384,285,l),
(384,359,ls),
(384,414,o),
(435,478,o),
(507,478,c),
(507,516,l),
(438,516,o),
(390,478,o),
(365,438,c),
(333,494,o),
(274,520,o),
(205,520,cs),
(121,520,o),
(32,478,o),
(33,389,c),
(70,375,l),
(70,453,o),
(136,483,o),
(203,483,cs),
(279,483,o),
(343,436,o),
(343,382,cs),
(343,363,ls),
(343,288,o),
(26,317,o),
(26,157,cs),
(26,121,ls),
(26,64,o),
(85,1,o),
(182,1,c),
(182,39,l),
(125,39,o),
(67,66,o),
(67,142,cs),
(67,162,ls),
(66,266,o),
(304,264,o),
(343,308,c),
(343,149,ls),
(343,52,o),
(284,39,o),
(227,39,c),
(227,1,l),
(290,0,o),
(340,19,o),
(371,73,c),
(397,28,o),
(455,0,o),
(530,0,cs)
);
}
);
width = 435;
},
{
layerId = "4EACF7E3-2421-4EEA-928B-7BA9BC4A845D";
shapes = (
{
closed = 1;
nodes = (
(547,0,o),
(620,40,o),
(640,120,c),
(541,157,l),
(533,117,o),
(497,108,o),
(461,108,cs),
(409,108,o),
(384,126,o),
(384,159,cs),
(384,208,l),
(639,208,l),
(639,378,ls),
(639,453,o),
(552,516,o),
(478,516,c),
(478,401,l),
(500,401,o),
(525,387,o),
(525,359,cs),
(525,324,l),
(384,324,l),
(384,363,ls),
(384,381,o),
(401,401,o),
(429,401,c),
(429,516,l),
(387,516,o),
(355,503,o),
(329,483,c),
(299,506,o),
(258,519,o),
(214,519,cs),
(115,519,o),
(43,454,o),
(43,375,c),
(138,349,l),
(138,392,o),
(176,411,o),
(211,411,cs),
(241,411,o),
(268,395,o),
(268,373,cs),
(268,351,ls),
(268,283,o),
(26,289,o),
(26,180,cs),
(26,110,ls),
(26,53,o),
(83,1,o),
(180,1,c),
(180,113,l),
(145,113,o),
(127,120,o),
(127,149,cs),
(127,162,ls),
(127,198,o),
(221,200,o),
(268,227,c),
(268,149,ls),
(268,145,o),
(261,113,o),
(229,113,c),
(229,1,l),
(267,1,o),
(302,15,o),
(321,40,c),
(351,13,o),
(397,0,o),
(451,0,cs)
);
}
);
width = 666;
}
);
unicode = 230;
}
{
glyphname = eth;
layers = (
{
layerId = "DC4431BF-9234-4C16-9154-22D387E42D10";
shapes = (
{
closed = 1;
nodes = (
(341,-1,o),
(392,92,o),
(392,141,cs),
(392,436,ls),
(392,506,o),
(380,558,o),
(359,598,c),
(408,613,l),
(397,649,l),
(338,632,l),
(298,683,o),
(242,705,o),
(192,714,c),
(192,686,l),
(221,675,o),
(265,658,o),
(298,620,c),
(244,604,l),
(255,567,l),
(320,587,l),
(336,558,o),
(347,520,o),
(347,471,c),
(321,497,o),
(283,516,o),
(233,516,c),
(233,478,l),
(303,478,o),
(351,418,o),
(351,373,cs),
(352,152,ls),
(352,108,o),
(308,37,o),
(233,37,c),
(233,-1,l)
);
},
{
closed = 1;
nodes = (
(192,37,l),
(119,37,o),
(68,111,o),
(68,154,cs),
(68,363,ls),
(68,410,o),
(112,478,o),
(192,478,c),
(192,516,l),
(82,516,o),
(28,425,o),
(28,376,cs),
(28,141,ls),
(28,93,o),
(80,-1,o),
(192,-1,c)
);
}
);
width = 420;
},
{
layerId = "4EACF7E3-2421-4EEA-928B-7BA9BC4A845D";
shapes = (
{
closed = 1;
nodes = (
(341,-1,o),
(392,92,o),
(392,141,cs),
(392,442,ls),
(392,500,o),
(383,548,o),
(364,588,c),
(398,599,l),
(380,657,l),
(330,641,l),
(297,679,o),
(250,703,o),
(192,714,c),
(192,647,l),
(214,637,o),
(230,627,o),
(242,614,c),
(192,598,l),
(210,541,l),
(267,558,l),
(270,545,o),
(271,530,o),
(273,512,c),
(260,516,o),
(248,516,o),
(233,516,c),
(233,398,l),
(266,398,o),
(275,384,o),
(275,363,cs),
(275,152,ls),
(275,138,o),
(267,117,o),
(233,117,c),
(233,-1,l)
);
},
{
closed = 1;
nodes = (
(192,117,l),
(159,117,o),
(148,131,o),
(148,154,cs),
(148,363,ls),
(148,377,o),
(156,398,o),
(192,398,c),
(192,516,l),
(82,516,o),
(28,425,o),
(28,376,cs),
(28,141,ls),
(28,93,o),
(80,-1,o),
(192,-1,c)
);
}
);
width = 420;
}
);
unicode = 240;
}
{
glyphname = divide;
layers = (
{
layerId = "DC4431BF-9234-4C16-9154-22D387E42D10";
shapes = (
{
closed = 1;
nodes = (
(550,273,l),
(550,311,l),
(100,311,l),
(100,273,l)
);
},
{
pos = (255,376);
ref = period;
},
{
pos = (255,139);
ref = period;
}
);
width = 650;
},
{
layerId = "4EACF7E3-2421-4EEA-928B-7BA9BC4A845D";
shapes = (
{
closed = 1;
nodes = (
(518,228,l),
(518,355,l),
(68,355,l),
(68,228,l)
);
},
{
pos = (196,415);
ref = period;
},
{
pos = (196,62);
ref = period;
}
);
width = 650;
}
);
unicode = 247;
}
{
glyphname = oslash;
layers = (
{
layerId = "DC4431BF-9234-4C16-9154-22D387E42D10";
shapes = (
{
closed = 1;
nodes = (
(230,37,l),
(179,37,o),
(139,73,o),
(119,110,c),
(390,358,l),
(390,152,ls),
(390,108,o),
(346,37,o),
(271,37,c),
(271,-1,l),
(379,-1,o),
(430,92,o),
(430,141,cs),
(430,376,ls),
(430,381,o),
(429,387,o),
(428,393,c),
(486,446,l),
(459,475,l),
(413,434,l),
(390,476,o),
(343,516,o),
(271,516,c),
(271,478,l),
(325,478,o),
(363,441,o),
(380,404,c),
(106,152,l),
(106,363,ls),
(106,410,o),
(150,478,o),
(230,478,c),
(230,516,l),
(120,516,o),
(66,425,o),
(66,376,cs),
(66,141,ls),
(66,134,o),
(67,126,o),
(69,118,c),
(14,68,l),
(41,38,l),
(86,79,l),
(110,38,o),
(158,-1,o),
(230,-1,c)
);
}
);
width = 516;
},
{
layerId = "4EACF7E3-2421-4EEA-928B-7BA9BC4A845D";
shapes = (
{
closed = 1;
nodes = (
(231,117,l),
(203,117,o),
(190,127,o),
(188,145,c),
(314,261,l),
(314,152,ls),
(314,138,o),
(306,117,o),
(272,117,c),
(272,-1,l),
(380,-1,o),
(431,92,o),
(431,141,cs),
(431,351,l),
(431,357,o),
(431,363,o),
(431,369,c),
(498,430,l),
(445,490,l),
(402,451,l),
(376,488,o),
(334,516,o),
(272,516,c),
(272,398,l),
(301,398,o),
(312,387,o),
(314,370,c),
(187,253,l),
(187,363,ls),
(187,377,o),
(195,398,o),
(231,398,c),
(231,516,l),
(121,516,o),
(67,425,o),
(67,376,cs),
(67,161,l),
(67,155,o),
(67,149,o),
(67,143,c),
(0,82,l),
(53,22,l),
(98,63,l),
(125,27,o),
(167,-1,o),
(231,-1,c)
);
}
);
width = 498;
}
);
unicode = 248;
}
{
glyphname = thorn;
layers = (
{
layerId = "DC4431BF-9234-4C16-9154-22D387E42D10";
shapes = (
{
closed = 1;
nodes = (
(70,-182,l),
(70,700,l),
(30,700,l),
(30,-182,l)
);
},
{
closed = 1;
nodes = (
(232,0,ls),
(345,0,o),
(396,86,o),
(396,139,cs),
(396,375,ls),
(396,431,o),
(335,516,o),
(228,516,cs),
(115,516,l),
(115,478,l),
(228,478,ls),
(300,478,o),
(356,434,o),
(356,364,cs),
(356,158,ls),
(356,76,o),
(294,38,o),
(234,38,cs),
(122,38,l),
(122,0,l)
);
}
);
width = 422;
},
{
layerId = "4EACF7E3-2421-4EEA-928B-7BA9BC4A845D";
shapes = (
{
closed = 1;
nodes = (
(155,-182,l),
(155,700,l),
(30,700,l),
(30,-182,l)
);
},
{
closed = 1;
nodes = (
(232,0,ls),
(345,0,o),
(396,86,o),
(396,139,cs),
(396,378,ls),
(396,434,o),
(335,519,o),
(228,519,cs),
(196,519,l),
(196,401,l),
(228,401,ls),
(258,401,o),
(276,388,o),
(276,375,cs),
(276,143,ls),
(276,134,o),
(271,119,o),
(234,119,cs),
(203,119,l),
(203,0,l)
);
}
);
width = 422;
}
);
unicode = 254;
}
{
glyphname = dcroat;
layers = (
{
layerId = "DC4431BF-9234-4C16-9154-22D387E42D10";
shapes = (
{
closed = 1;
nodes = (
(384,0,l),
(384,587,l),
(448,587,l),
(448,625,l),
(384,625,l),
(384,699,l),
(344,699,l),
(344,625,l),
(280,625,l),
(280,587,l),
(344,587,l),
(344,0,l)
);
},
{
closed = 1;
nodes = (
(299,0,l),
(299,38,l),
(181,38,ls),
(133,38,o),
(66,86,o),
(66,143,cs),
(66,373,ls),
(66,426,o),
(126,478,o),
(181,478,cs),
(299,478,l),
(299,516,l),
(180,516,ls),
(98,516,o),
(26,446,o),
(26,377,cs),
(26,141,ls),
(26,92,o),
(77,0,o),
(183,0,cs)
);
}
);
width = 414;
},
{
layerId = "4EACF7E3-2421-4EEA-928B-7BA9BC4A845D";
shapes = (
{
closed = 1;
nodes = (
(384,0,l),
(384,570,l),
(448,570,l),
(448,666,l),
(384,666,l),
(384,716,l),
(258,716,l),
(258,666,l),
(174,666,l),
(174,570,l),
(258,570,l),
(258,0,l)
);
},
{
closed = 1;
nodes = (
(210,0,l),
(210,118,l),
(182,118,ls),
(154,118,o),
(148,141,o),
(148,143,cs),
(148,373,ls),
(148,375,o),
(153,398,o),
(180,398,cs),
(210,398,l),
(210,516,l),
(180,516,ls),
(79,516,o),
(31,422,o),
(31,377,cs),
(31,141,ls),
(31,97,o),
(78,0,o),
(182,0,cs)
);
}
);
width = 414;
}
);
unicode = 273;
}
{
glyphname = dotlessi;
layers = (
{
layerId = "DC4431BF-9234-4C16-9154-22D387E42D10";
shapes = (
{
closed = 1;
nodes = (
(108,0,l),
(108,516,l),
(68,516,l),
(68,0,l)
);
}
);
width = 174;
},
{
layerId = "4EACF7E3-2421-4EEA-928B-7BA9BC4A845D";
shapes = (
{
closed = 1;
nodes = (
(148,0,l),
(148,516,l),
(26,516,l),
(26,0,l)
);
}
);
width = 174;
}
);
unicode = 305;
}
{
glyphname = Lslash;
layers = (
{
layerId = "DC4431BF-9234-4C16-9154-22D387E42D10";
shapes = (
{
closed = 1;
nodes = (
(505,0,l),
(505,38,l),
(169,38,l),
(169,311,l),
(262,382,l),
(237,414,l),
(169,361,l),
(169,700,l),
(129,700,l),
(129,331,l),
(51,271,l),
(76,239,l),
(129,280,l),
(129,0,l)
);
}
);
width = 428;
},
{
layerId = "4EACF7E3-2421-4EEA-928B-7BA9BC4A845D";
shapes = (
{
closed = 1;
nodes = (
(505,0,l),
(505,139,l),
(270,139,l),
(270,343,l),
(420,460,l),
(348,553,l),
(270,492,l),
(270,700,l),
(129,700,l),
(129,382,l),
(26,302,l),
(98,209,l),
(129,233,l),
(129,0,l)
);
}
);
width = 530;
}
);
unicode = 321;
}
{
glyphname = lslash;
layers = (
{
layerId = "DC4431BF-9234-4C16-9154-22D387E42D10";
shapes = (
{
closed = 1;
nodes = (
(318,428,l),
(293,460,l),
(107,317,l),
(132,285,l)
);
},
{
closed = 1;
nodes = (
(231,0,l),
(231,698,l),
(191,698,l),
(191,0,l)
);
}
);
width = 424;
},
{
layerId = "4EACF7E3-2421-4EEA-928B-7BA9BC4A845D";
shapes = (
{
closed = 1;
nodes = (
(412,443,l),
(340,536,l),
(40,302,l),
(112,209,l)
);
},
{
closed = 1;
nodes = (
(303,-9,l),
(303,707,l),
(159,707,l),
(159,-9,l)
);
}
);
width = 424;
}
);
unicode = 322;
}
{
glyphname = OE;
layers = (
{
layerId = "DC4431BF-9234-4C16-9154-22D387E42D10";
shapes = (
{
closed = 1;
nodes = (
(698,0,l),
(698,38,l),
(374,38,l),
(374,330,l),
(604,330,l),
(604,368,l),
(374,368,l),
(374,662,l),
(698,662,l),
(698,700,l),
(303,700,l),
(303,662,l),
(334,662,l),
(334,38,l),
(303,38,l),
(303,0,l)
);
},
{
closed = 1;
nodes = (
(258,38,l),
(115,38,o),
(13,41,o),
(13,197,cs),
(13,503,ls),
(13,669,o),
(122,662,o),
(258,662,c),
(258,700,l),
(104,700,o),
(-27,706,o),
(-27,503,cs),
(-27,197,ls),
(-27,0,o),
(98,0,o),
(258,0,c)
);
}
);
width = 422;
},
{
layerId = "4EACF7E3-2421-4EEA-928B-7BA9BC4A845D";
shapes = (
{
closed = 1;
nodes = (
(698,0,l),
(698,141,l),
(475,141,l),
(475,277,l),
(604,277,l),
(604,418,l),
(475,418,l),
(475,560,l),
(698,560,l),
(698,700,l),
(277,700,l),
(277,559,l),
(334,559,l),
(334,142,l),
(277,142,l),
(277,0,l)
);
},
{
closed = 1;
nodes = (
(222,142,l),
(217,142,o),
(167,154,o),
(167,200,cs),
(167,503,ls),
(167,508,o),
(177,558,o),
(223,559,c),
(223,700,l),
(91,700,o),
(26,579,o),
(26,519,cs),
(26,200,ls),
(26,56,o),
(162,0,o),
(222,0,c)
);
}
);
width = 724;
}
);
unicode = 338;
}
{
glyphname = oe;
layers = (
{
layerId = "DC4431BF-9234-4C16-9154-22D387E42D10";
shapes = (
{
closed = 1;
nodes = (
(305,-1,o),
(351,38,o),
(375,79,c),
(401,34,o),
(466,0,o),
(541,0,cs),
(644,0,o),
(705,45,o),
(727,120,c),
(690,133,l),
(673,75,o),
(614,36,o),
(543,36,cs),
(471,36,o),
(395,82,o),
(395,141,cs),
(395,247,l),
(726,247,l),
(726,378,ls),
(726,453,o),
(639,516,o),
(563,516,c),
(563,480,l),
(624,480,o),
(686,428,o),
(686,369,cs),
(686,285,l),
(395,285,l),
(395,359,ls),
(395,414,o),
(446,478,o),
(518,478,c),
(518,516,l),
(449,516,o),
(401,478,o),
(376,438,c),
(351,477,o),
(305,516,o),
(235,516,c),
(235,478,l),
(310,478,o),
(354,408,o),
(354,363,cs),
(354,152,ls),
(354,108,o),
(310,37,o),
(235,37,c),
(235,-1,l)
);
},
{
closed = 1;
nodes = (
(194,37,l),
(121,37,o),
(70,111,o),
(70,154,cs),
(70,363,ls),
(70,410,o),
(114,478,o),
(194,478,c),
(194,516,l),
(84,516,o),
(30,425,o),
(30,376,cs),
(30,141,ls),
(30,93,o),
(82,-1,o),
(194,-1,c)
);
}
);
width = 757;
},
{
layerId = "4EACF7E3-2421-4EEA-928B-7BA9BC4A845D";
shapes = (
{
closed = 1;
nodes = (
(282,-1,o),
(308,12,o),
(334,34,c),
(364,15,o),
(399,0,o),
(457,0,cs),
(549,0,o),
(623,40,o),
(643,120,c),
(544,157,l),
(536,117,o),
(500,108,o),
(464,108,cs),
(412,108,o),
(387,126,o),
(387,159,cs),
(387,208,l),
(642,208,l),
(642,378,ls),
(642,453,o),
(555,516,o),
(481,516,c),
(481,401,l),
(503,401,o),
(528,387,o),
(528,359,cs),
(528,324,l),
(387,324,l),
(387,363,ls),
(387,381,o),
(404,401,o),
(432,401,c),
(432,516,l),
(390,516,o),
(358,503,o),
(332,483,c),
(307,504,o),
(280,516,o),
(231,516,c),
(231,398,l),
(263,398,o),
(275,387,o),
(275,362,cs),
(275,150,ls),
(275,130,o),
(264,113,o),
(231,113,c),
(231,-1,l)
);
},
{
closed = 1;
nodes = (
(190,113,l),
(158,113,o),
(146,129,o),
(146,152,cs),
(146,363,ls),
(146,383,o),
(155,398,o),
(190,398,c),
(190,516,l),
(77,516,o),
(26,421,o),
(26,376,cs),
(26,141,ls),
(26,97,o),
(76,-1,o),
(190,-1,c)
);
}
);
width = 671;
}
);
unicode = 339;
}
{
glyphname = florin;
layers = (
{
layerId = "DC4431BF-9234-4C16-9154-22D387E42D10";
shapes = (
{
closed = 1;
nodes = (
(57,-168,ls),
(169,-168,o),
(181,-92,o),
(181,-30,cs),
(181,438,l),
(247,438,l),
(247,476,l),
(181,475,l),
(181,527,ls),
(181,608,o),
(220,658,o),
(320,658,cs),
(347,658,l),
(356,696,l),
(295,696,ls),
(192,695,o),
(141,606,o),
(141,535,cs),
(141,476,l),
(78,476,l),
(78,438,l),
(141,438,l),
(141,-43,ls),
(141,-86,o),
(126,-130,o),
(65,-130,cs),
(36,-130,l),
(26,-168,l)
);
}
);
width = 382;
},
{
layerId = "4EACF7E3-2421-4EEA-928B-7BA9BC4A845D";
shapes = (
{
closed = 1;
nodes = (
(109,-168,ls),
(221,-168,o),
(263,-92,o),
(263,-30,cs),
(263,400,l),
(329,400,l),
(329,516,l),
(263,515,l),
(263,552,ls),
(263,555,o),
(268,579,o),
(296,579,cs),
(329,579,l),
(356,696,l),
(295,696,ls),
(192,696,o),
(141,597,o),
(141,552,cs),
(141,516,l),
(78,516,l),
(78,400,l),
(141,400,l),
(141,-36,ls),
(141,-39,o),
(136,-63,o),
(108,-63,cs),
(53,-63,l),
(26,-168,l)
);
}
);
width = 382;
}
);
unicode = 402;
}
{
glyphname = circumflex;
layers = (
{
layerId = "DC4431BF-9234-4C16-9154-22D387E42D10";
shapes = (
{
closed = 1;
nodes = (
(79,514,l),
(134,627,l),
(190,514,l),
(226,514,l),
(150,666,l),
(118,666,l),
(43,514,l)
);
}
);
width = 270;
},
{
layerId = "4EACF7E3-2421-4EEA-928B-7BA9BC4A845D";
shapes = (
{
closed = 1;
nodes = (
(107,514,l),
(134,571,l),
(162,514,l),
(244,514,l),
(167,666,l),
(101,666,l),
(26,514,l)
);
}
);
width = 270;
}
);
unicode = 710;
}
{
glyphname = caron;
layers = (
{
layerId = "DC4431BF-9234-4C16-9154-22D387E42D10";
shapes = (
{
closed = 1;
nodes = (
(151,514,l),
(226,666,l),
(190,666,l),
(135,553,l),
(79,666,l),
(43,666,l),
(119,514,l)
);
}
);
width = 270;
},
{
layerId = "4EACF7E3-2421-4EEA-928B-7BA9BC4A845D";
shapes = (
{
closed = 1;
nodes = (
(167,514,l),
(244,666,l),
(162,666,l),
(134,609,l),
(107,666,l),
(26,666,l),
(101,514,l)
);
}
);
width = 270;
}
);
unicode = 711;
}
{
glyphname = uni02C9;
layers = (
{
layerId = "DC4431BF-9234-4C16-9154-22D387E42D10";
shapes = (
{
closed = 1;
nodes = (
(366,540,l),
(366,570,l),
(50,570,l),
(50,540,l)
);
}
);
width = 416;
},
{
layerId = "4EACF7E3-2421-4EEA-928B-7BA9BC4A845D";
shapes = (
{
closed = 1;
nodes = (
(366,514,l),
(366,596,l),
(50,596,l),
(50,514,l)
);
}
);
width = 416;
}
);
unicode = 713;
}
{
glyphname = breve;
layers = (
{
layerId = "DC4431BF-9234-4C16-9154-22D387E42D10";
shapes = (
{
closed = 1;
nodes = (
(166,464,o),
(186,505,o),
(186,526,c),
(154,526,l),
(154,508,o),
(140,494,o),
(122,494,cs),
(104,494,o),
(90,508,o),
(90,526,c),
(58,526,l),
(58,505,o),
(78,464,o),
(122,464,cs)
);
}
);
width = 244;
},
{
layerId = "4EACF7E3-2421-4EEA-928B-7BA9BC4A845D";
shapes = (
{
closed = 1;
nodes = (
(175,430,o),
(218,473,o),
(218,526,c),
(154,526,l),
(154,508,o),
(140,494,o),
(122,494,cs),
(104,494,o),
(90,508,o),
(90,526,c),
(26,526,l),
(26,473,o),
(69,430,o),
(122,430,cs)
);
}
);
width = 244;
}
);
unicode = 728;
}
{
glyphname = dotaccent;
layers = (
{
layerId = "DC4431BF-9234-4C16-9154-22D387E42D10";
shapes = (
{
closed = 1;
nodes = (
(118,648,o),
(131,661,o),
(131,678,cs),
(131,695,o),
(118,709,o),
(101,709,cs),
(84,709,o),
(71,695,o),
(71,678,cs),
(71,661,o),
(84,648,o),
(101,648,cs)
);
}
);
width = 202;
},
{
layerId = "4EACF7E3-2421-4EEA-928B-7BA9BC4A845D";
shapes = (
{
closed = 1;
nodes = (
(143,603,o),
(176,636,o),
(176,678,cs),
(176,720,o),
(143,754,o),
(101,754,cs),
(59,754,o),
(26,720,o),
(26,678,cs),
(26,636,o),
(59,603,o),
(101,603,cs)
);
}
);
width = 202;
}
);
unicode = 729;
}
{
glyphname = ring;
layers = (
{
layerId = "DC4431BF-9234-4C16-9154-22D387E42D10";
shapes = (
{
closed = 1;
nodes = (
(159,459,o),
(189,489,o),
(189,526,cs),
(189,563,o),
(159,593,o),
(122,593,cs),
(85,593,o),
(55,563,o),
(55,526,cs),
(55,489,o),
(85,459,o),
(122,459,cs)
);
},
{
closed = 1;
nodes = (
(104,494,o),
(90,508,o),
(90,526,cs),
(90,544,o),
(104,558,o),
(122,558,cs),
(140,558,o),
(154,544,o),
(154,526,cs),
(154,508,o),
(140,494,o),
(122,494,cs)
);
}
);
width = 244;
},
{
layerId = "4EACF7E3-2421-4EEA-928B-7BA9BC4A845D";
shapes = (
{
closed = 1;
nodes = (
(175,430,o),
(218,473,o),
(218,526,cs),
(218,579,o),
(175,622,o),
(122,622,cs),
(69,622,o),
(26,579,o),
(26,526,cs),
(26,473,o),
(69,430,o),
(122,430,cs)
);
},
{
closed = 1;
nodes = (
(104,494,o),
(90,508,o),
(90,526,cs),
(90,544,o),
(104,558,o),
(122,558,cs),
(140,558,o),
(154,544,o),
(154,526,cs),
(154,508,o),
(140,494,o),
(122,494,cs)
);
}
);
width = 244;
}
);
unicode = 730;
}
{
glyphname = ogonek;
layers = (
{
layerId = "DC4431BF-9234-4C16-9154-22D387E42D10";
shapes = (
{
closed = 1;
nodes = (
(106,-134,l),
(47,-134,o),
(5,-95,o),
(5,-40,c),
(-35,-40,l),
(-35,-96,o),
(5,-172,o),
(106,-172,c)
);
}
);
width = 219;
},
{
layerId = "4EACF7E3-2421-4EEA-928B-7BA9BC4A845D";
shapes = (
{
closed = 1;
nodes = (
(106,-108,l),
(70,-108,o),
(30,-95,o),
(30,-40,c),
(-62,-40,l),
(-62,-116,o),
(-21,-199,o),
(106,-199,c)
);
}
);
width = 219;
}
);
unicode = 731;
}
{
glyphname = tilde;
layers = (
{
layerId = "DC4431BF-9234-4C16-9154-22D387E42D10";
shapes = (
{
closed = 1;
nodes = (
(246,118,o),
(273,125,o),
(307,146,c),
(307,184,l),
(274,164,o),
(249,156,o),
(227,156,cs),
(176,156,o),
(147,197,o),
(96,197,cs),
(77,197,o),
(54,191,o),
(26,175,c),
(26,136,l),
(52,152,o),
(74,158,o),
(92,158,cs),
(140,158,o),
(170,118,o),
(223,118,cs)
);
}
);
width = 333;
},
{
layerId = "4EACF7E3-2421-4EEA-928B-7BA9BC4A845D";
shapes = (
{
closed = 1;
nodes = (
(246,86,o),
(273,93,o),
(307,114,c),
(307,215,l),
(274,195,o),
(249,187,o),
(227,187,cs),
(176,187,o),
(147,228,o),
(96,228,cs),
(77,228,o),
(54,222,o),
(26,206,c),
(26,104,l),
(52,120,o),
(74,126,o),
(92,126,cs),
(140,126,o),
(170,86,o),
(223,86,cs)
);
}
);
width = 333;
}
);
unicode = 732;
}
{
glyphname = pi;
layers = (
{
layerId = "DC4431BF-9234-4C16-9154-22D387E42D10";
shapes = (
{
closed = 1;
nodes = (
(108,-4,l),
(108,478,l),
(318,478,l),
(318,133,ls),
(318,64,o),
(339,-4,o),
(438,-4,c),
(438,34,l),
(401,34,o),
(358,37,o),
(358,142,cs),
(358,478,l),
(452,478,l),
(452,516,l),
(-28,516,l),
(-28,478,l),
(68,478,l),
(68,-4,l)
);
}
);
width = 421;
},
{
layerId = "4EACF7E3-2421-4EEA-928B-7BA9BC4A845D";
shapes = (
{
closed = 1;
nodes = (
(209,0,l),
(209,389,l),
(327,389,l),
(327,133,ls),
(327,54,o),
(390,-4,o),
(489,-4,c),
(489,108,l),
(454,108,o),
(446,128,o),
(446,142,cs),
(446,389,l),
(503,389,l),
(503,519,l),
(30,519,l),
(30,389,l),
(87,389,l),
(87,0,l)
);
}
);
width = 533;
}
);
unicode = 960;
}
{
color = 0;
glyphname = taAnusvara;
layers = (
{
layerId = "DC4431BF-9234-4C16-9154-22D387E42D10";
shapes = (
{
closed = 1;
nodes = (
(147,781,o),
(178,812,o),
(178,851,cs),
(178,890,o),
(147,921,o),
(108,921,cs),
(69,921,o),
(38,890,o),
(38,851,cs),
(38,812,o),
(69,781,o),
(108,781,cs)
);
},
{
closed = 1;
nodes = (
(85,809,o),
(66,828,o),
(66,851,cs),
(66,874,o),
(85,893,o),
(108,893,cs),
(131,893,o),
(150,874,o),
(150,851,cs),
(150,828,o),
(131,809,o),
(108,809,cs)
);
}
);
width = 228;
},
{
layerId = "4EACF7E3-2421-4EEA-928B-7BA9BC4A845D";
shapes = (
{
closed = 1;
nodes = (
(157,761,o),
(208,812,o),
(208,851,cs),
(208,890,o),
(157,941,o),
(118,941,cs),
(79,941,o),
(28,890,o),
(28,851,cs),
(28,812,o),
(79,761,o),
(118,761,cs)
);
},
{
closed = 1;
nodes = (
(95,809,o),
(76,828,o),
(76,851,cs),
(76,874,o),
(95,893,o),
(118,893,cs),
(141,893,o),
(160,874,o),
(160,851,cs),
(160,828,o),
(141,809,o),
(118,809,cs)
);
}
);
width = 228;
}
);
unicode = 2946;
}
{
color = 0;
glyphname = taVisarga;
layers = (
{
layerId = "DC4431BF-9234-4C16-9154-22D387E42D10";
shapes = (
{
closed = 1;
nodes = (
(148,48,o),
(179,79,o),
(179,118,cs),
(179,156,o),
(148,187,o),
(109,187,cs),
(71,187,o),
(40,156,o),
(40,118,cs),
(40,79,o),
(71,48,o),
(109,48,cs)
);
},
{
closed = 1;
nodes = (
(583,52,o),
(614,83,o),
(614,121,cs),
(614,159,o),
(583,190,o),
(545,190,cs),
(506,190,o),
(475,159,o),
(475,121,cs),
(475,83,o),
(506,52,o),
(545,52,cs)
);
},
{
closed = 1;
nodes = (
(363,440,o),
(394,471,o),
(394,510,cs),
(394,548,o),
(363,579,o),
(325,579,cs),
(287,579,o),
(256,548,o),
(256,510,cs),
(256,471,o),
(287,440,o),
(325,440,cs)
);
}
);
width = 654;
},
{
layerId = "4EACF7E3-2421-4EEA-928B-7BA9BC4A845D";
shapes = (
{
closed = 1;
nodes = (
(719,0,o),
(773,54,o),
(773,121,cs),
(773,188,o),
(719,242,o),
(652,242,cs),
(585,242,o),
(531,188,o),
(531,121,cs),
(531,54,o),
(585,0,o),
(652,0,cs)
);
},
{
closed = 1;
nodes = (
(233,-4,o),
(287,50,o),
(287,117,cs),
(287,184,o),
(233,238,o),
(166,238,cs),
(99,238,o),
(45,184,o),
(45,117,cs),
(45,50,o),
(99,-4,o),
(166,-4,cs)
);
},
{
closed = 1;
nodes = (
(475,368,o),
(528,422,o),
(528,489,cs),
(528,556,o),
(475,610,o),
(408,610,cs),
(341,610,o),
(287,556,o),
(287,489,cs),
(287,422,o),
(341,368,o),
(408,368,cs)
);
}
);
width = 825;
}
);
unicode = 2947;
}
{
color = 3;
glyphname = taA;
layers = (
{
layerId = "DC4431BF-9234-4C16-9154-22D387E42D10";
shapes = (
{
closed = 1;
nodes = (
(394,-38,l),
(394,0,l),
(249,0,ls),
(127,0,o),
(87,57,o),
(87,118,cs),
(87,173,o),
(117,238,o),
(229,238,cs),
(273,238,l),
(273,276,l),
(234,276,ls),
(145,276,o),
(47,237,o),
(47,119,cs),
(47,-8,o),
(160,-38,o),
(233,-38,cs)
);
},
{
closed = 1;
nodes = (
(243,172,o),
(320,106,o),
(394,106,c),
(394,144,l),
(328,151,o),
(283,194,o),
(283,274,cs),
(283,341,o),
(327,405,o),
(418,405,cs),
(505,405,o),
(553,341,o),
(553,274,cs),
(553,177,o),
(492,146,o),
(449,144,c),
(449,106,l),
(539,106,o),
(593,187,o),
(593,270,cs),
(593,386,o),
(514,443,o),
(422,443,cs),
(328,443,o),
(280,388,o),
(272,341,c),
(278,341,l),
(292,465,o),
(348,556,o),
(501,556,c),
(501,594,l),
(317,594,o),
(243,471,o),
(243,320,cs),
(243,270,ls)
);
},
{
closed = 1;
nodes = (
(579,-38,ls),
(737,-38,o),
(798,23,o),
(798,201,cs),
(798,341,ls),
(798,507,o),
(695,594,o),
(556,594,c),
(556,556,l),
(654,555,o),
(758,496,o),
(758,343,cs),
(758,180,ls),
(758,86,o),
(735,0,o),
(600,0,cs),
(449,0,l),
(449,-38,l)
);
},
{
closed = 1;
nodes = (
(977,238,l),
(977,-69,l),
(1017,-69,l),
(1017,591,l),
(977,591,l),
(977,276,l),
(566,276,l),
(566,238,l)
);
}
);
width = 1077;
},
{
guides = (
{
angle = 180;
pos = (72,284);
},
{
angle = 180;
pos = (62,154);
}
);
layerId = "4EACF7E3-2421-4EEA-928B-7BA9BC4A845D";
shapes = (
{
closed = 1;
nodes = (
(401,-122,l),
(401,8,l),
(269,8,ls),
(210,8,o),
(172,29,o),
(172,83,cs),
(172,135,o),
(217,154,o),
(246,154,cs),
(300,154,l),
(300,284,l),
(251,284,ls),
(121,284,o),
(35,199,o),
(35,84,cs),
(35,-36,o),
(132,-122,o),
(253,-122,cs)
);
},
{
closed = 1;
nodes = (
(226,114,o),
(327,52,o),
(401,52,c),
(401,168,l),
(381,172,o),
(351,193,o),
(351,234,cs),
(351,274,o),
(375,308,o),
(425,308,cs),
(473,308,o),
(499,274,o),
(499,234,cs),
(499,200,o),
(478,169,o),
(454,168,c),
(454,52,l),
(568,52,o),
(618,149,o),
(618,232,cs),
(618,348,o),
(541,408,o),
(463,408,cs),
(379,408,o),
(364,368,o),
(343,331,c),
(374,361,l),
(394,431,o),
(425,452,o),
(523,452,c),
(523,584,l),
(324,584,o),
(226,463,o),
(226,314,cs),
(226,246,ls)
);
},
{
closed = 1;
nodes = (
(618,-122,ls),
(744,-122,o),
(855,-40,o),
(855,122,cs),
(855,303,ls),
(855,463,o),
(728,584,o),
(578,585,c),
(578,452,l),
(691,451,o),
(715,350,o),
(715,292,cs),
(715,142,ls),
(715,48,o),
(673,8,o),
(607,8,cs),
(456,8,l),
(456,-122,l)
);
},
{
closed = 1;
nodes = (
(934,154,l),
(934,-107,l),
(1074,-107,l),
(1074,575,l),
(934,575,l),
(934,284,l),
(563,284,l),
(563,154,l)
);
}
);
width = 1116;
},
{
associatedMasterId = "DC4431BF-9234-4C16-9154-22D387E42D10";
layerId = "0C86771D-B7EA-4F6F-97DD-F1270E08DE35";
name = "27 May 24 at 19:10";
shapes = (
{
closed = 1;
nodes = (
(784,224,l),
(784,393,ls),
(784,585,o),
(694,695,o),
(539,695,cs),
(310,695,o),
(285,552,o),
(285,516,c),
(325,516,l),
(325,589,o),
(412,655,o),
(539,655,cs),
(653,655,o),
(744,583,o),
(744,396,cs),
(744,224,l)
);
},
{
closed = 1;
nodes = (
(411,-127,l),
(411,-87,l),
(261,-87,ls),
(201,-87,o),
(100,-48,o),
(100,72,cs),
(100,196,o),
(232,191,o),
(256,191,cs),
(410,191,l),
(410,233,l),
(274,233,ls),
(144,233,o),
(60,188,o),
(60,72,cs),
(60,-47,o),
(151,-127,o),
(263,-127,cs)
);
},
{
closed = 1;
nodes = (
(628,-127,ls),
(728,-127,o),
(785,-35,o),
(785,67,c),
(784,232,l),
(464,232,l),
(464,192,l),
(744,192,l),
(744,69,ls),
(744,-29,o),
(693,-86,o),
(629,-87,cs),
(466,-87,l),
(466,-127,l)
);
},
{
closed = 1;
nodes = (
(562,289,o),
(637,346,o),
(642,409,c),
(610,443,l),
(610,375,o),
(544,329,o),
(473,329,cs),
(393,329,o),
(331,376,o),
(323,460,c),
(283,460,l),
(283,460,o),
(294,289,o),
(473,289,cs)
);
},
{
closed = 1;
nodes = (
(877,192,l),
(877,232,l),
(743,232,l),
(743,192,l)
);
},
{
closed = 1;
nodes = (
(915,-107,l),
(915,578,l),
(875,578,l),
(875,-107,l)
);
}
);
width = 975;
}
);
unicode = 2949;
userData = {
com.fontlab.hintData = {
hhints = (
{
position = -127;
width = 122;
},
{
position = 110;
width = 125;
},
{
position = 205;
width = 119;
},
{
position = 373;
width = 122;
},
{
position = 562;
width = 122;
}
);
vhints = (
{
position = 20;
width = 122;
},
{
position = 206;
width = 116;
},
{
position = 479;
width = 110;
},
{
position = 662;
width = 122;
},
{
position = 743;
width = 41;
},
{
position = 834;
width = 122;
},
{
position = 834;
width = 3;
}
);
};
};
}
{
color = 3;
glyphname = taAa;
layers = (
{
layerId = "DC4431BF-9234-4C16-9154-22D387E42D10";
shapes = (
{
closed = 1;
nodes = (
(1091,-235,ls),
(1233,-235,o),
(1248,-156,o),
(1248,-56,cs),
(1248,78,ls),
(1248,167,o),
(1201,190,o),
(1132,190,cs),
(1081,190,l),
(1081,152,l),
(1132,152,ls),
(1176,152,o),
(1208,138,o),
(1208,79,cs),
(1208,-56,ls),
(1208,-185,o),
(1157,-197,o),
(1079,-197,cs),
(774,-198,l),
(774,-235,l)
);
},
{
ref = taA;
}
);
width = 1295;
},
{
layerId = "4EACF7E3-2421-4EEA-928B-7BA9BC4A845D";
shapes = (
{
closed = 1;
nodes = (
(1117,-298,ls),
(1244,-298,o),
(1314,-249,o),
(1314,-138,cs),
(1314,26,ls),
(1314,141,o),
(1251,153,o),
(1184,154,cs),
(1129,155,l),
(1129,27,l),
(1146,27,ls),
(1167,27,o),
(1174,19,o),
(1174,-8,cs),
(1174,-105,ls),
(1174,-153,o),
(1151,-170,o),
(1099,-170,cs),
(784,-171,l),
(784,-298,l)
);
},
{
ref = taA;
}
);
width = 1331;
}
);
unicode = 2950;
userData = {
com.fontlab.hintData = {
hhints = (
{
position = -293;
width = 122;
},
{
position = -127;
width = 122;
},
{
position = 205;
width = 119;
},
{
position = 373;
width = 122;
},
{
position = 562;
width = 122;
}
);
vhints = (
{
position = 39;
width = 122;
},
{
position = 225;
width = 116;
},
{
position = 498;
width = 110;
},
{
position = 681;
width = 122;
},
{
position = 762;
width = 41;
},
{
position = 853;
width = 122;
},
{
position = 853;
width = 3;
},
{
position = 1073;
width = 122;
}
);
};
};
}
{
color = 3;
glyphname = taI;
layers = (
{
layerId = "DC4431BF-9234-4C16-9154-22D387E42D10";
shapes = (
{
closed = 1;
nodes = (
(471,770,l),
(189,770,o),
(134,601,o),
(134,447,cs),
(134,397,ls),
(134,264,o),
(233,170,o),
(378,170,cs),
(497,170,l),
(486,132,l),
(225,132,ls),
(169,132,o),
(87,105,o),
(87,9,cs),
(87,-89,o),
(189,-110,o),
(243,-110,cs),
(264,-110,l),
(264,-148,l),
(243,-148,ls),
(132,-148,o),
(46,-93,o),
(47,9,cs),
(48,123,o),
(139,167,o),
(207,167,cs),
(296,167,l),
(316,153,l),
(303,153,ls),
(220,153,o),
(94,235,o),
(94,397,cs),
(94,445,ls),
(94,652,o),
(191,811,o),
(471,810,c)
);
},
{
closed = 1;
nodes = (
(527,770,l),
(764,770,o),
(858,630,o),
(858,454,cs),
(858,219,l),
(900,219,l),
(900,462,ls),
(900,646,o),
(795,811,o),
(526,811,c)
);
},
{
closed = 1;
nodes = (
(378,-110,ls),
(437,-110,o),
(472,-80,o),
(491,-23,cs),
(579,237,ls),
(612,334,o),
(624,375,o),
(624,420,cs),
(624,507,o),
(566,555,o),
(494,555,cs),
(416,555,o),
(363,505,o),
(363,426,cs),
(363,358,o),
(405,297,o),
(537,297,c),
(524,259,l),
(404,259,o),
(323,306,o),
(323,426,cs),
(323,519,o),
(383,595,o),
(492,595,cs),
(613,595,o),
(664,508,o),
(664,420,cs),
(664,367,o),
(646,314,o),
(631,268,cs),
(592,150,l),
(578,170,l),
(745,170,ls),
(915,170,o),
(953,98,o),
(953,13,cs),
(953,-85,o),
(889,-150,o),
(772,-150,cs),
(700,-150,o),
(632,-133,o),
(571,-91,c),
(585,-51,l),
(627,-83,o),
(685,-112,o),
(772,-112,cs),
(856,-112,o),
(913,-73,o),
(913,13,cs),
(913,97,o),
(860,131,o),
(738,131,cs),
(553,131,l),
(590,139,l),
(526,-43,ls),
(499,-121,o),
(448,-148,o),
(386,-148,cs),
(319,-148,l),
(319,-110,l)
);
}
);
width = 1000;
},
{
background = {
shapes = (
{
closed = 1;
nodes = (
(1234,-107,l),
(1210,-98,o),
(1178,-72,o),
(1178,-31,c),
(1051,-76,l),
(1051,-131,o),
(1125,-237,o),
(1234,-237,c)
);
}
);
};
guides = (
{
pos = (949,203);
}
);
layerId = "4EACF7E3-2421-4EEA-928B-7BA9BC4A845D";
shapes = (
{
closed = 1;
nodes = (
(474,690,l),
(341,690,o),
(217,606,o),
(217,451,cs),
(217,384,ls),
(217,251,o),
(302,208,o),
(391,208,cs),
(445,208,l),
(404,72,l),
(258,72,ls),
(202,72,o),
(174,46,o),
(174,6,cs),
(174,-34,o),
(209,-58,o),
(263,-58,cs),
(277,-58,l),
(277,-194,l),
(246,-194,ls),
(102,-194,o),
(29,-103,o),
(30,6,cs),
(31,123,o),
(112,184,o),
(200,184,cs),
(279,184,l),
(279,135,l),
(250,135,ls),
(142,135,o),
(69,249,o),
(69,369,cs),
(69,449,ls),
(69,656,o),
(198,831,o),
(474,830,c)
);
},
{
closed = 1;
nodes = (
(535,690,l),
(691,683,o),
(775,613,o),
(775,437,cs),
(775,250,l),
(923,249,l),
(923,485,ls),
(923,661,o),
(802,830,o),
(534,830,c)
);
},
{
closed = 1;
nodes = (
(361,-58,ls),
(416,-58,o),
(434,-33,o),
(452,24,cs),
(542,321,ls),
(555,365,o),
(559,384,o),
(559,405,cs),
(559,441,o),
(532,463,o),
(499,463,cs),
(466,463,o),
(444,441,o),
(444,408,cs),
(444,382,o),
(461,365,o),
(487,361,c),
(459,269,l),
(386,269,o),
(308,313,o),
(308,421,cs),
(308,512,o),
(381,593,o),
(494,593,cs),
(630,593,o),
(697,510,o),
(697,408,cs),
(697,365,o),
(681,315,o),
(666,259,cs),
(630,126,l),
(561,203,l),
(729,203,ls),
(920,203,o),
(976,82,o),
(976,0,cs),
(976,-106,o),
(914,-205,o),
(767,-205,cs),
(720,-205,o),
(634,-182,o),
(593,-154,c),
(640,-29,l),
(672,-51,o),
(721,-69,o),
(759,-69,cs),
(800,-69,o),
(836,-49,o),
(836,3,cs),
(836,50,o),
(805,66,o),
(726,66,cs),
(566,66,l),
(623,108,l),
(564,-61,ls),
(543,-121,o),
(503,-194,o),
(371,-194,cs),
(332,-194,l),
(332,-58,l)
);
}
);
width = 1006;
},
{
associatedMasterId = "4EACF7E3-2421-4EEA-928B-7BA9BC4A845D";
guides = (
{
pos = (900,203);
}
);
layerId = "90966822-054F-455F-B2D3-B23F88C762BD";
name = "28 May 24 at 23:45";
shapes = (
{
closed = 1;
nodes = (
(425,680,l),
(292,680,o),
(188,590,o),
(188,475,cs),
(188,448,o),
(188,404,o),
(188,404,cs),
(188,238,o),
(292,224,o),
(396,208,c),
(355,81,l),
(259,81,ls),
(212,81,o),
(175,52,o),
(175,6,cs),
(175,-50,o),
(242,-65,o),
(291,-65,cs),
(376,-65,o),
(384,-49,o),
(418,60,c),
(510,348,ls),
(515,365,o),
(518,382,o),
(518,393,cs),
(517,427,o),
(499,454,o),
(463,454,cs),
(431,454,o),
(404,438,o),
(404,403,cs),
(404,375,o),
(428,361,o),
(442,361,c),
(412,269,l),
(349,269,o),
(272,303,o),
(274,405,cs),
(276,499,o),
(341,573,o),
(455,573,cs),
(573,573,o),
(640,493,o),
(640,398,cs),
(640,321,o),
(597,207,o),
(571,126,c),
(512,203,l),
(660,203,ls),
(851,203,o),
(907,82,o),
(907,0,cs),
(907,-96,o),
(862,-205,o),
(727,-205,cs),
(658,-205,o),
(585,-176,o),
(549,-132,c),
(589,2,l),
(626,-51,o),
(669,-80,o),
(711,-80,cs),
(754,-80,o),
(767,-41,o),
(767,-10,cs),
(767,50,o),
(726,66,o),
(670,66,cs),
(515,66,l),
(568,110,l),
(515,-57,o),
(504,-205,o),
(281,-205,cs),
(103,-205,o),
(29,-92,o),
(30,16,cs),
(31,138,o),
(128,203,o),
(201,203,c),
(209,164,l),
(151,164,o),
(27,219,o),
(27,410,cs),
(27,487,ls),
(27,674,o),
(149,821,o),
(425,820,c)
);
},
{
closed = 1;
nodes = (
(486,680,l),
(622,673,o),
(727,623,o),
(728,447,cs),
(729,250,l),
(869,249,l),
(869,399,o),
(869,495,o),
(869,495,cs),
(869,661,o),
(753,820,o),
(485,820,c)
);
}
);
width = 937;
},
{
associatedMasterId = "DC4431BF-9234-4C16-9154-22D387E42D10";
layerId = "D00993F4-13BA-4BD5-A511-9DA566251450";
name = "29 May 24 at 00:01";
shapes = (
{
closed = 1;
nodes = (
(269,146,l),
(252,210,o),
(232,306,o),
(232,369,cs),
(232,570,o),
(342,754,o),
(579,763,c),
(579,803,l),
(334,796,o),
(188,633,o),
(188,372,cs),
(188,309,o),
(207,212,o),
(223,142,c)
);
},
{
closed = 1;
nodes = (
(502,-178,l),
(502,-138,l),
(246,-138,ls),
(186,-138,o),
(85,-99,o),
(85,21,cs),
(85,145,o),
(217,140,o),
(241,140,cs),
(501,140,l),
(501,182,l),
(259,182,ls),
(129,182,o),
(45,137,o),
(45,21,cs),
(45,-98,o),
(136,-178,o),
(248,-178,cs)
);
},
{
closed = 1;
nodes = (
(495,-146,l),
(377,-95,o),
(300,-2,o),
(277,114,c),
(230,114,l),
(263,-18,o),
(348,-122,o),
(455,-170,c)
);
},
{
closed = 1;
nodes = (
(677,-178,ls),
(777,-178,o),
(834,-86,o),
(834,16,c),
(833,181,l),
(556,181,l),
(556,141,l),
(793,141,l),
(793,18,ls),
(793,-80,o),
(742,-137,o),
(678,-138,cs),
(558,-138,l),
(558,-178,l)
);
},
{
closed = 1;
nodes = (
(611,239,o),
(686,296,o),
(691,359,c),
(659,393,l),
(659,325,o),
(577,279,o),
(522,279,cs),
(434,279,o),
(370,339,o),
(370,414,c),
(332,414,ls),
(332,414,o),
(343,239,o),
(522,239,cs)
);
},
{
closed = 1;
nodes = (
(956,-188,o),
(1030,-66,o),
(1030,2,cs),
(1030,36,ls),
(1030,120,o),
(972,181,o),
(833,181,c),
(833,141,l),
(968,141,o),
(990,83,o),
(990,29,cs),
(990,-99,o),
(881,-138,o),
(818,-130,c),
(799,-169,l)
);
},
{
closed = 1;
nodes = (
(833,214,l),
(833,343,ls),
(833,535,o),
(743,645,o),
(588,645,cs),
(410,645,o),
(334,572,o),
(334,466,c),
(374,466,l),
(374,566,o),
(461,605,o),
(588,605,cs),
(702,605,o),
(793,533,o),
(793,346,cs),
(793,214,l)
);
},
{
closed = 1;
nodes = (
(1001,244,l),
(1001,582,o),
(903,801,o),
(623,801,c),
(623,761,l),
(882,761,o),
(961,528,o),
(961,244,c)
);
}
);
width = 1081;
}
);
unicode = 2951;
userData = {
com.fontlab.hintData = {
hhints = (
{
position = -141;
width = 119;
},
{
position = 35;
width = 121;
},
{
position = 131;
width = 11;
},
{
position = 136;
width = 122;
},
{
position = 141;
width = 90;
},
{
position = 279;
width = 122;
},
{
position = 424;
width = 121;
},
{
position = 583;
width = 123;
}
);
vhints = (
{
position = 7;
width = 121;
},
{
position = 310;
width = 89;
},
{
position = 627;
width = 54;
},
{
position = 752;
width = 122;
},
{
position = 912;
width = 122;
},
{
position = 949;
width = 123;
}
);
};
};
}
{
color = 0;
glyphname = taIi;
layers = (
{
layerId = "DC4431BF-9234-4C16-9154-22D387E42D10";
shapes = (
{
closed = 1;
nodes = (
(383,0,l),
(383,594,l),
(343,594,l),
(343,0,l)
);
},
{
closed = 1;
nodes = (
(100,1,l),
(100,594,l),
(60,593,l),
(60,1,l)
);
},
{
closed = 1;
nodes = (
(249,207,o),
(270,228,o),
(270,254,cs),
(270,279,o),
(249,300,o),
(224,300,cs),
(198,300,o),
(177,279,o),
(177,254,cs),
(177,228,o),
(198,207,o),
(224,207,cs)
);
},
{
closed = 1;
nodes = (
(194,555,l),
(194,596,l),
(60,596,l),
(60,555,l)
);
},
{
closed = 1;
nodes = (
(493,207,o),
(515,228,o),
(515,253,cs),
(515,278,o),
(493,300,o),
(468,300,cs),
(443,300,o),
(422,278,o),
(422,253,cs),
(422,228,o),
(443,207,o),
(468,207,cs)
);
},
{
closed = 1;
nodes = (
(525,555,l),
(525,596,l),
(248,596,l),
(248,555,l)
);
}
);
width = 572;
},
{
layerId = "4EACF7E3-2421-4EEA-928B-7BA9BC4A845D";
shapes = (
{
closed = 1;
nodes = (
(445,0,l),
(445,593,l),
(323,593,l),
(323,0,l)
);
},
{
closed = 1;
nodes = (
(161,1,l),
(161,593,l),
(39,592,l),
(39,1,l)
);
},
{
closed = 1;
nodes = (
(274,187,o),
(303,215,o),
(303,249,cs),
(303,283,o),
(274,312,o),
(240,312,cs),
(206,312,o),
(178,283,o),
(178,249,cs),
(178,215,o),
(206,187,o),
(240,187,cs)
);
},
{
closed = 1;
nodes = (
(217,473,l),
(217,595,l),
(39,595,l),
(39,473,l)
);
},
{
closed = 1;
nodes = (
(562,186,o),
(591,214,o),
(591,248,cs),
(591,282,o),
(562,311,o),
(528,311,cs),
(494,311,o),
(466,282,o),
(466,248,cs),
(466,214,o),
(494,186,o),
(528,186,cs)
);
},
{
closed = 1;
nodes = (
(567,473,l),
(567,595,l),
(271,595,l),
(271,473,l)
);
}
);
width = 629;
}
);
unicode = 2952;
userData = {
com.fontlab.hintData = {
vhints = (
{
position = -374618;
width = 385810;
},
{
position = -374618;
width = 264432;
},
{
position = -73339;
width = 270934;
},
{
position = 550893;
width = 270934;
}
);
};
};
}
{
color = 3;
glyphname = taU;
layers = (
{
layerId = "DC4431BF-9234-4C16-9154-22D387E42D10";
shapes = (
{
closed = 1;
nodes = (
(107,0,l),
(107,94,ls),
(107,131,o),
(124,141,o),
(153,141,cs),
(311,141,ls),
(500,141,o),
(563,245,o),
(563,365,c),
(523,365,l),
(523,240,o),
(450,179,o),
(306,179,cs),
(153,179,ls),
(103,179,o),
(67,160,o),
(67,94,cs),
(67,0,l)
);
},
{
closed = 1;
nodes = (
(973,0,l),
(973,38,l),
(152,38,l),
(152,0,l)
);
},
{
closed = 1;
nodes = (
(512,665,o),
(563,538,o),
(563,410,c),
(523,410,l),
(523,467,o),
(518,627,o),
(328,627,c),
(328,665,l)
);
},
{
closed = 1;
nodes = (
(47,314,o),
(116,270,o),
(182,264,c),
(182,302,l),
(129,308,o),
(93,346,o),
(93,405,cs),
(93,456,o),
(130,504,o),
(195,504,cs),
(258,504,o),
(297,456,o),
(297,405,cs),
(297,349,o),
(265,306,o),
(215,302,c),
(215,264,l),
(303,270,o),
(337,335,o),
(337,405,cs),
(337,478,o),
(285,542,o),
(195,542,cs),
(127,542,o),
(72,501,o),
(72,422,c),
(85,422,l),
(85,585,o),
(194,627,o),
(285,627,c),
(285,665,l),
(128,665,o),
(47,565,o),
(47,435,cs)
);
}
);
width = 1020;
},
{
layerId = "4EACF7E3-2421-4EEA-928B-7BA9BC4A845D";
shapes = (
{
closed = 1;
nodes = (
(203,0,l),
(203,134,ls),
(203,169,o),
(228,172,o),
(262,172,cs),
(380,172,ls),
(566,172,o),
(642,292,o),
(642,441,c),
(503,441,l),
(503,311,o),
(427,292,o),
(362,292,cs),
(208,292,ls),
(115,292,o),
(57,234,o),
(57,144,cs),
(57,0,l)
);
},
{
closed = 1;
nodes = (
(1033,0,l),
(1033,130,l),
(258,130,l),
(258,0,l)
);
},
{
closed = 1;
nodes = (
(545,754,o),
(642,641,o),
(642,489,c),
(502,489,l),
(502,552,o),
(455,626,o),
(381,626,c),
(381,754,l)
);
},
{
closed = 1;
nodes = (
(134,318,o),
(38,372,o),
(38,490,cs),
(38,538,ls),
(38,672,o),
(145,754,o),
(269,754,cs),
(326,754,l),
(326,626,l),
(268,626,ls),
(215,626,o),
(164,603,o),
(164,528,cs),
(164,498,ls),
(164,467,o),
(182,430,o),
(232,430,cs),
(262,430,o),
(276,442,o),
(276,459,cs),
(276,476,o),
(263,487,o),
(241,487,cs),
(234,487,o),
(227,487,o),
(219,486,c),
(219,586,l),
(235,589,o),
(249,589,o),
(266,589,cs),
(326,589,o),
(402,560,o),
(402,459,cs),
(402,378,o),
(354,318,o),
(235,318,cs)
);
}
);
width = 1059;
},
{
associatedMasterId = "4EACF7E3-2421-4EEA-928B-7BA9BC4A845D";
layerId = "CFC2DCE9-4768-46A8-9E0D-DE2BE8701463";
name = "31 May 24 at 00:59";
shapes = (
{
closed = 1;
nodes = (
(593,434,l),
(593,626,o),
(483,744,o),
(303,744,cs),
(160,744,o),
(48,636,o),
(48,534,c),
(174,534,l),
(174,570,o),
(197,625,o),
(303,625,cs),
(474,625,o),
(476,434,o),
(476,434,c)
);
},
{
closed = 1;
nodes = (
(205,0,l),
(205,112,l),
(57,112,l),
(57,61,o),
(48,0,o),
(116,0,cs)
);
},
{
closed = 1;
nodes = (
(179,110,l),
(179,161,l),
(370,162,ls),
(564,162,o),
(594,251,o),
(594,334,cs),
(594,386,l),
(478,386,l),
(478,339,ls),
(478,268,o),
(455,265,o),
(338,264,cs),
(138,264,ls),
(75,264,o),
(58,226,o),
(57,164,cs),
(57,110,l)
);
},
{
closed = 1;
nodes = (
(327,308,o),
(401,365,o),
(406,428,c),
(322,517,l),
(322,452,o),
(282,430,o),
(237,430,cs),
(205,430,o),
(172,442,o),
(172,477,c),
(47,477,l),
(47,398,o),
(61,308,o),
(237,308,cs)
);
},
{
closed = 1;
nodes = (
(1033,0,l),
(1033,112,l),
(259,112,l),
(259,0,l)
);
}
);
width = 1059;
},
{
associatedMasterId = "DC4431BF-9234-4C16-9154-22D387E42D10";
layerId = "1505CF38-DE19-4EC2-BE0D-63E71618975D";
name = "31 May 24 at 00:59";
shapes = (
{
closed = 1;
nodes = (
(524,420,l),
(524,610,o),
(429,696,o),
(267,696,cs),
(130,696,o),
(40,600,o),
(40,486,c),
(80,486,l),
(86,578,o),
(152,656,o),
(267,656,cs),
(380,656,o),
(484,603,o),
(484,420,c)
);
},
{
closed = 1;
nodes = (
(206,0,l),
(206,38,l),
(58,38,l),
(58,5,o),
(67,0,o),
(117,0,cs)
);
},
{
closed = 1;
nodes = (
(101,33,l),
(101,141,l),
(335,142,ls),
(499,142,o),
(524,264,o),
(524,339,cs),
(524,376,l),
(484,376,l),
(484,339,ls),
(484,237,o),
(451,184,o),
(337,183,cs),
(112,183,ls),
(72,183,o),
(58,178,o),
(58,137,cs),
(58,33,l)
);
},
{
closed = 1;
nodes = (
(299,278,o),
(368,333,o),
(368,430,c),
(328,447,l),
(328,360,o),
(293,318,o),
(207,318,cs),
(117,318,o),
(83,402,o),
(81,459,c),
(40,459,l),
(40,366,o),
(93,278,o),
(208,278,cs)
);
},
{
closed = 1;
nodes = (
(963,0,l),
(963,38,l),
(260,38,l),
(260,0,l)
);
}
);
visible = 1;
width = 987;
},
{
associatedMasterId = "4EACF7E3-2421-4EEA-928B-7BA9BC4A845D";
layerId = "5AA39421-DD2E-4AF0-B93E-22F2B72B6038";
name = "17 Jun 24 at 16:38";
shapes = (
{
closed = 1;
nodes = (
(203,0,l),
(203,134,ls),
(203,169,o),
(228,172,o),
(262,172,cs),
(380,172,ls),
(566,172,o),
(643,292,o),
(643,431,c),
(503,431,l),
(503,321,o),
(427,292,o),
(362,292,cs),
(208,292,ls),
(115,292,o),
(57,234,o),
(57,144,cs),
(57,0,l)
);
},
{
closed = 1;
nodes = (
(1033,0,l),
(1033,130,l),
(258,130,l),
(258,0,l)
);
},
{
closed = 1;
nodes = (
(545,754,o),
(643,641,o),
(643,479,c),
(502,479,l),
(502,552,o),
(455,626,o),
(381,626,c),
(381,754,l)
);
},
{
closed = 1;
nodes = (
(38,374,o),
(127,318,o),
(196,318,c),
(196,415,l),
(181,418,o),
(163,433,o),
(163,461,cs),
(163,488,o),
(180,512,o),
(214,512,cs),
(247,512,o),
(266,488,o),
(266,461,cs),
(266,438,o),
(255,420,o),
(238,415,c),
(237,318,l),
(346,318,o),
(386,394,o),
(386,460,cs),
(386,550,o),
(315,597,o),
(244,597,cs),
(179,597,o),
(167,566,o),
(150,536,c),
(174,537,l),
(190,592,o),
(222,626,o),
(326,626,c),
(326,754,l),
(127,754,o),
(38,640,o),
(38,506,cs)
);
}
);
width = 1059;
}
);
unicode = 2953;
userData = {
com.fontlab.hintData = {
hhints = (
{
position = 0;
width = 122;
},
{
position = 141;
width = 122;
},
{
position = 545;
width = 159;
},
{
position = 583;
width = 84;
}
);
vhints = (
{
position = 4;
width = 122;
},
{
position = 22;
width = 148;
},
{
position = 266;
width = 122;
},
{
position = 436;
width = 123;
}
);
};
};
}
{
color = 0;
glyphname = taUu;
layers = (
{
layerId = "DC4431BF-9234-4C16-9154-22D387E42D10";
shapes = (
{
closed = 1;
nodes = (
(1035,149,l),
(1031,441,ls),
(1030,522,o),
(1002,638,o),
(865,638,cs),
(864,638,l),
(864,598,l),
(866,598,ls),
(931,598,o),
(992,562,o),
(993,440,cs),
(994,149,l)
);
},
{
closed = 1;
nodes = (
(1328,0,l),
(1328,38,l),
(259,38,l),
(259,0,l)
);
},
{
closed = 1;
nodes = (
(746,190,l),
(697,190,o),
(646,216,o),
(646,297,cs),
(646,383,o),
(714,403,o),
(746,404,c),
(746,444,l),
(706,444,o),
(605,413,o),
(606,312,cs),
(606,285,ls),
(606,213,o),
(659,149,o),
(746,149,c)
);
},
{
closed = 1;
nodes = (
(887,150,o),
(931,228,o),
(930,286,c),
(930,305,l),
(930,387,o),
(880,444,o),
(794,444,c),
(794,404,l),
(829,403,o),
(889,393,o),
(890,297,cs),
(891,213,o),
(832,190,o),
(793,190,c),
(793,149,l)
);
},
{
closed = 1;
nodes = (
(645,399,l),
(645,497,o),
(709,597,o),
(814,597,cs),
(818,597,l),
(818,637,l),
(816,637,ls),
(671,637,o),
(606,498,o),
(606,415,cs),
(606,316,l)
);
},
{
closed = 1;
nodes = (
(1031,429,l),
(1031,482,o),
(1028,598,o),
(1114,598,c),
(1114,638,l),
(1108,638,ls),
(994,638,o),
(993,498,o),
(993,429,c)
);
},
{
closed = 1;
nodes = (
(1283,149,l),
(1283,621,l),
(1242,621,l),
(1242,149,l)
);
},
{
closed = 1;
nodes = (
(1343,598,l),
(1343,638,l),
(1162,638,l),
(1162,598,l)
);
},
{
ref = taU;
}
);
width = 1383;
},
{
layerId = "4EACF7E3-2421-4EEA-928B-7BA9BC4A845D";
shapes = (
{
closed = 1;
nodes = (
(1120,149,l),
(1116,441,ls),
(1115,522,o),
(1055,638,o),
(918,638,cs),
(917,638,l),
(917,538,l),
(919,538,ls),
(963,538,o),
(1014,491,o),
(1015,440,cs),
(1016,149,l)
);
},
{
closed = 1;
nodes = (
(1381,0,l),
(1381,130,l),
(1016,130,l),
(1016,0,l)
);
},
{
closed = 1;
nodes = (
(799,249,l),
(773,249,o),
(761,271,o),
(761,297,cs),
(761,321,o),
(776,342,o),
(799,343,c),
(799,444,l),
(759,444,o),
(658,415,o),
(659,330,c),
(660,259,l),
(660,210,o),
(712,149,o),
(799,149,c)
);
},
{
closed = 1;
nodes = (
(926,150,o),
(985,209,o),
(984,261,c),
(983,333,l),
(983,382,o),
(933,444,o),
(847,444,c),
(847,343,l),
(869,342,o),
(882,319,o),
(883,297,cs),
(884,272,o),
(872,249,o),
(846,249,c),
(846,149,l)
);
},
{
closed = 1;
nodes = (
(767,418,l),
(767,498,o),
(817,537,o),
(867,537,cs),
(870,537,l),
(871,637,l),
(869,637,ls),
(724,637,o),
(659,498,o),
(659,415,cs),
(659,334,l)
);
},
{
closed = 1;
nodes = (
(1116,429,l),
(1116,482,o),
(1123,537,o),
(1167,537,c),
(1167,638,l),
(1148,638,ls),
(1026,638,o),
(1015,498,o),
(1015,429,c)
);
},
{
closed = 1;
nodes = (
(1336,149,l),
(1336,621,l),
(1236,621,l),
(1236,149,l)
);
},
{
closed = 1;
nodes = (
(1396,537,l),
(1396,638,l),
(1215,638,l),
(1215,537,l)
);
},
{
ref = taU;
}
);
width = 1435;
}
);
unicode = 2954;
userData = {
com.fontlab.hintData = {
hhints = (
{
position = 0;
width = 122;
},
{
position = 141;
width = 122;
},
{
position = 149;
width = 101;
},
{
position = 343;
width = 101;
},
{
position = 537;
width = 101;
},
{
position = 545;
width = 159;
},
{
position = 583;
width = 84;
}
);
vhints = (
{
position = 39;
width = 122;
},
{
position = 57;
width = 148;
},
{
position = 301;
width = 122;
},
{
position = 471;
width = 123;
},
{
position = 659;
width = 103;
},
{
position = 659;
width = 140;
},
{
position = 883;
width = 101;
}
);
};
};
}
{
color = 0;
glyphname = taE;
layers = (
{
layerId = "DC4431BF-9234-4C16-9154-22D387E42D10";
shapes = (
{
closed = 1;
nodes = (
(80,306,l),
(82,439,o),
(150,557,o),
(267,557,c),
(267,597,l),
(127,597,o),
(40,464,o),
(40,302,cs),
(40,204,l)
);
},
{
closed = 1;
nodes = (
(192,40,l),
(142,40,o),
(79,91,o),
(79,181,cs),
(79,295,o),
(155,319,o),
(192,319,c),
(192,359,l),
(116,359,o),
(40,300,o),
(40,196,cs),
(40,172,ls),
(40,88,o),
(104,0,o),
(192,0,c)
);
},
{
closed = 1;
nodes = (
(319,0,o),
(384,75,o),
(383,173,c),
(383,196,ls),
(383,292,o),
(320,359,o),
(247,359,c),
(247,319,l),
(289,319,o),
(341,282,o),
(341,183,cs),
(341,88,o),
(291,40,o),
(247,40,c),
(247,0,l)
);
},
{
closed = 1;
nodes = (
(526,0,l),
(526,577,l),
(486,577,l),
(486,0,l)
);
},
{
closed = 1;
nodes = (
(627,555,l),
(627,595,l),
(322,595,l),
(322,555,l)
);
}
);
width = 656;
},
{
layerId = "4EACF7E3-2421-4EEA-928B-7BA9BC4A845D";
shapes = (
{
closed = 1;
nodes = (
(189,329,l),
(196,406,o),
(236,472,o),
(323,472,c),
(323,595,l),
(120,595,o),
(58,396,o),
(58,281,cs),
(58,228,l)
);
},
{
closed = 1;
nodes = (
(229,123,l),
(199,123,o),
(182,145,o),
(182,182,cs),
(182,218,o),
(200,238,o),
(229,238,c),
(229,360,l),
(179,360,o),
(57,325,o),
(58,221,cs),
(58,179,ls),
(58,69,o),
(127,1,o),
(229,1,c)
);
},
{
closed = 1;
nodes = (
(383,1,o),
(458,86,o),
(458,148,cs),
(458,220,ls),
(458,310,o),
(399,360,o),
(284,360,c),
(284,238,l),
(324,238,o),
(335,216,o),
(336,182,cs),
(337,146,o),
(318,123,o),
(284,123,c),
(284,1,l)
);
},
{
closed = 1;
nodes = (
(625,0,l),
(625,577,l),
(503,577,l),
(503,0,l)
);
},
{
closed = 1;
nodes = (
(736,472,l),
(736,595,l),
(378,595,l),
(378,472,l)
);
}
);
width = 761;
}
);
unicode = 2958;
userData = {
com.fontlab.hintData = {
hhints = (
{
position = 1;
width = 122;
},
{
position = 238;
width = 123;
},
{
position = 472;
width = 123;
},
{
position = 472;
width = 105;
}
);
vhints = (
{
position = 2;
width = 171;
},
{
position = 2;
width = 131;
},
{
position = 2;
width = 124;
},
{
position = 280;
width = 123;
},
{
position = 447;
width = 123;
}
);
};
};
}
{
color = 0;
glyphname = taEe;
layers = (
{
layerId = "DC4431BF-9234-4C16-9154-22D387E42D10";
shapes = (
{
closed = 1;
nodes = (
(378,-176,l),
(526,0,l),
(526,577,l),
(486,577,l),
(486,15,l),
(327,-176,l)
);
},
{
ref = taE;
}
);
width = 656;
},
{
layerId = "4EACF7E3-2421-4EEA-928B-7BA9BC4A845D";
shapes = (
{
closed = 1;
nodes = (
(478,-176,l),
(626,1,ls),
(628,577,l),
(503,577,l),
(503,32,l),
(334,-176,l)
);
},
{
ref = taE;
}
);
width = 761;
}
);
unicode = 2959;
userData = {
com.fontlab.hintData = {
hhints = (
{
position = 1;
width = 122;
},
{
position = 238;
width = 123;
},
{
position = 472;
width = 105;
},
{
position = 472;
width = 123;
}
);
vhints = (
{
position = 2;
width = 124;
},
{
position = 2;
width = 131;
},
{
position = 2;
width = 171;
},
{
position = 280;
width = 123;
},
{
position = 447;
width = 123;
},
{
position = 447;
width = 123;
}
);
};
};
}
{
color = 0;
glyphname = taAi;
layers = (
{
layerId = "DC4431BF-9234-4C16-9154-22D387E42D10";
shapes = (
{
closed = 1;
nodes = (
(514,371,l),
(514,392,ls),
(514,584,o),
(425,694,o),
(270,694,cs),
(28,694,o),
(16,528,o),
(16,515,c),
(56,515,l),
(56,598,o),
(143,654,o),
(270,654,cs),
(384,654,o),
(465,594,o),
(474,394,cs),
(475,371,l)
);
},
{
closed = 1;
nodes = (
(258,-140,l),
(186,-140,o),
(105,-78,o),
(105,46,cs),
(105,172,o),
(182,196,o),
(227,196,cs),
(275,196,l),
(275,236,l),
(234,236,ls),
(110,236,o),
(65,138,o),
(65,64,cs),
(65,25,ls),
(65,-57,o),
(132,-180,o),
(258,-180,c)
);
},
{
closed = 1;
nodes = (
(369,-180,o),
(453,-170,o),
(491,-105,c),
(518,-162,o),
(569,-180,o),
(616,-180,c),
(616,-140,l),
(572,-140,o),
(513,-114,o),
(513,9,cs),
(513,118,l),
(474,117,l),
(474,8,ls),
(474,-129,o),
(383,-140,o),
(312,-140,c),
(312,-180,l)
);
},
{
closed = 1;
nodes = (
(293,288,o),
(368,345,o),
(373,408,c),
(341,442,l),
(341,374,o),
(275,328,o),
(204,328,cs),
(94,328,o),
(54,412,o),
(54,459,c),
(14,459,l),
(14,451,o),
(25,288,o),
(204,288,cs)
);
},
{
closed = 1;
nodes = (
(623,196,l),
(623,236,l),
(347,236,l),
(347,196,l)
);
},
{
closed = 1;
nodes = (
(770,-180,o),
(824,-87,o),
(824,-3,cs),
(824,118,l),
(784,118,l),
(784,-3,ls),
(784,-85,o),
(732,-140,o),
(670,-140,c),
(670,-180,l)
);
},
{
closed = 1;
nodes = (
(514,371,l),
(514,464,ls),
(514,620,o),
(586,637,o),
(621,644,c),
(621,684,l),
(533,676,o),
(475,606,o),
(475,480,cs),
(475,371,l)
);
},
{
closed = 1;
nodes = (
(761,197,o),
(839,248,o),
(839,387,cs),
(839,502,ls),
(839,617,o),
(761,678,o),
(675,684,c),
(675,644,l),
(712,639,o),
(799,618,o),
(799,502,cs),
(799,419,ls),
(799,358,o),
(793,238,o),
(689,238,c),
(689,197,l)
);
}
);
width = 893;
},
{
guides = (
{
pos = (813,242);
}
);
layerId = "4EACF7E3-2421-4EEA-928B-7BA9BC4A845D";
shapes = (
{
closed = 1;
nodes = (
(396,252,l),
(518,252,l),
(518,338,ls),
(518,404,o),
(551,421,o),
(581,422,c),
(581,570,l),
(479,570,o),
(413,503,o),
(413,436,c),
(493,436,l),
(493,503,o),
(411,570,o),
(284,570,cs),
(107,570,o),
(43,478,o),
(43,374,cs),
(43,302,o),
(96,232,o),
(170,232,c),
(170,335,l),
(159,335,o),
(144,350,o),
(144,373,cs),
(144,394,o),
(159,418,o),
(190,418,cs),
(221,418,o),
(237,391,o),
(237,372,cs),
(237,355,o),
(227,335,o),
(215,335,c),
(215,232,l),
(309,232,o),
(345,308,o),
(345,362,cs),
(345,458,o),
(266,471,o),
(220,471,c),
(254,436,l),
(370,451,o),
(396,400,o),
(396,307,cs)
);
},
{
closed = 1;
nodes = (
(771,58,o),
(839,171,o),
(839,331,cs),
(839,490,o),
(747,570,o),
(635,570,c),
(635,423,l),
(674,423,o),
(691,385,o),
(691,321,cs),
(691,241,o),
(640,207,o),
(559,207,cs),
(516,207,o),
(339,208,o),
(235,207,cs),
(129,206,o),
(27,132,o),
(27,10,cs),
(27,-163,o),
(154,-219,o),
(264,-220,cs),
(362,-221,o),
(461,-173,o),
(470,-98,c),
(385,-78,l),
(406,-129,o),
(456,-219,o),
(595,-219,cs),
(767,-219,o),
(835,-104,o),
(835,29,c),
(680,29,l),
(680,-18,o),
(663,-71,o),
(590,-71,cs),
(527,-71,o),
(497,-44,o),
(497,10,c),
(375,10,l),
(375,-48,o),
(331,-73,o),
(279,-73,cs),
(227,-73,o),
(190,-46,o),
(190,-2,cs),
(190,42,o),
(218,58,o),
(281,58,cs),
(602,58,l)
);
}
);
width = 887;
}
);
unicode = 2960;
userData = {
com.fontlab.hintData = {
hhints = (
{
position = -180;
width = 122;
},
{
position = 158;
width = 122;
},
{
position = 307;
width = 125;
},
{
position = 569;
width = 127;
}
);
vhints = (
{
position = 12;
width = 122;
},
{
position = 27;
width = 122;
},
{
position = 274;
width = 122;
},
{
position = 433;
width = 122;
},
{
position = 756;
width = 122;
}
);
};
};
}
{
color = 0;
glyphname = taO;
layers = (
{
layerId = "DC4431BF-9234-4C16-9154-22D387E42D10";
shapes = (
{
closed = 1;
nodes = (
(779,398,ls),
(779,494,o),
(679,695,o),
(442,695,c),
(442,655,l),
(643,655,o),
(739,488,o),
(739,398,cs),
(739,164,l),
(733,30,o),
(486,47,o),
(486,162,cs),
(486,350,l),
(446,350,l),
(446,166,ls),
(446,-16,o),
(779,-17,o),
(779,165,cs)
);
},
{
closed = 1;
nodes = (
(493,-134,l),
(429,-252,o),
(281,-243,o),
(226,-114,c),
(185,-124,l),
(253,-296,o),
(451,-298,o),
(530,-155,c)
);
},
{
closed = 1;
nodes = (
(192,70,l),
(142,70,o),
(79,121,o),
(79,211,cs),
(79,325,o),
(155,349,o),
(192,349,c),
(192,389,l),
(116,389,o),
(40,330,o),
(40,226,cs),
(40,202,ls),
(40,118,o),
(104,30,o),
(192,30,c)
);
},
{
closed = 1;
nodes = (
(319,30,o),
(384,105,o),
(383,203,c),
(383,226,ls),
(383,322,o),
(320,389,o),
(247,389,c),
(247,349,l),
(289,349,o),
(341,312,o),
(341,213,cs),
(341,118,o),
(291,70,o),
(247,70,c),
(247,30,l)
);
},
{
closed = 1;
nodes = (
(715,-92,l),
(619,-94,o),
(486,-61,o),
(486,27,cs),
(486,175,l),
(446,276,l),
(446,25,ls),
(446,-66,o),
(552,-132,o),
(715,-132,c)
);
},
{
closed = 1;
nodes = (
(82,332,l),
(90,502,o),
(178,655,o),
(389,655,c),
(389,695,l),
(117,695,o),
(40,467,o),
(40,310,c),
(40,228,l)
);
}
);
width = 819;
},
{
layerId = "4EACF7E3-2421-4EEA-928B-7BA9BC4A845D";
shapes = (
{
closed = 1;
nodes = (
(857,398,ls),
(857,494,o),
(745,695,o),
(479,695,c),
(479,573,l),
(641,573,o),
(733,458,o),
(733,398,cs),
(733,196,ls),
(732,136,o),
(606,137,o),
(606,196,c),
(606,350,l),
(483,350,ls),
(483,166,ls),
(483,-16,o),
(857,-17,o),
(857,165,cs)
);
},
{
closed = 1;
nodes = (
(462,-94,ls),
(430,-156,o),
(336,-151,o),
(308,-94,c),
(189,-124,l),
(244,-298,o),
(501,-297,o),
(567,-155,c)
);
},
{
closed = 1;
nodes = (
(210,152,l),
(180,152,o),
(163,173,o),
(163,210,cs),
(163,246,o),
(181,266,o),
(210,266,cs),
(210,389,l),
(160,389,o),
(38,354,o),
(39,250,cs),
(39,177,ls),
(39,124,o),
(108,29,o),
(210,29,cs)
);
},
{
closed = 1;
nodes = (
(364,29,o),
(439,115,o),
(439,177,cs),
(439,248,ls),
(439,309,o),
(364,389,o),
(265,389,cs),
(265,266,l),
(305,266,o),
(316,244,o),
(317,210,cs),
(318,174,o),
(299,152,o),
(265,152,cs),
(265,29,l)
);
},
{
closed = 1;
nodes = (
(752,-9,ls),
(678,-9,o),
(604,3,o),
(604,52,cs),
(604,171,ls),
(483,276,l),
(483,25,ls),
(483,-66,o),
(589,-132,o),
(752,-132,c)
);
},
{
closed = 1;
nodes = (
(179,357,l),
(179,456,o),
(243,573,o),
(426,573,c),
(426,695,ls),
(121,695,o),
(39,457,o),
(39,315,c),
(39,249,l)
);
}
);
width = 895;
}
);
unicode = 2962;
}
{
color = 0;
glyphname = taOo;
layers = (
{
layerId = "DC4431BF-9234-4C16-9154-22D387E42D10";
shapes = (
{
closed = 1;
nodes = (
(779,398,ls),
(779,494,o),
(679,695,o),
(442,695,c),
(442,655,l),
(643,655,o),
(739,488,o),
(739,398,cs),
(739,164,l),
(733,30,o),
(486,47,o),
(486,162,cs),
(486,350,l),
(446,350,l),
(446,166,ls),
(446,-16,o),
(779,-17,o),
(779,165,cs)
);
},
{
closed = 1;
nodes = (
(448,-302,o),
(517,-231,o),
(549,-163,c),
(514,-143,l),
(502,-166,o),
(499,-172,o),
(491,-183,cs),
(405,-305,o),
(222,-276,o),
(222,-143,cs),
(222,-90,o),
(246,-21,o),
(349,-21,c),
(349,19,l),
(221,19,o),
(182,-64,o),
(182,-141,cs),
(182,-226,o),
(244,-300,o),
(345,-301,cs)
);
},
{
closed = 1;
nodes = (
(192,70,l),
(142,70,o),
(79,121,o),
(79,211,cs),
(79,325,o),
(155,349,o),
(192,349,c),
(192,389,l),
(116,389,o),
(40,330,o),
(40,226,cs),
(40,202,ls),
(40,118,o),
(104,30,o),
(192,30,c)
);
},
{
closed = 1;
nodes = (
(319,30,o),
(384,105,o),
(383,203,c),
(383,226,ls),
(383,322,o),
(320,389,o),
(247,389,c),
(247,349,l),
(289,349,o),
(341,312,o),
(341,213,cs),
(341,118,o),
(291,70,o),
(247,70,c),
(247,30,l)
);
},
{
closed = 1;
nodes = (
(715,-92,l),
(619,-94,o),
(486,-61,o),
(486,27,cs),
(486,175,l),
(446,276,l),
(446,25,ls),
(446,-66,o),
(552,-132,o),
(715,-132,c)
);
},
{
closed = 1;
nodes = (
(82,332,l),
(90,502,o),
(178,655,o),
(389,655,c),
(389,695,l),
(117,695,o),
(40,467,o),
(40,310,cs),
(40,228,l)
);
}
);
width = 819;
},
{
layerId = "4EACF7E3-2421-4EEA-928B-7BA9BC4A845D";
shapes = (
{
closed = 1;
nodes = (
(857,398,ls),
(857,494,o),
(745,695,o),
(479,695,c),
(479,573,l),
(641,573,o),
(733,458,o),
(733,398,cs),
(733,196,ls),
(732,136,o),
(606,137,o),
(606,196,c),
(606,350,l),
(483,350,ls),
(483,166,ls),
(483,-16,o),
(857,-17,o),
(857,165,cs)
);
},
{
closed = 1;
nodes = (
(488,-302,o),
(563,-206,o),
(586,-163,c),
(474,-98,l),
(462,-121,o),
(459,-127,o),
(451,-138,cs),
(404,-203,o),
(339,-176,o),
(339,-141,cs),
(339,-115,o),
(361,-104,o),
(386,-104,c),
(386,19,l),
(256,19,o),
(216,-64,o),
(216,-141,cs),
(216,-226,o),
(279,-300,o),
(382,-301,cs)
);
},
{
closed = 1;
nodes = (
(210,152,l),
(180,152,o),
(163,173,o),
(163,210,cs),
(163,246,o),
(181,266,o),
(210,266,cs),
(210,389,l),
(160,389,o),
(38,354,o),
(39,250,cs),
(39,177,ls),
(39,124,o),
(108,29,o),
(210,29,cs)
);
},
{
closed = 1;
nodes = (
(364,29,o),
(439,115,o),
(439,177,cs),
(439,248,ls),
(439,309,o),
(364,389,o),
(265,389,cs),
(265,266,l),
(305,266,o),
(316,244,o),
(317,210,cs),
(318,174,o),
(299,152,o),
(265,152,cs),
(265,29,l)
);
},
{
closed = 1;
nodes = (
(752,-9,ls),
(678,-9,o),
(604,3,o),
(604,52,cs),
(604,171,ls),
(483,276,l),
(483,25,ls),
(483,-66,o),
(589,-132,o),
(752,-132,c)
);
},
{
closed = 1;
nodes = (
(179,357,l),
(179,456,o),
(243,573,o),
(426,573,c),
(426,695,ls),
(121,695,o),
(39,452,o),
(39,310,c),
(39,256,l)
);
}
);
width = 895;
}
);
unicode = 2963;
userData = {
com.fontlab.hintData = {
hhints = (
{
position = -132;
width = 123;
},
{
position = 29;
width = 122;
},
{
position = 266;
width = 123;
},
{
position = 573;
width = 122;
}
);
vhints = (
{
position = 2;
width = 171;
},
{
position = 2;
width = 124;
},
{
position = 179;
width = 123;
},
{
position = 280;
width = 123;
},
{
position = 446;
width = 123;
},
{
position = 696;
width = 123;
}
);
};
};
}
{
color = 0;
glyphname = taKa;
layers = (
{
anchors = (
{
name = tml_virama;
pos = (392,1);
}
);
layerId = "DC4431BF-9234-4C16-9154-22D387E42D10";
shapes = (
{
closed = 1;
nodes = (
(718,196,l),
(718,325,o),
(665,371,o),
(553,371,cs),
(212,371,ls),
(171,371,o),
(60,362,o),
(60,208,c),
(100,208,l),
(100,276,o),
(123,331,o),
(215,331,cs),
(541,331,ls),
(641,331,o),
(678,296,o),
(678,196,c)
);
},
{
closed = 1;
nodes = (
(249,29,l),
(167,29,o),
(107,78,o),
(101,172,c),
(60,172,l),
(63,76,o),
(126,-11,o),
(249,-11,c)
);
},
{
closed = 1;
nodes = (
(225,348,l),
(226,561,l),
(185,561,l),
(185,348,l)
);
},
{
closed = 1;
nodes = (
(439,-11,o),
(482,95,o),
(482,191,cs),
(482,563,l),
(442,563,l),
(442,191,ls),
(442,75,o),
(378,29,o),
(303,29,c),
(303,-11,l)
);
},
{
closed = 1;
nodes = (
(625,-11,o),
(712,68,o),
(717,160,c),
(674,161,l),
(669,80,o),
(590,29,o),
(502,29,c),
(502,-11,l)
);
},
{
closed = 1;
nodes = (
(307,555,l),
(307,595,l),
(185,595,l),
(185,555,l)
);
},
{
closed = 1;
nodes = (
(614,555,l),
(614,595,l),
(361,595,l),
(361,555,l)
);
}
);
width = 778;
},
{
anchors = (
{
name = tml_virama;
pos = (431,0);
}
);
layerId = "4EACF7E3-2421-4EEA-928B-7BA9BC4A845D";
shapes = (
{
closed = 1;
nodes = (
(441,-8,o),
(515,65,o),
(515,188,c),
(515,279,l),
(520,313,l),
(519,439,l),
(384,439,l),
(384,313,l),
(379,279,l),
(379,204,ls),
(379,147,o),
(366,131,o),
(317,131,c),
(317,-8,l)
);
},
{
closed = 1;
nodes = (
(613,432,l),
(613,553,l),
(341,553,l),
(341,432,l)
);
},
{
closed = 1;
nodes = (
(247,354,l),
(248,432,l),
(287,432,l),
(287,553,l),
(114,553,l),
(114,298,l)
);
},
{
closed = 1;
nodes = (
(11,76,o),
(91,-8,o),
(202,-8,cs),
(261,-8,l),
(261,131,l),
(216,131,ls),
(175,131,o),
(150,150,o),
(150,184,cs),
(150,218,o),
(176,242,o),
(216,242,cs),
(549,242,ls),
(587,242,o),
(607,221,o),
(607,184,cs),
(607,148,o),
(589,131,o),
(555,131,c),
(555,0,l),
(673,0,o),
(746,69,o),
(746,184,cs),
(746,296,o),
(677,364,o),
(560,364,cs),
(208,364,ls),
(93,364,o),
(11,293,o),
(11,184,cs)
);
}
);
width = 776;
}
);
unicode = 2965;
userData = {
com.fontlab.hintData = {
hhints = (
{
position = -11;
width = 123;
},
{
position = 2;
width = 124;
},
{
position = 249;
width = 122;
},
{
position = 348;
width = 23;
},
{
position = 470;
width = 125;
},
{
position = 470;
width = 71;
}
);
vhints = (
{
position = 20;
width = 121;
},
{
position = 145;
width = 162;
},
{
position = 145;
width = 122;
},
{
position = 400;
width = 122;
},
{
position = 636;
width = 122;
}
);
};
};
}
{
color = 0;
glyphname = taNga;
layers = (
{
anchors = (
{
name = tml_virama;
pos = (301,0);
}
);
layerId = "DC4431BF-9234-4C16-9154-22D387E42D10";
shapes = (
{
closed = 1;
nodes = (
(419,0,ls),
(483,0,o),
(561,33,o),
(561,118,cs),
(561,229,ls),
(561,322,o),
(478,354,o),
(392,354,c),
(392,314,l),
(442,314,o),
(521,304,o),
(521,224,cs),
(521,123,ls),
(521,70,o),
(483,40,o),
(419,40,cs),
(251,40,l),
(251,0,l)
);
},
{
closed = 1;
nodes = (
(97,0,l),
(97,591,l),
(57,591,l),
(57,0,l)
);
},
{
closed = 1;
nodes = (
(698,0,l),
(698,40,l),
(309,40,l),
(309,0,l)
);
},
{
closed = 1;
nodes = (
(338,80,l),
(338,589,l),
(298,589,l),
(298,80,l)
);
},
{
closed = 1;
nodes = (
(447,555,l),
(447,595,l),
(57,595,l),
(58,555,l)
);
},
{
closed = 1;
nodes = (
(791,0,l),
(791,595,l),
(751,595,l),
(751,0,l)
);
}
);
width = 841;
},
{
anchors = (
{
name = tml_virama;
pos = (301,0);
}
);
layerId = "4EACF7E3-2421-4EEA-928B-7BA9BC4A845D";
shapes = (
{
closed = 1;
nodes = (
(471,0,ls),
(565,0,o),
(626,43,o),
(626,111,cs),
(626,229,ls),
(626,322,o),
(543,354,o),
(457,354,c),
(457,231,ls),
(507,231,o),
(503,232,o),
(503,211,cs),
(503,145,ls),
(503,126,o),
(506,122,o),
(448,122,c),
(275,122,l),
(275,0,l)
);
},
{
closed = 1;
nodes = (
(161,0,l),
(161,591,l),
(39,591,l),
(39,0,l)
);
},
{
closed = 1;
nodes = (
(681,0,l),
(681,122,l),
(333,122,l),
(333,0,l)
);
},
{
closed = 1;
nodes = (
(403,162,l),
(403,589,l),
(281,589,l),
(281,162,l)
);
},
{
closed = 1;
nodes = (
(512,473,l),
(512,595,l),
(39,595,l),
(40,473,l)
);
},
{
closed = 1;
nodes = (
(856,0,l),
(856,595,l),
(734,595,l),
(734,0,l)
);
}
);
width = 895;
}
);
unicode = 2969;
userData = {
com.fontlab.hintData = {
hhints = (
{
position = 0;
width = 122;
}
);
vhints = (
{
position = 479;
width = 123;
},
{
position = 710;
width = 122;
}
);
};
};
}
{
color = 0;
glyphname = taCa;
layers = (
{
anchors = (
{
name = tml_virama;
pos = (311,0);
}
);
layerId = "DC4431BF-9234-4C16-9154-22D387E42D10";
shapes = (
{
closed = 1;
nodes = (
(420,-1,o),
(463,95,o),
(463,191,cs),
(463,588,l),
(423,588,l),
(423,187,ls),
(423,98,o),
(378,39,o),
(283,39,c),
(283,-1,l)
);
},
{
closed = 1;
nodes = (
(230,39,l),
(154,39,o),
(82,88,o),
(82,158,c),
(41,158,l),
(41,109,o),
(72,0,o),
(230,-1,c)
);
},
{
closed = 1;
nodes = (
(81,204,l),
(81,293,o),
(147,331,o),
(239,331,cs),
(565,331,l),
(565,371,l),
(246,371,ls),
(113,371,o),
(40,306,o),
(40,204,c)
);
},
{
closed = 1;
nodes = (
(205,348,l),
(206,586,l),
(165,586,l),
(165,348,l)
);
},
{
closed = 1;
nodes = (
(288,555,l),
(288,595,l),
(165,595,l),
(165,555,l)
);
},
{
closed = 1;
nodes = (
(610,555,l),
(610,595,l),
(342,595,l),
(342,555,l)
);
}
);
width = 668;
},
{
anchors = (
{
name = tml_virama;
pos = (372,-1);
}
);
layerId = "4EACF7E3-2421-4EEA-928B-7BA9BC4A845D";
shapes = (
{
closed = 1;
nodes = (
(498,-1,o),
(541,95,o),
(541,191,cs),
(541,588,l),
(419,588,l),
(419,187,ls),
(419,141,o),
(397,121,o),
(331,121,c),
(331,-1,l)
);
},
{
closed = 1;
nodes = (
(278,121,l),
(195,121,o),
(160,128,o),
(160,163,c),
(39,163,l),
(39,68,o),
(94,0,o),
(278,-1,c)
);
},
{
closed = 1;
nodes = (
(161,213,l),
(161,242,o),
(180,249,o),
(238,249,cs),
(643,249,l),
(643,371,l),
(235,371,ls),
(145,371,o),
(39,325,o),
(39,213,c)
);
},
{
closed = 1;
nodes = (
(286,348,l),
(287,586,l),
(164,586,l),
(164,348,l)
);
},
{
closed = 1;
nodes = (
(327,470,l),
(327,589,l),
(164,589,l),
(164,470,l)
);
},
{
closed = 1;
nodes = (
(688,470,l),
(688,589,l),
(381,589,l),
(381,470,l)
);
}
);
width = 744;
}
);
unicode = 2970;
userData = {
com.fontlab.hintData = {
hhints = (
{
position = -1;
width = 123;
},
{
position = 249;
width = 122;
},
{
position = 348;
width = 23;
},
{
position = 470;
width = 125;
},
{
position = 470;
width = 118;
}
);
vhints = (
{
position = 1;
width = 121;
},
{
position = 126;
width = 163;
},
{
position = 126;
width = 122;
},
{
position = 381;
width = 122;
}
);
};
};
}
{
color = 0;
glyphname = taJa;
layers = (
{
anchors = (
{
name = tml_virama;
pos = (511,0);
}
);
layerId = "DC4431BF-9234-4C16-9154-22D387E42D10";
shapes = (
{
closed = 1;
nodes = (
(265,-140,l),
(193,-140,o),
(112,-78,o),
(112,46,cs),
(112,172,o),
(189,196,o),
(234,196,cs),
(672,196,ls),
(752,196,o),
(844,218,o),
(846,387,cs),
(846,502,ls),
(846,617,o),
(768,678,o),
(682,684,c),
(682,644,l),
(719,639,o),
(806,618,o),
(806,502,cs),
(806,419,ls),
(802,291,o),
(792,236,o),
(658,236,cs),
(241,236,ls),
(117,236,o),
(72,138,o),
(72,64,cs),
(72,25,ls),
(72,-57,o),
(139,-180,o),
(265,-180,c)
);
},
{
closed = 1;
nodes = (
(433,-180,o),
(501,-135,o),
(508,-59,cs),
(519,65,o),
(508,100,o),
(567,100,cs),
(600,100,l),
(600,140,l),
(565,140,ls),
(478,140,o),
(475,82,o),
(469,-23,cs),
(463,-125,o),
(401,-140,o),
(326,-140,c),
(326,-180,l)
);
},
{
closed = 1;
nodes = (
(710,-177,o),
(840,-151,o),
(840,-16,cs),
(840,97,o),
(741,140,o),
(654,140,c),
(654,100,l),
(686,99,o),
(798,90,o),
(800,-14,cs),
(802,-138,o),
(626,-137,o),
(555,-137,c),
(555,-177,l)
);
},
{
closed = 1;
nodes = (
(185,343,l),
(163,343,o),
(88,380,o),
(88,481,cs),
(88,596,o),
(169,649,o),
(214,649,cs),
(266,649,o),
(342,612,o),
(342,499,cs),
(342,394,o),
(263,344,o),
(239,344,c),
(239,307,l),
(314,307,o),
(379,410,o),
(379,471,cs),
(379,499,ls),
(379,604,o),
(322,685,o),
(208,686,cs),
(158,686,o),
(48,581,o),
(48,496,c),
(47,471,l),
(47,397,o),
(105,307,o),
(185,307,c)
);
},
{
closed = 1;
nodes = (
(521,320,l),
(521,460,ls),
(521,592,o),
(450,696,o),
(280,696,cs),
(76,696,o),
(47,537,o),
(47,482,cs),
(47,472,l),
(85,483,l),
(87,616,o),
(167,660,o),
(281,660,cs),
(441,660,o),
(482,537,o),
(482,481,cs),
(482,320,l)
);
},
{
closed = 1;
nodes = (
(521,371,l),
(521,464,ls),
(521,620,o),
(593,637,o),
(628,644,c),
(628,684,l),
(540,676,o),
(482,606,o),
(482,480,cs),
(482,371,l)
);
}
);
width = 886;
},
{
anchors = (
{
name = tml_virama;
pos = (511,0);
}
);
layerId = "4EACF7E3-2421-4EEA-928B-7BA9BC4A845D";
shapes = (
{
closed = 1;
nodes = (
(286,-58,l),
(210,-58,o),
(177,-19,o),
(177,46,cs),
(177,93,o),
(196,158,o),
(255,158,cs),
(736,158,ls),
(816,158,o),
(908,218,o),
(910,387,cs),
(910,448,l),
(910,597,o),
(820,676,o),
(718,684,c),
(718,561,l),
(765,554,o),
(786,512,o),
(786,448,c),
(786,409,ls),
(786,349,o),
(793,281,o),
(718,281,cs),
(262,281,ls),
(125,281,o),
(55,164,o),
(55,83,cs),
(55,11,ls),
(55,-92,o),
(164,-180,o),
(286,-180,c)
);
},
{
closed = 1;
nodes = (
(463,-178,o),
(528,-108,o),
(529,-59,cs),
(531,13,o),
(556,17,o),
(580,16,c),
(664,16,l),
(664,140,l),
(598,140,l),
(501,140,o),
(412,90,o),
(410,-1,cs),
(409,-50,o),
(387,-55,o),
(347,-55,c),
(347,-178,l)
);
},
{
closed = 1;
nodes = (
(774,-177,o),
(904,-151,o),
(904,-16,cs),
(904,97,o),
(805,140,o),
(718,140,c),
(718,16,l),
(758,15,o),
(782,7,o),
(782,-14,cs),
(782,-60,o),
(682,-55,o),
(619,-55,cs),
(619,-177,ls)
);
},
{
closed = 1;
nodes = (
(206,431,l),
(183,439,o),
(162,466,o),
(162,499,cs),
(162,538,o),
(193,569,o),
(232,569,cs),
(271,569,o),
(302,538,o),
(302,499,cs),
(302,467,o),
(282,440,o),
(260,432,c),
(260,307,l),
(342,307,o),
(424,410,o),
(424,471,cs),
(424,499,ls),
(424,588,o),
(342,700,o),
(229,686,cs),
(136,674,o),
(41,581,o),
(41,496,cs),
(40,471,ls),
(40,402,o),
(119,307,o),
(206,307,c)
);
},
{
closed = 1;
nodes = (
(583,320,l),
(583,408,ls),
(583,612,o),
(446,696,o),
(301,696,c),
(72,696,o),
(40,537,o),
(40,482,cs),
(40,472,l),
(159,483,l),
(159,587,o),
(263,582,o),
(304,582,cs),
(352,582,o),
(461,543,o),
(461,408,cs),
(461,320,l)
);
},
{
closed = 1;
nodes = (
(583,371,l),
(583,451,ls),
(583,517,o),
(624,553,o),
(664,561,c),
(664,684,l),
(571,675,o),
(461,601,o),
(461,468,cs),
(461,371,l)
);
}
);
width = 950;
}
);
unicode = 2972;
userData = {
com.fontlab.hintData = {
hhints = (
{
position = -180;
width = 40;
},
{
position = 100;
width = 40;
},
{
position = 196;
width = 40;
},
{
position = 307;
width = 36;
},
{
position = 644;
width = 40;
},
{
position = 649;
width = 47;
},
{
position = 660;
width = 26;
}
);
vhints = (
{
position = 47;
width = 41;
},
{
position = 72;
width = 40;
},
{
position = 342;
width = 37;
},
{
position = 482;
width = 39;
},
{
position = 806;
width = 40;
}
);
};
};
}
{
color = 0;
glyphname = taNya;
layers = (
{
anchors = (
{
name = tml_virama;
pos = (631,0);
}
);
layerId = "DC4431BF-9234-4C16-9154-22D387E42D10";
shapes = (
{
closed = 1;
nodes = (
(501,-163,l),
(501,-123,l),
(243,-123,ls),
(141,-123,o),
(93,-64,o),
(93,-2,cs),
(93,421,ls),
(93,484,o),
(139,556,o),
(252,556,c),
(252,596,l),
(110,596,o),
(52,501,o),
(53,414,cs),
(53,2,ls),
(53,-109,o),
(138,-163,o),
(247,-163,cs)
);
},
{
closed = 1;
nodes = (
(791,-165,ls),
(926,-165,o),
(984,-82,o),
(984,26,cs),
(984,154,ls),
(984,296,o),
(900,323,o),
(815,323,c),
(815,283,l),
(896,283,o),
(944,259,o),
(944,154,cs),
(944,26,ls),
(944,-89,o),
(870,-125,o),
(791,-125,cs),
(556,-125,l),
(556,-165,l)
);
},
{
pos = (234,0);
ref = taE;
}
);
width = 1031;
},
{
anchors = (
{
name = tml_virama;
pos = (631,0);
}
);
layerId = "4EACF7E3-2421-4EEA-928B-7BA9BC4A845D";
shapes = (
{
closed = 1;
nodes = (
(543,-208,l),
(543,-86,l),
(259,-86,ls),
(195,-86,o),
(171,-67,o),
(171,-3,cs),
(171,382,ls),
(171,418,o),
(174,475,o),
(248,475,cs),
(248,597,ls),
(163,597,o),
(49,550,o),
(49,387,cs),
(49,-2,ls),
(49,-141,o),
(134,-208,o),
(243,-208,cs)
);
},
{
closed = 1;
nodes = (
(836,-208,ls),
(1010,-208,o),
(1049,-125,o),
(1049,-17,cs),
(1049,154,ls),
(1049,296,o),
(965,323,o),
(880,323,c),
(880,201,ls),
(922,201,o),
(927,200,o),
(927,154,cs),
(926,-17,ls),
(926,-66,o),
(925,-86,o),
(863,-86,cs),
(598,-86,l),
(598,-208,l)
);
},
{
pos = (220,0);
ref = taE;
}
);
width = 1088;
}
);
unicode = 2974;
userData = {
com.fontlab.hintData = {
hhints = (
{
position = -165;
width = 122;
},
{
position = 1;
width = 122;
},
{
position = 238;
width = 123;
},
{
position = 472;
width = 105;
},
{
position = 472;
width = 123;
}
);
vhints = (
{
position = 273;
width = 124;
},
{
position = 273;
width = 131;
},
{
position = 273;
width = 171;
},
{
position = 551;
width = 123;
},
{
position = 718;
width = 123;
},
{
position = 940;
width = 123;
}
);
};
com.typemytype.robofont.guides = (
{
}
);
};
}
{
color = 0;
glyphname = taTta;
layers = (
{
anchors = (
{
name = tml_virama;
pos = (331,0);
}
);
layerId = "DC4431BF-9234-4C16-9154-22D387E42D10";
shapes = (
{
closed = 1;
nodes = (
(134,95,l),
(134,596,l),
(93,596,l),
(93,95,l)
);
},
{
closed = 1;
nodes = (
(571,0,l),
(571,40,l),
(93,40,l),
(93,0,l)
);
}
);
width = 642;
},
{
anchors = (
{
name = tml_virama;
pos = (331,0);
}
);
layerId = "4EACF7E3-2421-4EEA-928B-7BA9BC4A845D";
shapes = (
{
closed = 1;
nodes = (
(587,0,l),
(587,138,l),
(166,138,l),
(165,553,l),
(27,553,l),
(28,138,l),
(27,0,l)
);
}
);
width = 625;
}
);
unicode = 2975;
userData = {
com.fontlab.hintData = {
hhints = (
{
position = 0;
width = 122;
}
);
vhints = (
{
position = 42;
width = 122;
}
);
};
};
}
{
color = 0;
glyphname = taNna;
layers = (
{
anchors = (
{
name = tml_virama;
pos = (781,0);
}
);
layerId = "DC4431BF-9234-4C16-9154-22D387E42D10";
shapes = (
{
closed = 1;
nodes = (
(613,-11,o),
(647,65,o),
(647,157,cs),
(647,301,ls),
(647,594,o),
(407,606,o),
(347,606,c),
(347,566,l),
(546,566,o),
(607,440,o),
(607,306,cs),
(607,157,ls),
(607,75,o),
(583,29,o),
(542,29,c),
(542,-11,l)
);
},
{
closed = 1;
nodes = (
(266,-12,o),
(302,60,o),
(302,156,cs),
(302,292,ls),
(302,370,o),
(281,429,o),
(212,429,cs),
(193,429,o),
(170,413,o),
(173,400,c),
(260,400,o),
(262,348,o),
(262,292,cs),
(262,156,ls),
(262,62,o),
(231,28,o),
(199,28,c),
(199,-12,l)
);
},
{
closed = 1;
nodes = (
(143,28,l),
(114,28,o),
(80,62,o),
(81,157,c),
(80,290,ls),
(79,403,o),
(114,565,o),
(293,566,c),
(293,606,l),
(218,606,o),
(40,570,o),
(40,290,cs),
(40,156,ls),
(40,71,o),
(74,-12,o),
(143,-12,c)
);
},
{
closed = 1;
nodes = (
(489,29,l),
(451,29,o),
(424,77,o),
(424,158,cs),
(424,290,ls),
(424,477,o),
(524,565,o),
(675,565,c),
(675,605,l),
(618,606,o),
(384,584,o),
(384,288,cs),
(384,157,ls),
(384,72,o),
(419,-11,o),
(489,-11,c)
);
},
{
closed = 1;
nodes = (
(952,-10,o),
(991,65,o),
(991,157,cs),
(991,300,ls),
(991,593,o),
(787,605,o),
(729,605,c),
(729,565,l),
(921,564,o),
(951,415,o),
(951,305,cs),
(951,157,ls),
(951,78,o),
(923,30,o),
(886,30,c),
(886,-10,l)
);
},
{
closed = 1;
nodes = (
(832,30,l),
(799,30,o),
(768,72,o),
(768,158,cs),
(768,289,ls),
(768,479,o),
(875,566,o),
(1019,566,c),
(1019,606,l),
(966,607,o),
(728,587,o),
(728,287,cs),
(728,157,ls),
(728,72,o),
(764,-10,o),
(832,-10,c)
);
},
{
closed = 1;
nodes = (
(1123,1,l),
(1123,575,l),
(1083,575,l),
(1083,1,l)
);
},
{
closed = 1;
nodes = (
(1220,566,l),
(1220,606,l),
(1074,606,l),
(1074,566,l)
);
}
);
width = 1260;
},
{
anchors = (
{
name = tml_virama;
pos = (781,0);
}
);
layerId = "4EACF7E3-2421-4EEA-928B-7BA9BC4A845D";
shapes = (
{
closed = 1;
nodes = (
(40,79,o),
(117,-8,o),
(213,-8,c),
(213,114,l),
(190,114,o),
(165,144,o),
(165,177,cs),
(165,214,o),
(195,245,o),
(237,245,cs),
(279,245,o),
(312,213,o),
(312,174,cs),
(312,143,o),
(290,115,o),
(266,114,c),
(266,-8,l),
(362,-8,o),
(434,77,o),
(434,178,cs),
(434,288,o),
(349,368,o),
(247,368,cs),
(194,368,o),
(156,347,o),
(117,301,c),
(171,320,l),
(171,395,o),
(223,432,o),
(326,432,c),
(326,564,l),
(158,564,o),
(40,460,o),
(40,312,cs),
(40,186,ls)
);
},
{
closed = 1;
nodes = (
(471,432,o),
(544,409,o),
(584,369,c),
(535,436,l),
(504,402,o),
(484,343,o),
(484,287,cs),
(484,167,ls),
(484,76,o),
(553,-8,o),
(629,-8,c),
(629,114,l),
(613,114,o),
(606,137,o),
(606,176,cs),
(606,269,ls),
(606,335,o),
(619,358,o),
(658,358,cs),
(696,358,o),
(707,337,o),
(707,269,cs),
(707,176,ls),
(707,137,o),
(700,114,o),
(682,114,c),
(682,-8,l),
(769,-8,o),
(829,63,o),
(829,167,cs),
(829,300,ls),
(829,355,o),
(814,390,o),
(777,424,c),
(815,439,o),
(823,440,o),
(847,440,cs),
(882,440,o),
(887,438,o),
(925,423,c),
(899,390,o),
(883,337,o),
(883,287,cs),
(883,167,ls),
(883,76,o),
(952,-8,o),
(1028,-8,c),
(1028,114,l),
(1012,114,o),
(1005,137,o),
(1005,176,cs),
(1005,269,ls),
(1005,335,o),
(1018,358,o),
(1057,358,cs),
(1095,358,o),
(1106,337,o),
(1106,269,cs),
(1106,176,ls),
(1106,137,o),
(1099,114,o),
(1081,114,c),
(1081,-8,l),
(1168,-8,o),
(1228,63,o),
(1228,167,cs),
(1228,300,ls),
(1228,355,o),
(1213,390,o),
(1176,424,c),
(1183,427,o),
(1204,430,o),
(1229,432,c),
(1292,432,l),
(1292,0,l),
(1432,0,l),
(1432,432,l),
(1508,432,l),
(1508,564,l),
(1217,563,l),
(1107,564,o),
(1047,540,o),
(1008,478,c),
(1082,478,l),
(1037,528,o),
(931,564,o),
(839,564,cs),
(744,564,o),
(653,526,o),
(600,468,c),
(695,466,l),
(636,523,o),
(504,564,o),
(380,564,c),
(380,432,l)
);
}
);
width = 1538;
}
);
unicode = 2979;
}
{
color = 0;
glyphname = taTa;
layers = (
{
anchors = (
{
name = tml_virama;
pos = (351,0);
}
);
layerId = "DC4431BF-9234-4C16-9154-22D387E42D10";
shapes = (
{
closed = 1;
nodes = (
(111,-256,l),
(111,-154,o),
(132,-125,o),
(177,-125,cs),
(422,-125,ls),
(575,-125,o),
(655,-36,o),
(655,57,cs),
(655,151,l),
(615,151,l),
(615,59,ls),
(615,-18,o),
(548,-85,o),
(421,-85,cs),
(185,-85,ls),
(120,-85,o),
(71,-112,o),
(71,-256,c)
);
},
{
closed = 1;
nodes = (
(231,42,l),
(175,42,o),
(86,54,o),
(80,165,c),
(40,165,l),
(40,72,o),
(98,2,o),
(231,2,c)
);
},
{
closed = 1;
nodes = (
(78,205,l),
(78,309,o),
(181,334,o),
(226,334,cs),
(498,334,ls),
(544,334,o),
(615,334,o),
(615,205,c),
(655,205,l),
(655,352,o),
(576,374,o),
(486,374,cs),
(236,374,ls),
(139,374,o),
(40,325,o),
(40,205,c)
);
},
{
closed = 1;
nodes = (
(206,351,l),
(206,589,l),
(165,589,l),
(165,351,l)
);
},
{
closed = 1;
nodes = (
(420,2,o),
(463,98,o),
(463,194,cs),
(463,591,l),
(423,591,l),
(423,190,ls),
(423,89,o),
(371,42,o),
(284,42,c),
(284,2,l)
);
},
{
closed = 1;
nodes = (
(288,555,l),
(288,595,l),
(165,595,l),
(165,555,l)
);
},
{
closed = 1;
nodes = (
(595,555,l),
(595,595,l),
(342,595,l),
(342,555,l)
);
}
);
width = 695;
},
{
anchors = (
{
name = tml_virama;
pos = (351,0);
}
);
layerId = "4EACF7E3-2421-4EEA-928B-7BA9BC4A845D";
shapes = (
{
closed = 1;
nodes = (
(178,-306,l),
(178,-230,o),
(191,-208,o),
(232,-208,cs),
(560,-208,ls),
(713,-208,o),
(733,-92,o),
(733,-26,cs),
(733,151,l),
(611,151,l),
(610,-26,ls),
(610,-56,o),
(608,-86,o),
(559,-86,cs),
(249,-86,ls),
(113,-86,o),
(50,-157,o),
(50,-306,c)
);
},
{
closed = 1;
nodes = (
(269,125,l),
(196,125,o),
(169,120,o),
(162,157,c),
(39,157,l),
(39,64,o),
(109,2,o),
(269,2,c)
);
},
{
closed = 1;
nodes = (
(733,205,l),
(733,352,o),
(655,374,o),
(564,374,c),
(235,374,ls),
(138,374,o),
(39,332,o),
(39,212,c),
(160,212,l),
(160,252,o),
(181,252,o),
(238,252,cs),
(576,251,l),
(618,251,o),
(611,205,o),
(611,205,cs)
);
},
{
closed = 1;
nodes = (
(286,351,l),
(287,589,l),
(164,589,l),
(164,351,l)
);
},
{
closed = 1;
nodes = (
(489,2,o),
(541,98,o),
(541,194,cs),
(541,591,l),
(419,591,l),
(419,190,ls),
(419,144,o),
(388,125,o),
(322,125,c),
(322,2,l)
);
},
{
closed = 1;
nodes = (
(326,473,l),
(326,595,l),
(164,595,l),
(164,473,l)
);
},
{
closed = 1;
nodes = (
(673,473,l),
(673,595,l),
(380,595,l),
(380,473,l)
);
}
);
width = 790;
}
);
unicode = 2980;
userData = {
com.fontlab.hintData = {
hhints = (
{
position = -158;
width = 122;
},
{
position = 2;
width = 123;
},
{
position = 251;
width = 123;
},
{
position = 351;
width = 23;
}
);
vhints = (
{
position = 0;
width = 123;
},
{
position = 91;
width = 128;
},
{
position = 572;
width = 122;
}
);
};
};
}
{
color = 0;
glyphname = taNa;
layers = (
{
anchors = (
{
name = tml_virama;
pos = (293,0);
}
);
layerId = "DC4431BF-9234-4C16-9154-22D387E42D10";
shapes = (
{
closed = 1;
nodes = (
(79,-257,l),
(79,-182,o),
(92,-157,o),
(120,-157,cs),
(392,-157,ls),
(545,-157,o),
(566,-41,o),
(566,25,cs),
(566,206,ls),
(566,353,o),
(488,375,o),
(412,375,c),
(412,335,l),
(469,335,o),
(527,328,o),
(526,206,cs),
(525,25,ls),
(525,-83,o),
(469,-117,o),
(391,-117,cs),
(137,-117,ls),
(88,-117,o),
(39,-121,o),
(39,-257,c)
);
},
{
closed = 1;
nodes = (
(114,0,l),
(114,590,l),
(74,590,l),
(74,0,l)
);
},
{
closed = 1;
nodes = (
(358,0,l),
(357,588,l),
(318,588,l),
(317,0,l)
);
},
{
closed = 1;
nodes = (
(201,555,l),
(201,595,l),
(74,595,l),
(74,555,l)
);
},
{
closed = 1;
nodes = (
(501,555,l),
(501,595,l),
(264,595,l),
(264,555,l)
);
}
);
width = 619;
},
{
anchors = (
{
name = tml_virama;
pos = (331,0);
}
);
layerId = "4EACF7E3-2421-4EEA-928B-7BA9BC4A845D";
shapes = (
{
closed = 1;
nodes = (
(460,364,l),
(536,364,o),
(637,342,o),
(637,195,cs),
(637,5,ls),
(637,-61,o),
(593,-187,o),
(440,-187,cs),
(198,-187,ls),
(156,-187,o),
(138,-210,o),
(138,-235,c),
(0,-205,l),
(0,-105,o),
(81,-54,o),
(158,-54,cs),
(419,-54,ls),
(489,-54,o),
(499,-12,o),
(499,18,cs),
(499,185,ls),
(499,231,o),
(477,231,o),
(460,232,c)
);
},
{
closed = 1;
nodes = (
(188,5,l),
(188,431,l),
(272,431,l),
(272,5,l),
(410,5,l),
(410,431,l),
(535,431,l),
(535,553,l),
(50,553,l),
(50,5,l)
);
}
);
width = 696;
}
);
unicode = 2984;
userData = {
com.fontlab.hintData = {
hhints = (
{
position = -157;
width = 122;
}
);
vhints = (
{
position = 1;
width = 128;
},
{
position = 482;
width = 123;
}
);
};
};
}
{
color = 0;
glyphname = taNnna;
layers = (
{
anchors = (
{
name = tml_virama;
pos = (522,0);
}
);
layerId = "DC4431BF-9234-4C16-9154-22D387E42D10";
shapes = (
{
closed = 1;
nodes = (
(615,-13,o),
(647,63,o),
(647,155,cs),
(647,311,ls),
(647,604,o),
(410,605,o),
(350,605,c),
(350,565,l),
(547,564,o),
(607,450,o),
(607,316,cs),
(607,155,ls),
(607,73,o),
(584,27,o),
(543,27,c),
(543,-13,l)
);
},
{
closed = 1;
nodes = (
(270,-14,o),
(307,58,o),
(307,154,cs),
(307,300,ls),
(307,378,o),
(285,437,o),
(216,437,cs),
(197,437,o),
(174,421,o),
(177,408,c),
(264,408,o),
(267,356,o),
(267,300,cs),
(267,154,ls),
(267,60,o),
(234,26,o),
(200,26,c),
(200,-14,l)
);
},
{
closed = 1;
nodes = (
(147,26,l),
(117,26,o),
(80,60,o),
(81,155,c),
(80,300,ls),
(79,413,o),
(115,564,o),
(296,565,c),
(296,605,l),
(221,605,o),
(40,580,o),
(40,300,cs),
(40,154,ls),
(40,69,o),
(76,-14,o),
(147,-14,c)
);
},
{
closed = 1;
nodes = (
(489,27,l),
(452,27,o),
(424,75,o),
(424,156,cs),
(424,300,ls),
(424,487,o),
(534,565,o),
(667,565,c),
(667,605,l),
(624,606,o),
(384,594,o),
(384,298,cs),
(384,155,ls),
(384,70,o),
(420,-13,o),
(489,-13,c)
);
},
{
closed = 1;
nodes = (
(778,0,l),
(778,573,l),
(738,573,l),
(738,0,l)
);
},
{
closed = 1;
nodes = (
(874,605,l),
(720,605,l),
(720,566,l),
(874,565,l)
);
}
);
width = 914;
},
{
anchors = (
{
name = tml_virama;
pos = (581,0);
}
);
layerId = "4EACF7E3-2421-4EEA-928B-7BA9BC4A845D";
shapes = (
{
closed = 1;
nodes = (
(719,-13,o),
(768,62,o),
(768,154,cs),
(768,301,ls),
(768,586,o),
(531,605,o),
(389,605,c),
(389,483,l),
(522,482,o),
(646,476,o),
(646,290,cs),
(646,154,ls),
(646,143,o),
(650,109,o),
(622,109,cs),
(622,-13,l)
);
},
{
closed = 1;
nodes = (
(336,-14,o),
(385,62,o),
(385,154,cs),
(385,290,ls),
(385,378,o),
(362,437,o),
(295,437,c),
(238,432,o),
(207,376,o),
(210,342,c),
(231,342,o),
(263,342,o),
(263,290,cs),
(263,154,ls),
(263,143,o),
(267,109,o),
(239,109,cs),
(239,-14,l)
);
},
{
closed = 1;
nodes = (
(186,108,l),
(161,108,o),
(162,142,o),
(162,154,cs),
(162,290,ls),
(162,476,o),
(255,483,o),
(335,483,c),
(335,605,l),
(266,605,o),
(40,596,o),
(40,290,cs),
(40,153,l),
(40,68,o),
(91,-14,o),
(186,-14,cs)
);
},
{
closed = 1;
nodes = (
(568,109,l),
(543,109,o),
(545,143,o),
(545,155,cs),
(545,290,ls),
(545,477,o),
(667,484,o),
(748,484,c),
(748,606,l),
(689,606,o),
(423,591,o),
(423,288,cs),
(423,154,l),
(423,69,o),
(473,-13,o),
(568,-13,cs)
);
},
{
closed = 1;
nodes = (
(941,0,l),
(941,573,l),
(819,573,l),
(819,0,l)
);
},
{
closed = 1;
nodes = (
(1037,605,l),
(801,605,l),
(801,483,l),
(1037,482,l)
);
}
);
width = 1078;
}
);
unicode = 2985;
}
